<svg width="67" height="40" viewBox="0 0 67 40" fill="none" xmlns="http://www.w3.org/2000/svg">
<g clip-path="url(#clip0_247_4156)">
<path d="M55.9884 6.93954C56.5237 6.63066 57.29 6.55454 58.028 6.18548C58.536 5.93058 58.6497 5.90845 59.3381 5.43407C59.3817 5.40486 59.3877 5.33583 59.2612 5.32078C58.9405 5.28007 58.3752 5.15085 58.3444 4.74461C58.2837 4.34014 58.4299 3.83832 58.772 3.44712C59.0132 3.1701 59.4305 2.75943 59.4561 2.37355C59.498 1.60532 59.1081 1.4823 58.7823 1.50885C58.7686 2.2169 58.128 2.83112 57.8604 3.15505C56.9992 4.19765 56.1859 4.55078 56.15 5.60754C56.1363 5.98103 55.961 6.58641 55.8687 6.88378C55.8285 6.99707 55.9242 6.97672 55.9884 6.93954ZM34.1642 14.9466C34.2924 14.8944 34.2916 14.8236 34.1642 14.8386C32.4666 15.0387 30.7537 15.6352 29.1579 16.4317C29.0921 16.3167 29.0425 16.2255 29.0425 15.9175C29.0425 15.4104 29.1716 14.6466 29.6745 14.6616C30.3862 14.6872 31.0795 14.4246 31.6072 13.9297C31.6072 13.9297 29.7395 13.6828 29.8968 12.8623C29.9421 12.6154 30.0867 12.4977 30.3167 12.5402C31.0171 12.6694 31.2668 12.079 31.2668 12.079C31.2668 12.079 30.5972 11.9082 30.3056 11.6887C30.2457 11.6436 30.1645 11.5666 30.2603 11.4666C30.3732 11.3462 30.4886 11.2462 30.693 11.3011C31.2634 11.456 31.5926 11.4781 31.7825 11.4781C31.9014 11.4781 31.9766 11.3852 31.8817 11.3347C31.673 11.2285 31.3823 10.9046 30.9949 10.7285C31.3719 10.4843 31.7053 10.1744 31.98 9.81243C31.98 9.81243 31.809 9.8673 31.496 9.72923C31.1112 9.56107 31.1223 7.63165 30.8734 7.21302C30.5724 6.74986 30.1597 6.37612 29.6762 6.12883C29.2289 5.92704 28.8022 5.86774 28.5892 5.63232C28.2284 5.22873 28.8603 2.73642 26.2674 2.73642C24.6426 2.73642 23.5557 4.05692 23.3059 5.39689C23.2572 5.71912 23.2523 6.04682 23.2914 6.37045C23.2914 6.37045 24.6417 6.06422 25.1352 7.49182C24.7358 7.07761 24.3501 6.87228 24.2141 6.85015C23.6814 6.75014 23.359 7.0962 23.2683 7.56705C23.0058 8.96986 24.4023 10.1629 24.5511 10.3027C24.2774 13.1181 25.4473 14.905 25.5593 17.1442C25.6209 18.6054 24.6212 19.2108 24.451 19.3878C23.3119 20.5685 23.0092 21.0942 22.6551 22.0828C22.6551 21.3217 22.9117 20.2729 23.5232 19.1365C23.5702 19.048 23.5676 18.9329 23.4043 19.0249C22.904 19.3046 22.1215 19.7657 21.4818 20.3233C20.9867 20.7543 20.5856 21.2429 20.1991 21.7137C19.5397 21.9138 18.5554 22.3474 17.2256 23.3121C16.1395 24.1034 15.4648 25.5832 15.4648 25.5832C14.5438 25.5247 13.6198 25.5386 12.7008 25.6248C9.1698 25.9301 4.62109 27.61 4.62109 27.61H22.7843C23.1195 22.7254 29.3358 16.5725 34.1642 14.9466ZM27.8871 7.42367C27.8871 7.42367 28.1839 7.6821 28.8167 7.67591C29.4496 7.66971 29.7574 7.86708 29.9002 8.091C29.8618 9.37255 29.2272 10.3036 28.7312 10.3089C28.6217 10.3089 28.5602 10.2417 28.5756 10.1532C28.6072 9.93633 28.6029 9.66462 28.4541 9.44513C28.2567 9.14469 27.9854 8.90424 27.6682 8.74859C27.5827 8.70168 27.398 8.58663 27.3963 8.35297C27.392 7.81398 27.8871 7.42455 27.8871 7.42455V7.42367ZM32.9224 8.78842C32.9956 8.78699 33.0664 8.76192 33.1251 8.71673C33.3235 8.56362 33.5117 8.35474 33.51 8.21402C33.51 7.88655 33.1174 7.50598 32.3777 7.46172C32.1066 7.44668 32.0493 7.49359 31.88 7.66971C31.6457 7.91133 31.8663 8.48219 31.9176 8.60964C32.5034 8.62203 32.7984 8.7893 32.9224 8.7893V8.78842ZM66.4755 0.0936534C66.1984 0.157377 65.8914 0.384836 65.6203 0.77957C65.5484 0.931799 65.2312 1.46549 65.0943 1.81331C64.9101 1.9744 64.7362 2.14764 64.5735 2.33195C64.3847 2.53219 64.2109 2.74699 64.0536 2.9745C63.8979 3.50554 63.419 4.53662 63.419 4.53662C63.49 4.07639 63.9082 2.82316 63.9441 2.5957C63.9954 2.27089 63.8928 1.87527 63.8637 1.55045C63.8432 1.30352 63.8227 1.05659 63.8193 0.810547C63.8193 0.698146 63.9304 -0.0143227 63.6893 0.00426343C63.4823 0.0210794 63.0368 0.19986 62.9196 0.832674C62.8478 1.20971 62.9367 1.87704 62.8905 2.60278C62.8803 2.77271 62.74 3.02141 62.6494 3.47633C62.5468 3.99851 62.4228 4.7154 62.2321 5.31547C62.2586 5.11279 62.4433 3.92328 62.4732 3.42942C62.5031 2.93556 62.085 1.38672 62.0559 1.14067C62.0319 0.941535 61.9584 0.884891 61.8575 0.875156C61.5017 0.842409 61.1443 1.39822 61.2589 2.1514C61.2948 2.37709 61.5684 3.02761 61.5428 3.4011C61.5171 3.77459 61.3435 4.15339 61.3273 4.36492C61.2879 4.88799 61.2631 5.5978 61.199 5.92439C61.2512 5.6633 61.1588 4.35873 61.1391 4.0817C61.1229 3.88522 60.7346 2.96831 60.5482 2.45409C60.4695 2.2346 60.3207 2.22221 60.2173 2.27708C59.7982 2.49392 59.7803 3.24533 59.8641 3.59581C59.9128 3.79937 60.1754 4.34899 60.2788 4.81453C60.0086 6.98911 59.5502 7.14665 59.5502 7.14665C59.5502 7.14665 59.3937 7.27586 58.8498 7.36791C57.8963 7.5343 56.2218 8.01842 55.7583 7.50155C55.7361 7.47453 55.7052 7.45671 55.6712 7.45134C55.6373 7.44598 55.6027 7.45343 55.5736 7.47234C55.4291 7.58917 54.2122 8.67779 53.4759 9.25573C51.1284 11.0966 49.5053 11.5993 47.6495 12.9269C45.503 16.4096 43.4908 17.5805 40.8371 18.3346C39.698 18.6577 38.5615 18.6346 38.3571 18.0124C37.856 16.5176 39.7254 15.7387 41.0509 15.5113C41.1228 15.4998 41.1236 15.3971 41.0509 15.3582C40.4113 14.9997 39.6749 14.8333 38.7727 14.8333C32.1109 14.6616 25.9048 22.8873 26.4667 27.3524C26.4752 27.4409 26.4872 27.5294 26.5 27.6179H33.3321C34.2924 26.6939 35.3033 25.5053 36.3252 24.0282C36.3252 24.0282 34.5293 24.4132 32.9951 24.3008C33.0011 24.3008 35.0476 23.9193 37.9749 21.8279C42.7724 23.1404 47.1535 16.6415 48.4252 18.8249C48.4645 18.8904 48.5543 18.8302 48.5791 18.8108C52.4411 16.0945 53.9556 12.6614 56.6571 10.2718C57.8672 9.19908 58.105 8.75656 60.207 8.17685C60.7911 8.01665 60.8561 7.78211 61.0519 7.5458C61.3264 7.21302 61.7207 7.50863 62.0037 6.99265C62.1166 6.78731 61.9969 6.47666 62.5681 6.35275C63.1394 6.22884 63.201 5.67657 63.4746 5.36326C64.1896 4.5437 64.1015 4.59504 64.7164 3.91177C64.9473 3.63298 65.8794 2.4594 65.9675 2.2762C66.0992 2.01068 66.4207 1.12563 66.8295 0.631766C67.2212 0.154722 66.8731 0.005148 66.4755 0.0936534Z" fill="url(#paint0_linear_247_4156)"/>
<path d="M23.0164 39.8632H27.282C27.6574 39.8632 27.9088 39.5773 27.9088 39.1675V38.8135C27.7036 38.8613 27.3957 38.8834 26.8142 38.8834H25.41L27.8515 34.0156H23.0514V34.9821H25.1988L23.1523 39.002C22.9702 39.356 22.9479 39.6384 23.0155 39.8632" fill="#005092"/>
<path d="M18.7656 36.754L19.8714 38.9533C20.1801 39.587 20.3161 39.8605 21.0122 39.8605H22.5857C22.4951 39.7879 22.4147 39.6357 22.2548 39.3419L20.6453 36.2796L22.5267 34.0156H20.8506L18.7656 36.754Z" fill="#005092"/>
<path d="M16.7031 39.8634H18.6529V32.8715C18.6529 32.1466 18.1398 31.6758 17.4335 31.6758H16.7031V39.8634Z" fill="#005092"/>
<path d="M15.8358 39.3314L13.8869 33.3343C13.6586 32.6174 13.42 32.2891 12.4613 32.2891H11.5369L8.82422 39.8616H10.0557L10.6757 37.9888H13.2866L13.6594 39.2013C13.7962 39.6483 13.9673 39.8465 14.4351 39.8465H16.077C15.9975 39.7642 15.9393 39.6262 15.8358 39.3314ZM10.9784 37.0719L12.0269 33.9007L13.0043 37.0692L10.9784 37.0719Z" fill="#005092"/>
<path d="M31.2091 40.0002C32.8279 40.0002 34.2022 38.8028 34.2022 36.814C34.2022 35.1192 32.8921 33.8633 31.239 33.8633C29.5859 33.8633 28.2305 35.0979 28.2305 37.0875C28.2305 38.8364 29.5988 40.0002 31.2091 40.0002ZM31.2304 38.9205C30.5702 38.9205 30.3299 38.131 30.3299 36.8972C30.3299 35.7228 30.5591 34.9218 31.2304 34.9218C31.9018 34.9218 32.1079 35.7688 32.1079 37.0017C32.1079 38.1691 31.8932 38.9205 31.2304 38.9205Z" fill="#005092"/>
<path d="M35.082 39.8603H36.3015V35.0314L39.4007 38.8832C39.8351 39.4257 40.1199 39.8567 40.5877 39.8567H41.4754V32.9259C41.4754 32.5258 41.2188 32.2692 40.816 32.2692H40.279V36.8352L37.2987 33.156C36.8548 32.6055 36.6265 32.2656 35.9783 32.2656H35.082V39.8603Z" fill="#005092"/>
<path d="M45.2963 40.0002C46.9152 40.0002 48.2955 38.8028 48.2955 36.814C48.2955 35.1218 46.9836 33.8633 45.3305 33.8633C43.6775 33.8633 42.3203 35.0962 42.3203 37.0858C42.3203 38.8364 43.6886 39.9985 45.2963 39.9985V40.0002ZM45.3194 38.9187C44.6567 38.9187 44.4172 38.1292 44.4172 36.8964C44.4172 35.721 44.6464 34.92 45.3194 34.92C45.9925 34.92 46.1968 35.7688 46.1968 37.0026C46.1968 38.1673 45.9796 38.9187 45.3194 38.9187Z" fill="#005092"/>
<path d="M61.056 37.0479C61.088 36.8226 61.1035 36.5951 61.1022 36.3673C61.1022 34.9795 60.1102 33.875 58.4118 33.875C56.7134 33.875 55.4922 35.0964 55.4922 36.955C55.4922 38.7543 56.5757 39.9987 58.3425 39.9987C60.1093 39.9987 60.7481 39.0473 60.784 38.1295C60.4069 38.4136 59.8254 38.5764 59.1746 38.5764C58.1877 38.5764 57.5498 37.9958 57.4565 37.0479H61.056ZM57.4557 36.239C57.519 35.3796 57.8388 34.8388 58.3878 34.8388C59.1412 34.8388 59.2892 36.239 59.2892 36.239H57.4557Z" fill="#005092"/>
<path d="M52.5622 33.9366C51.8994 33.9366 51.3521 34.1835 51.0785 34.4676V32.8789C51.0785 32.1505 50.5765 31.6797 49.871 31.6797H49.1406V39.8638H51.4214C53.5987 39.8638 54.8071 38.6875 54.8071 36.5006C54.8071 35.0296 53.8398 33.9366 52.5622 33.9366ZM51.3744 38.8867H51.0785V35.1128C51.2184 35.0958 51.3592 35.0875 51.5001 35.088C52.2424 35.088 52.8017 35.7961 52.8017 36.7351C52.8017 38.1326 52.2868 38.8867 51.3744 38.8867Z" fill="#005092"/>
<path d="M61.9141 39.8638H63.8519V32.8789C63.8519 32.1505 63.3388 31.6797 62.6324 31.6797H61.9141V39.8638Z" fill="#005092"/>
<path d="M63.8923 27.4922H0V27.7135H63.8923V27.4922Z" fill="#005092"/>
</g>
<defs>
<linearGradient id="paint0_linear_247_4156" x1="4.87765" y1="28.1339" x2="65.9372" y2="-1.92715" gradientUnits="userSpaceOnUse">
<stop offset="0.34" stop-color="#005092"/>
<stop offset="0.75" stop-color="#008BCB"/>
</linearGradient>
<clipPath id="clip0_247_4156">
<rect width="67" height="40" fill="white"/>
</clipPath>
</defs>
</svg>
