<svg width="99" height="21" viewBox="0 0 99 21" fill="none" xmlns="http://www.w3.org/2000/svg">
<g clip-path="url(#clip0_247_4108)">
<path fill-rule="evenodd" clip-rule="evenodd" d="M67.633 12.7352C67.3315 15.1 66.3688 16.3216 65.052 16.3216C64.2132 16.3216 63.733 15.6758 63.8757 14.6658L64.3384 11.4718C64.5179 10.2889 65.1579 9.36238 66.2974 9.36238C67.5635 9.36138 67.9391 10.3073 67.633 12.7352ZM63.2878 17.428C63.4673 17.428 63.8937 18.2547 65.2822 18.2547C68.238 18.2547 69.9318 15.8899 70.3945 12.8346C70.9824 9.06578 69.3259 7.35031 67.2421 7.35031C66.2629 7.35031 65.604 7.44968 65.0686 7.76614L65.8711 2.5616L63.3412 2.60035L60.9011 18.0967L62.7533 18.0361C62.7533 18.0361 63.0226 17.426 63.3057 17.426L63.2878 17.428ZM88.8692 10.8235C89.2421 8.47608 88.4599 7.33292 86.1612 7.33292C84.4521 7.33292 83.8274 8.08112 83.1861 8.79254L83.2758 7.55053L80.9421 7.59077L80.7105 9.52285L79.3915 18.0997L81.9214 18.0391L82.7229 12.5181C83.007 10.6049 84.2039 9.14527 85.3232 9.14527C86.5705 9.14527 86.4995 9.93371 86.3043 11.136L85.2178 18.0997L87.7463 18.0391L88.8683 10.8235H88.8692ZM99.003 7.37168L96.3506 7.33243L92.7508 11.3933H92.6983L94.0501 2.57849L91.6266 2.59985L89.1874 18.1002L91.6455 18.0396L91.8945 16.5224L92.3922 13.1292C93.6937 13.1292 94.4235 13.2876 94.9953 16.1458L95.3866 18.1002L97.8999 18.0605C97.8999 18.0605 97.2774 15.1407 96.8676 13.9976C96.4417 12.7958 95.8875 12.0834 94.8929 11.8683L99.0071 7.37367L99.003 7.37168ZM29.1811 11.1971C30.9789 10.7629 31.8352 9.10503 32.0843 8.06075C32.7252 5.18374 31.5669 2.9342 28.2543 2.97395L24.4395 3.05393L22.0708 18.0759L24.6173 18.0585L25.5974 12.0049C26.1144 12.0049 26.3281 11.9835 26.5771 12.0233C26.8437 12.0431 27.2189 12.1028 27.4501 12.3179C27.8594 12.7521 28.2162 13.6806 28.4823 15.4945L28.8754 18.0779L31.4749 18.0605C31.1715 16.5025 30.9767 15.0434 30.7276 13.859C30.4583 12.617 30.0867 11.75 29.1604 11.1986H29.1793L29.1811 11.1971ZM29.5186 7.64641C29.3049 8.98779 28.4486 9.83683 27.2921 9.83683H25.829L26.5776 5.12413L27.9155 5.065C29.2327 5.02526 29.7138 6.30702 29.5172 7.6484L29.5186 7.64641ZM40.795 10.4082C41.1514 8.11937 40.0464 7.33243 37.8199 7.33243C35.3444 7.33243 33.8297 8.79204 33.8297 8.79204L34.686 10.3878C34.686 10.3878 35.8425 9.22427 37.6413 9.22427C38.2301 9.22427 38.3917 9.65798 38.3019 10.3878L38.1063 11.748C34.5262 11.6487 32.6907 12.4967 32.2805 15.0995C31.9421 17.2288 33.4024 18.1737 35.0226 18.1737C35.8601 18.1737 36.5198 18.1141 37.3379 17.3292C37.4991 17.8429 37.7656 18.0744 38.0879 18.1375C38.6022 18.2557 39.5115 18.1573 39.7798 17.9387C39.7614 17.6228 39.7798 16.8125 40.0832 14.9206L40.795 10.4072V10.4082ZM37.8549 13.1903L37.6059 14.7304C37.5392 15.2362 37.3131 15.6996 36.9675 16.0386C36.6218 16.3776 36.179 16.5702 35.7173 16.5825C34.791 16.5825 34.4185 15.9913 34.5778 15.182C34.791 13.8406 35.4678 13.4864 36.0562 13.308C36.3591 13.2087 37.3379 13.1923 37.8549 13.1923V13.1903ZM45.5146 18.2577C48.4721 18.2577 50.1645 15.8929 50.6272 12.8375C51.2152 9.06877 49.5569 7.3533 47.4736 7.3533C46.4934 7.3533 45.8346 7.45266 45.2821 7.76912L46.0845 2.56458L43.5713 2.60333L41.1316 18.1037L42.9851 18.0431C42.9851 18.0431 43.2513 17.433 43.5197 17.433C43.696 17.433 44.1237 18.2597 45.5132 18.2597L45.5146 18.2577ZM46.5468 9.36486C47.8115 9.36486 48.1858 10.3088 47.882 12.7382C47.5808 15.103 46.6177 16.3246 45.2789 16.3246C44.4424 16.3246 43.9613 15.6788 44.1224 14.6688L44.5855 11.4748C44.7651 10.2914 45.4051 9.36486 46.5261 9.36486H46.5468ZM54.92 18.3163C52.5678 18.1777 51.1784 16.2461 51.3556 13.7253C51.5693 10.1165 53.4565 7.07955 57.216 7.29666C60.1911 7.47253 60.941 9.62271 60.8324 11.9875C60.6529 15.7136 58.6782 18.5543 54.9366 18.3377L54.92 18.3163ZM55.2386 16.3857C57.1438 16.5045 57.9992 14.0184 58.1253 11.911C58.1958 10.8071 58.3744 9.3276 56.9292 9.2665C55.06 9.14875 54.1018 11.7903 53.9757 13.8038C53.886 15.2639 54.2235 16.346 55.2207 16.4066L55.2386 16.3857ZM79.0895 10.3744C79.4449 8.08609 78.3404 7.29815 76.1315 7.29815C73.6563 7.29815 72.1417 8.75677 72.1417 8.75677L72.9944 10.355C72.9944 10.355 74.155 9.18999 75.9524 9.18999C76.5403 9.18999 76.7005 9.6237 76.5951 10.355L76.3985 11.7128C72.8175 11.6134 70.9833 12.4625 70.574 15.0662C70.2352 17.1935 71.696 18.1404 73.3175 18.1404C74.155 18.1404 74.8133 18.0798 75.6324 17.2959C75.7935 17.8071 76.0596 18.0446 76.3801 18.1052C76.898 18.2209 77.8059 18.1211 78.0729 17.9065C78.0559 17.591 78.0729 16.7817 78.3745 14.8898L79.0881 10.3769L79.0895 10.3744ZM74.3695 13.2727C74.6711 13.1734 75.6517 13.1515 76.1512 13.1515L75.9021 14.6916C75.7226 15.954 74.7447 16.5442 74.032 16.5442C73.1052 16.5442 72.7305 15.954 72.8736 15.1432C73.0873 13.8018 73.7636 13.4481 74.3515 13.2722L74.3695 13.2727ZM0.00390625 15.4244C0.00390625 12.837 3.06649 10.7321 6.87318 10.6789C6.87318 10.6789 6.86152 10.4747 6.84985 10.36C6.83818 10.2452 6.76009 10.1051 6.76009 9.87508C6.76009 9.64506 6.93287 8.62562 6.93287 8.62562C6.93287 8.62562 6.79509 8.47161 6.71386 8.15365C6.66641 7.96919 6.63161 7.78103 6.60974 7.59077C6.60974 7.59077 6.47196 6.86195 6.47196 6.60858C6.47196 6.48736 6.5137 6.07005 6.50607 5.6731C6.50157 5.37848 6.48044 5.08445 6.44279 4.79275C6.22692 5.37203 6.03124 5.64428 5.88 5.84698C5.79652 6.01937 5.74536 6.23449 5.70048 6.41135C5.6556 6.58822 5.3751 7.10688 5.3751 7.33541C5.3751 7.62406 5.52635 7.85656 5.52635 7.94698C5.52021 8.01264 5.49645 8.07476 5.45813 8.12533C5.49807 8.27438 5.53039 8.36827 5.32753 8.36827C5.18212 8.36827 5.09999 8.20433 5.09999 7.92115C5.10472 7.78109 5.11655 7.64143 5.13544 7.50283C5.13775 7.39535 5.14948 7.28836 5.17045 7.18339C5.30509 6.65677 5.34997 6.28268 5.43434 5.71185C5.47922 5.39687 5.64438 5.26473 5.72247 4.95919C5.84634 4.47133 6.05323 3.2775 6.13761 3.12101C6.23365 2.95209 6.45176 2.8726 6.6811 2.73697C6.89697 2.60581 7.05181 2.5154 7.05181 2.25557C7.05181 2.06529 6.91447 2.07622 6.84177 1.98183C6.78073 1.90184 6.79689 1.36976 6.79689 1.12683C6.79689 0.883887 6.74977 0.856065 6.74977 0.641942C6.74977 0.427818 6.83549 -0.00390625 7.24658 -0.00390625C7.42341 -0.00390625 7.48175 0.179909 7.55715 0.365217C7.63748 0.566424 7.70705 0.665786 7.70705 1.0369C7.70705 1.26692 7.40546 1.49495 7.40546 1.94854C7.40546 2.07622 7.51137 2.35046 8.10962 2.35046C8.35825 2.35046 8.49693 2.68332 8.52027 2.80951C8.5436 2.9357 8.52565 3.07927 8.54854 3.25067C8.57143 3.42207 8.67645 3.55968 8.71774 3.7117C8.75903 3.86373 8.84385 4.444 8.86764 4.5533C8.89142 4.66259 9.06196 5.13952 9.09652 5.36408C9.13108 5.58864 9.19481 6.38601 9.25226 6.73676C9.3097 7.0875 9.34201 7.0716 9.36176 7.22661C9.39003 7.43328 9.46543 7.42533 9.46543 7.57437C9.46543 7.72341 9.24642 8.16061 9.09652 8.16061C8.97535 8.16061 8.93047 7.75819 8.93047 7.632C8.93047 7.31305 9.0301 7.22264 9.0301 6.78296C9.0301 6.45209 8.94618 6.36266 8.78595 5.97217C8.62573 5.58168 8.54316 5.43016 8.52116 5.30894C8.49917 5.18772 8.32953 4.93832 8.29004 4.77289C8.22855 4.51952 8.13475 4.2105 8.13475 4.2105C8.13475 4.2105 7.92741 4.81064 7.8924 5.19418C7.88791 5.25827 7.77033 5.49524 7.78424 5.69744C7.79456 5.86834 7.93952 5.88424 8.0423 6.16891C8.14507 6.45358 8.11725 6.56636 8.11725 7.00702C8.11725 7.44769 7.86413 8.03839 7.86413 8.03839C7.98036 8.19191 8.14642 8.92171 8.29587 9.20092C8.38249 9.36188 8.65491 9.51142 8.91745 9.76032C9.29309 10.1205 9.32137 10.6049 9.55429 10.9949C12.1798 11.679 14.0387 13.4004 14.0387 15.4165C14.0387 18.7004 10.8706 20.9966 7.0177 20.9966C3.16478 20.9966 0.00884304 19.0218 0.00884304 15.4189L0.00390625 15.4244ZM7.54369 10.6898C7.88971 10.7087 8.23034 10.744 8.56156 10.7932C8.47688 10.6535 8.38057 10.523 8.27388 10.4032C8.14193 10.2725 7.92292 10.1473 7.79322 10.0216C7.66352 9.89595 7.62851 9.69077 7.51541 9.62668C7.47729 9.7348 7.45531 9.84907 7.45034 9.965C7.45034 10.0693 7.54369 10.6898 7.54369 10.6898Z" fill="#3067AD"/>
<path fill-rule="evenodd" clip-rule="evenodd" d="M7.46892 14.749C7.6251 14.7942 7.88405 14.8707 7.88405 14.8707L7.58426 14.9204L6.92767 17.4347L6.27018 14.9248L3.05859 14.4996L6.27018 14.0768L6.81771 12.487C6.82371 12.6435 6.81438 12.8002 6.78989 12.9545C6.74905 13.1458 6.74725 13.2476 6.6925 13.3783C6.65166 13.5318 6.58703 13.7663 6.58703 13.7663C6.58703 13.7663 6.30968 14.0832 6.22351 14.1359C6.13734 14.1886 5.92371 14.1488 5.92371 14.276C5.9248 14.2912 5.92675 14.3063 5.92954 14.3212L5.12844 14.3262V14.3724L5.94121 14.358C6.01078 14.4797 6.28589 14.4737 6.28589 14.4737L6.30968 14.5383C6.30968 14.5383 6.23428 14.6794 6.23428 14.742C6.23458 14.7557 6.23745 14.7692 6.2427 14.7817C6.24795 14.7941 6.25548 14.8052 6.2648 14.8142C6.27411 14.8233 6.28503 14.8301 6.29684 14.8343C6.30866 14.8384 6.32113 14.8398 6.33346 14.8384C6.39167 14.8318 6.4494 14.8209 6.50625 14.8056C6.77194 15.0287 7.27279 14.9611 7.46892 14.7495V14.749ZM7.53668 11.5938C8.16818 11.637 8.79195 11.7706 9.39246 11.9912C9.42227 12.0903 9.44655 12.1913 9.46516 12.2937C9.50697 12.4151 9.53223 12.5427 9.54011 12.6723L7.47565 13.6048L7.22747 12.8184C7.27674 12.5833 7.33666 12.3512 7.40698 12.1228C7.46276 11.9513 7.50599 11.775 7.53624 11.5957L7.53668 11.5938Z" fill="#E3AA39"/>
<path fill-rule="evenodd" clip-rule="evenodd" d="M9.36373 11.9246C8.77354 11.7139 8.16188 11.5857 7.54297 11.543C7.54297 11.543 7.61567 11.2633 7.55149 10.8008C7.92331 10.8207 8.29392 10.8622 8.66182 10.925C8.73677 11.0323 9.21428 11.4789 9.36373 11.9246ZM9.99205 12.2549C11.1796 12.8625 11.9452 13.8159 11.9452 14.8527C11.9453 15.0056 11.9272 15.1577 11.8914 15.3053C11.7567 15.2661 11.4206 15.0703 11.3775 14.8751C11.3547 14.7967 11.3453 14.7143 11.3497 14.6322C11.3163 14.4627 11.2706 14.2965 11.2128 14.1353C11.1055 13.8373 10.6976 13.5481 10.6715 13.4269C10.6455 13.3057 10.6684 13.1785 10.6684 13.0945C10.6684 13.0106 10.5854 12.9321 10.4467 12.9321C10.308 12.9321 10.2411 13.0021 10.1231 13.0021C10.0527 13.0024 9.98309 12.9867 9.91845 12.9559C9.97724 12.8069 9.92697 12.783 9.92697 12.553C9.92221 12.4488 9.94482 12.3453 9.99205 12.2549Z" fill="#E3AA39"/>
<path fill-rule="evenodd" clip-rule="evenodd" d="M13.7392 15.0369C13.7607 15.2796 13.7527 15.5244 13.7154 15.7648L12.8357 15.5318L11.9987 15.3445C12.0307 15.2016 12.0471 15.055 12.0476 14.9078C12.0476 13.8252 11.2443 12.8296 10.0074 12.2032C10.0303 12.1316 10.1869 11.9766 10.1869 11.8057C10.1869 11.6944 9.95626 11.6179 9.82162 11.4728C9.73186 11.379 9.62819 11.1484 9.62819 11.1484C11.7218 11.7535 13.2751 13.0537 13.657 14.5724C13.657 14.5724 13.2338 14.4189 13.0583 14.4204C13.0165 14.3333 12.9806 14.2427 12.9511 14.1496L12.925 14.2262C12.6634 14.2391 12.2927 14.2316 12.2927 14.2316L12.2312 14.167L12.2945 14.3558L12.3205 14.2952H12.9457L13.0121 14.3504L13 14.4085C12.9453 14.4051 12.8904 14.4124 12.838 14.4298H12.3685L12.3079 14.3802L12.3452 14.5526L12.3753 14.4919L12.6997 14.4999C12.6477 14.5461 12.6997 14.6271 12.6997 14.6271L12.4004 14.6306L12.3519 14.5779L12.3771 14.7538L12.4121 14.6956L12.7473 14.7061C12.987 14.9967 13.7392 15.032 13.7392 15.032V15.0369ZM9.42578 14.6961L10.2758 14.5575C10.2816 14.6986 10.3207 14.8179 10.2785 15.0186C9.97821 14.9726 9.68871 14.8631 9.42578 14.6961Z" fill="#E3AA39"/>
<path fill-rule="evenodd" clip-rule="evenodd" d="M7.16288 13.8134C7.14373 13.6798 7.13368 13.5447 7.13281 13.4095C7.1393 13.2496 7.16295 13.0912 7.20327 12.9375L7.57308 14.0802L10.2739 14.3827V14.5094L9.35795 14.653C9.35795 14.653 9.12323 14.4855 8.67802 14.4369L10.0208 14.4552L10.041 14.3961L7.73689 14.3911L7.60225 14.3608C7.60225 14.3608 7.55199 14.0662 7.17949 13.9684L7.16288 13.8134Z" fill="#E3AA39" stroke="#3067AD" stroke-width="0.26" stroke-miterlimit="33.89"/>
<path fill-rule="evenodd" clip-rule="evenodd" d="M7.49219 13.6543L9.50908 12.7422L8.21789 14.095L7.95265 14.0637L8.65053 13.5669L8.63303 13.5366L7.8611 14.0572L7.64702 14.0334L9.18909 12.9742L9.17114 12.9414L7.59451 13.9882L7.49443 13.6543H7.49219Z" fill="#E3AA39" stroke="#3067AD" stroke-width="0.26" stroke-miterlimit="33.89"/>
<path fill-rule="evenodd" clip-rule="evenodd" d="M7.19531 14.0447C7.42285 14.1356 7.46459 14.2931 7.46459 14.2931L7.20294 14.1441L7.19711 14.0447H7.19531ZM8.29307 14.1028L9.54207 12.7773C9.55997 12.8162 9.56414 12.861 9.55374 12.903C9.52816 12.9845 9.33652 13.064 9.33652 13.1857C9.33652 13.2473 9.3814 13.2533 9.42628 13.2533C9.47116 13.2533 9.53579 13.2006 9.58515 13.214C9.68389 13.2419 9.88181 13.3064 9.96708 13.449C10.1193 13.7167 10.2216 14.0153 10.2682 14.3274C9.92759 14.301 8.29352 14.1028 8.29352 14.1028H8.29307ZM10.4437 17.3142C10.7778 17.1025 11.0851 16.8427 11.3575 16.5416C11.5118 16.6182 11.6855 16.8213 12.1168 17.0514C12.4274 17.2173 12.851 17.3445 12.9695 17.4076C12.8815 17.5209 12.7876 17.6284 12.6881 17.7295C12.3188 17.6008 11.0213 17.7404 10.4442 17.3142H10.4437Z" fill="#E3AA39"/>
<path fill-rule="evenodd" clip-rule="evenodd" d="M6.81817 12.3364L6.39181 13.5859L4.27035 12.6747L4.23624 12.7075L5.56782 14.1174L2.88581 14.4796V14.5372L5.5198 14.885L3.79373 16.6089L3.82963 16.6487L6.34917 15.4608L6.89716 17.5916L6.96044 17.5876L7.50169 15.437L10.0266 16.6372L10.067 16.5846L8.51641 15.0445C8.51641 15.0445 9.30001 15.2482 9.48627 15.3575C9.67252 15.4668 10.0728 15.7718 10.3026 15.8801C10.5324 15.9884 10.5813 15.9516 10.6509 15.9795C10.7205 16.0073 11.2572 16.4465 11.2572 16.4465C10.9713 16.7575 10.6474 17.0227 10.295 17.2344C10.295 17.2344 10.032 17.0585 9.791 17.2105C9.58859 17.3387 9.72637 17.5404 9.72637 17.5404C8.8591 17.9317 7.93106 18.1313 6.99454 18.1281C4.26137 18.1281 2.04297 16.8146 2.04297 14.8492C2.04297 13.0731 4.17116 11.6284 6.82669 11.5703C6.80445 11.825 6.8016 12.0812 6.81817 12.3364Z" fill="#E3AA39" stroke="#3067AD" stroke-width="0.26" stroke-miterlimit="33.89"/>
<path fill-rule="evenodd" clip-rule="evenodd" d="M6.64453 14.7419C6.89272 14.6008 7.3137 14.7166 7.3137 14.7166C7.21664 14.794 7.09941 14.8343 6.97979 14.8313C6.86236 14.8407 6.7452 14.8095 6.64453 14.7419Z" fill="#E3AA39"/>
<path fill-rule="evenodd" clip-rule="evenodd" d="M3.80271 14.4859L6.09785 14.5355V14.5803L3.79688 14.542L3.80271 14.4844V14.4859Z" fill="#3067AD"/>
<path fill-rule="evenodd" clip-rule="evenodd" d="M5.60074 14.8942L5.8772 14.931L5.06936 15.5068L5.12771 15.5262L5.96247 14.9459L6.15321 14.9588L4.22832 16.3042L4.25121 16.329L6.23669 14.9946L6.32959 15.396L3.9375 16.5386L5.60254 14.8922L5.60074 14.8942ZM5.64203 14.1073L4.34456 12.75L6.36818 13.6294L6.30535 13.8157L5.59042 13.3402L5.54958 13.3536L6.2865 13.8748L6.24162 13.996L4.62102 12.9269L4.58646 12.9388L6.18956 14.0318L5.64158 14.1083L5.64203 14.1073Z" fill="#E3AA39" stroke="#3067AD" stroke-width="0.26" stroke-miterlimit="33.89"/>
<path fill-rule="evenodd" clip-rule="evenodd" d="M6.67402 15.0195L6.7189 15.025L6.68973 16.1304L6.64844 16.1219L6.67267 15.0195H6.67402ZM6.91054 15.0503L6.96215 15.0568L6.95631 17.1031L6.89887 17.0793L6.91054 15.0503Z" fill="#3067AD" stroke="#3067AD" stroke-width="0.26" stroke-miterlimit="33.89"/>
<path fill-rule="evenodd" clip-rule="evenodd" d="M7.52344 15.3947L7.5764 15.2019L8.42911 15.7459L8.44571 15.7002L7.593 15.1507L7.63339 14.9977L9.55469 16.2944L9.6063 16.2864L7.68052 14.962L7.98121 14.9023L8.38513 15.0017L9.91373 16.4956L7.52344 15.3947Z" fill="#E3AA39" stroke="#3067AD" stroke-width="0.26" stroke-miterlimit="33.89"/>
<path fill-rule="evenodd" clip-rule="evenodd" d="M6.83336 11.5238C4.11725 11.582 1.94148 13.0729 1.94148 14.9071C1.94148 16.9306 4.20207 18.2854 6.99269 18.2854C7.96846 18.2879 8.93472 18.0731 9.83402 17.6539C10.001 17.8159 10.4175 17.8929 10.544 17.9202C10.6706 17.9475 11.0628 18.1055 11.0628 18.1055L11.2531 18.1294C11.3981 18.1756 11.6795 18.3455 11.8949 18.4026C10.6692 19.2671 8.93283 19.8071 7.01243 19.8071C3.29281 19.8071 0.277344 17.9957 0.277344 15.2981C0.277344 12.8394 3.21696 10.8377 6.87465 10.7891V11.0201L6.72924 11.1736L6.60223 11.0325L6.44695 11.04L6.53895 11.0842L6.67853 11.2109L6.54389 11.351L6.46984 11.3902H6.63096L6.58608 11.3569L6.7068 11.2362L6.85087 11.3773L6.83291 11.5219L6.83336 11.5238Z" fill="#E3AA39"/>
<path fill-rule="evenodd" clip-rule="evenodd" d="M10.0312 17.9353L10.7493 18.3621L10.8754 18.3482L10.5707 18.5032L10.5994 18.4038L10.1506 18.1181C10.1681 18.2955 10.2763 18.5712 10.2763 18.5712L10.3746 18.5911L10.1502 18.6905L10.2081 18.5966L10.0344 17.9328L10.0312 17.9353ZM11.1277 12.6577L11.2259 12.6816L11.6361 12.5216L11.646 12.457L11.7959 12.5733L11.7039 12.5653L11.2601 12.7352L11.2533 12.7919L11.1277 12.6577ZM11.3004 12.8232L11.3992 12.847L11.8071 12.6895L11.8255 12.6046L11.9696 12.7402L11.8655 12.7263L11.4333 12.8977L11.4279 12.9553L11.3004 12.8232Z" fill="#3067AD"/>
<path fill-rule="evenodd" clip-rule="evenodd" d="M6.76562 11.1929L6.87603 11.0781L6.85808 11.2972L6.76562 11.1929Z" fill="#E3AA39"/>
<path fill-rule="evenodd" clip-rule="evenodd" d="M4.56554 11.3941L4.70556 11.3359L4.69973 11.3811L4.9138 11.6241L4.97619 11.637L4.8043 11.6941L4.83257 11.6554L4.63016 11.4124L4.56554 11.3941ZM4.728 11.7135L4.54355 11.7826L4.5615 11.7329L4.3941 11.6832L4.34204 11.8322H4.39993L4.25048 11.9023L4.30793 11.8322L4.35281 11.6767L4.10058 11.5878H4.00813L4.17508 11.5237V11.5511L4.36313 11.6142L4.40442 11.4745L4.33082 11.4681L4.45693 11.4184L4.40442 11.6171L4.62882 11.7165L4.72665 11.723L4.728 11.7135ZM2.21474 12.6078L2.33681 12.5134L2.31931 12.5899L2.41715 12.7469L2.74477 12.7359L2.8655 12.7046L2.72143 12.8577V12.7985L2.45799 12.8065L2.53114 12.9451L2.61821 12.9332L2.5087 13.0479V12.9635L2.42253 12.7985L2.0994 12.8065L1.95623 12.8502L2.10568 12.6982L2.13441 12.7613L2.37586 12.7469L2.28969 12.6078H2.21474ZM0.970228 14.3963L1.01511 14.2224L1.06717 14.3178L1.29157 14.4171L1.63041 14.2974L1.69997 14.2065L1.66586 14.3848L1.62547 14.3535L1.38357 14.4564L1.58508 14.5557L1.64836 14.5061L1.5954 14.8707L1.55052 14.8116L0.928489 14.8181L0.859375 14.8961L0.939709 14.4931L0.998502 14.5324C1.07928 14.5234 1.23457 14.433 1.23457 14.433L1.04428 14.3386L0.96933 14.3928L0.970228 14.3963Z" fill="#3067AD"/>
<path fill-rule="evenodd" clip-rule="evenodd" d="M0.918867 14.6866L1.00548 14.5957L1.30528 14.4805L1.57456 14.5957L1.60283 14.6787L1.54673 14.7358H0.93996L0.917969 14.6861L0.918867 14.6866Z" fill="#E3AA39"/>
<path fill-rule="evenodd" clip-rule="evenodd" d="M1 16.2045L1.12701 16.2298L1.67903 16.0057L1.73244 15.8984L1.81277 16.0972L1.73782 16.0669L1.12701 16.2884L1.08213 16.3967C1.05029 16.3359 1.02312 16.2723 1.0009 16.2065L1 16.2045ZM1.09425 16.4419L1.2235 16.4618L1.76924 16.2174L1.81681 16.1066L1.90343 16.3018L1.82803 16.273L1.22485 16.5214L1.1858 16.6208C1.15274 16.5633 1.12277 16.5038 1.09604 16.4424L1.09425 16.4419ZM1.20196 16.6595L1.31146 16.6645L1.89939 16.3952L1.91106 16.3073L2.00485 16.4857L1.92856 16.4578L1.33346 16.7326L1.30069 16.8116L1.20196 16.6595ZM1.31146 16.8369L1.42232 16.8488L2.20457 16.7495L1.64582 17.2065L1.65165 17.2885L1.51701 17.13L1.60273 17.1375L1.99543 16.8116L1.40212 16.8945V16.9487L1.30967 16.8369H1.31146ZM3.35798 17.7177L3.5532 17.826L3.46658 17.8325L3.05818 18.3293L3.11024 18.4177L3.21481 18.4252L3.63982 17.9383L3.61155 17.8554L3.83594 17.9547L3.74618 17.9676L3.33733 18.4644L3.42215 18.5554L3.5155 18.5633L4.23717 18.1162L4.04598 18.7541L4.10477 18.8385L3.82158 18.7292L3.92525 18.7158L4.10477 18.2309L3.54871 18.5822L3.61289 18.6512C3.34858 18.5618 3.09474 18.438 2.85667 18.2826L2.96259 18.2637L3.39568 17.7982L3.35887 17.7202L3.35798 17.7177ZM6.38511 18.5723L6.69074 18.5782L6.60367 18.6165L6.59873 19.2017L6.70779 19.2479L6.80563 19.2305L7.12921 18.5663H7.16377L7.48062 19.2017L7.5614 19.2415L7.22077 19.2544L7.32489 19.1898L7.10049 18.7466L6.87609 19.2236L6.96585 19.2539C6.75864 19.2692 6.5508 19.2714 6.34337 19.2603L6.46454 19.2161V18.6115L6.38376 18.5718L6.38511 18.5723Z" fill="#3067AD"/>
<path fill-rule="evenodd" clip-rule="evenodd" d="M6.44439 10.72L6.6423 10.7086L6.65487 10.7662L6.46458 10.7752L6.44439 10.72ZM6.17915 10.7334L6.37796 10.721L6.39995 10.7752L6.21191 10.7926L6.17915 10.7334ZM5.9157 10.7637L6.11407 10.7424L6.15177 10.7921L5.93904 10.8189L5.9157 10.7632V10.7637ZM5.65181 10.7926L5.84973 10.7702L5.87486 10.8229L5.68682 10.8497L5.65181 10.7926ZM5.37715 10.8328L5.59616 10.802L5.62174 10.8571L5.40946 10.8869L5.37715 10.8328ZM6.70424 10.7056L6.87209 10.7031L6.87478 10.7613H6.71546L6.70424 10.7056ZM5.11819 10.8825L5.32913 10.8432L5.35112 10.8929L5.15365 10.9282L5.11819 10.8835V10.8825ZM4.86462 10.9322L5.06299 10.8904L5.09486 10.9401L4.8929 10.9848L4.86462 10.9322ZM4.60208 10.9938L4.80852 10.9441L4.83321 10.9992L4.63663 11.0424L4.60208 10.9938ZM4.34761 11.0658L4.54418 11.0067L4.57919 11.0564L4.38306 11.1095L4.34761 11.0668V11.0658ZM4.09718 11.1334L4.28837 11.0767L4.32696 11.1264L4.13174 11.1875L4.09718 11.1349V11.1334ZM3.8104 11.2327L4.0146 11.1567L4.05948 11.2064L3.85618 11.2839L3.8086 11.2342L3.8104 11.2327ZM3.53708 11.3321L3.74847 11.2541L3.79738 11.3038L3.58555 11.3842L3.53708 11.3321ZM3.25883 11.4488L3.47156 11.3544L3.51285 11.4041L3.30191 11.4926L3.25883 11.4488ZM3.01917 11.5621L3.19869 11.4707L3.23594 11.5248L3.0645 11.6063L3.01917 11.5621ZM2.75438 11.6928L2.95006 11.5934L2.99494 11.6431L2.8051 11.7395L2.75259 11.6947L2.75438 11.6928ZM2.51517 11.8264L2.69469 11.7181L2.7463 11.7678L2.56678 11.8736L2.51517 11.8264ZM2.28225 11.9675L2.45099 11.8617L2.51158 11.9034L2.34508 12.0077L2.28225 11.9675ZM2.03361 12.1235L2.20909 12.0067L2.28404 12.0465L2.09959 12.1702L2.03361 12.1235ZM1.81999 12.2909L1.98559 12.1573L2.05067 12.204L1.88641 12.3237L1.81999 12.2909ZM1.60905 12.4534L1.76838 12.3346L1.8348 12.3689L1.68176 12.4971L1.60905 12.4534ZM1.39991 12.6382L1.55924 12.4971L1.6297 12.5388L1.47127 12.6834L1.39991 12.6382ZM1.20918 12.8205L1.35638 12.6834L1.43133 12.7187L1.30163 12.8548L1.20918 12.8205ZM1.02966 13.0192L1.17058 12.8622L1.24822 12.8935L1.11852 13.051L1.02966 13.0192ZM0.858216 13.2219L0.997343 13.0595L1.08306 13.0923L0.948425 13.2483L0.856421 13.2219H0.858216ZM0.698893 13.4296L0.826352 13.2711L0.924638 13.295L0.815132 13.4534L0.698893 13.4296ZM0.575923 13.6348L0.674658 13.4788L0.783267 13.5001L0.688571 13.6532L0.575923 13.6348ZM0.438142 13.8648L0.539571 13.6899L0.651321 13.7038L0.561561 13.8737L0.438142 13.8648ZM0.328187 14.0879L0.417947 13.9199L0.539571 13.9279L0.466417 14.0968L0.328187 14.0879ZM0.238428 14.3333L0.313377 14.147L0.440387 14.1549L0.380248 14.3333H0.238428ZM0.172006 14.5534L0.22676 14.3884H0.36813L0.319212 14.5583L0.172006 14.5534ZM0.114561 14.8072L0.15944 14.6185L0.303055 14.6214L0.262214 14.8087L0.114561 14.8072ZM0.0831443 15.0452L0.111868 14.8644L0.246507 14.8614L0.227208 15.0452H0.0831443ZM0.0656412 15.2906L0.0773104 15.1058L0.22631 15.1018L0.219579 15.2693L0.0656412 15.2906ZM0.0687831 15.5465L0.0625 15.3562L0.219579 15.3259L0.22631 15.5057L0.0687831 15.5465ZM0.0714758 15.6006L0.231247 15.5614L0.246955 15.7641L0.0858376 15.8053L0.0714758 15.6006ZM0.0970575 15.8634L0.251892 15.8172L0.291835 16.0021L0.127127 16.0517L0.0970575 15.8629V15.8634ZM0.141937 16.1198L0.301259 16.0656L0.355564 16.2619L0.196241 16.3175L0.141937 16.1198ZM0.206563 16.3627L0.359603 16.3131L0.425576 16.4994L0.269844 16.5699L0.206563 16.3617V16.3627ZM0.287347 16.6201L0.434103 16.5555L0.523863 16.7458L0.373067 16.8173L0.287347 16.6201ZM0.396405 16.8685L0.531044 16.8054L0.63651 16.9813L0.487959 17.0578L0.394609 16.8685H0.396405ZM0.518477 17.1169L0.661194 17.0379L0.779228 17.2157L0.632471 17.3111L0.518477 17.1169ZM0.663438 17.3474L0.798077 17.2669L0.938999 17.4458L0.78955 17.5451L0.663438 17.3474ZM0.833532 17.5903L0.979391 17.4999L1.13512 17.6897L0.984777 17.7891L0.833532 17.5903ZM1.03325 17.8387L1.17237 17.7424L1.33708 17.9088L1.19526 18.0171L1.03325 17.8387ZM1.25316 18.0633L1.38286 17.9605L1.56552 18.1254L1.44345 18.2456L1.25316 18.0633ZM1.48653 18.2824L1.59783 18.1731L1.81774 18.3341L1.69657 18.4498L1.48653 18.2824ZM1.76254 18.503L1.86083 18.3907L2.07849 18.5368L1.97617 18.66L1.76254 18.503ZM2.03945 18.7017L2.13863 18.584L2.36617 18.7161L2.26115 18.8483L2.03945 18.7017ZM2.33924 18.887L2.42093 18.7688L2.68257 18.9064L2.60538 19.037L2.33924 18.887ZM2.67046 19.0634L2.74316 18.9397L3.0084 19.0634L2.92762 19.1955L2.67046 19.0634ZM2.99987 19.2258L3.07482 19.0962L3.3441 19.2258L3.26556 19.3525L2.99987 19.2258ZM3.36385 19.3803L3.42578 19.2392L3.71391 19.354L3.643 19.4991L3.3625 19.3818L3.36385 19.3803ZM3.72288 19.5204L3.77854 19.3778L4.08596 19.4772L4.02088 19.6327L3.72288 19.5219V19.5204ZM4.1075 19.6456L4.15238 19.4966L4.46654 19.5721L4.41044 19.7291L4.1075 19.6456ZM4.50155 19.7539L4.54104 19.593L4.8736 19.664L4.81615 19.8384L4.50199 19.7539H4.50155ZM4.91489 19.8598L4.94855 19.6923L5.27078 19.7465L5.2259 19.9189L4.91578 19.8598H4.91489ZM5.32284 19.9243L5.34977 19.7634L5.67739 19.8056L5.65226 19.9785L5.32284 19.9243ZM5.76491 19.9835L5.77658 19.8225L6.09298 19.8518L6.08131 20.0143L5.76491 19.9835ZM6.19979 19.8677L6.52158 19.8791L6.51664 20.0421L6.18543 20.0297L6.19979 19.8677ZM6.61762 20.0461V19.8821L6.95871 19.8886V20.0525L6.61762 20.0461ZM7.74904 10.7886L7.55246 10.7767L7.54349 10.7195L7.77238 10.727L7.74904 10.7886ZM8.02729 10.8139L7.80783 10.7911L7.83162 10.7319L8.05063 10.7558L8.02729 10.8139ZM8.28804 10.8442L8.07756 10.8179L8.10359 10.7647L8.32484 10.7901L8.28804 10.8442ZM8.61297 10.8855L8.35402 10.8482L8.38004 10.794L8.56674 10.8179L8.61162 10.8855H8.61297ZM9.61468 11.107L9.5698 11.0355L9.65553 11.0643L9.61468 11.107ZM9.87409 11.1825L9.67617 11.1239L9.71746 11.0742L9.9082 11.1324L9.87409 11.182V11.1825ZM10.1497 11.2769L9.94949 11.2019L9.99167 11.1562L10.1986 11.2307L10.1497 11.2769ZM10.4257 11.3803L10.2102 11.3038L10.2596 11.2506L10.471 11.3301L10.4257 11.3803ZM10.7093 11.4935L10.4984 11.4016L10.5383 11.352L10.7519 11.4439L10.7093 11.4935ZM10.9463 11.6033L10.7748 11.5214L10.8125 11.4657L10.992 11.5601L10.9472 11.6033H10.9463ZM11.207 11.7325L11.0158 11.6381L11.0607 11.5884L11.2613 11.6913L11.2084 11.735L11.207 11.7325ZM11.4431 11.8671L11.2636 11.7603L11.3156 11.7166L11.4983 11.8234L11.4408 11.8671H11.4431ZM11.6715 12.0033L11.5023 11.8989L11.5652 11.8582L11.7344 11.9615L11.6715 12.0033ZM11.9166 12.1657L11.7321 12.0405L11.808 11.9993L11.9843 12.118L11.9166 12.1677V12.1657ZM12.1329 12.3177L11.9664 12.197L12.0337 12.1528L12.1989 12.2835L12.1329 12.3177ZM12.3389 12.4891L12.1845 12.363L12.2518 12.3282L12.4116 12.4444L12.3389 12.4891ZM12.5494 12.674L12.3905 12.5304L12.461 12.4891L12.6221 12.6302L12.5494 12.674ZM12.7195 12.8458L12.5907 12.7127L12.6643 12.674L12.8137 12.8101L12.7195 12.8458ZM12.9035 13.0446L12.7729 12.8876L12.851 12.8573L12.9923 13.0103L12.9035 13.0446ZM13.0718 13.2433L12.9371 13.0888L13.0237 13.0545L13.1624 13.217L13.07 13.2433H13.0718ZM13.2064 13.447L13.096 13.291L13.1938 13.2661L13.3217 13.4256L13.2064 13.447ZM13.3339 13.6457L13.2374 13.4917L13.3482 13.4693L13.447 13.6253L13.3339 13.6457ZM13.4613 13.8648L13.3716 13.6974L13.4842 13.6795L13.5861 13.8559L13.4613 13.8648ZM13.5574 14.0874L13.4838 13.9189L13.6058 13.9115L13.6956 14.0774L13.5574 14.0874ZM13.6471 14.3219L13.5865 14.1425L13.7144 14.1361L13.7903 14.3219H13.6471ZM13.7279 14.5703L13.6646 14.38H13.8064L13.8733 14.612L13.7279 14.5727V14.5703ZM13.8123 15.2951L13.815 15.0889L13.9496 15.1287L13.9626 15.3145L13.8123 15.2951ZM13.8123 15.5341L13.8181 15.3582L13.9667 15.3771L13.9617 15.5669L13.8123 15.5341ZM13.9433 15.8267L13.7809 15.7859L13.8064 15.5962L13.959 15.6225L13.9433 15.8267ZM11.755 18.8155L11.6509 18.6833L11.8793 18.5512L11.9771 18.6699L11.755 18.8155ZM11.4103 19.0028L11.3322 18.8721L11.5961 18.735L11.6787 18.8537L11.4094 19.0028H11.4103ZM11.0849 19.1602L11.0046 19.0306L11.2739 18.9079L11.3461 19.0306L11.0849 19.1602ZM10.7474 19.3172L10.6689 19.1891L10.9382 19.0649L11.0131 19.1891L10.7474 19.3172ZM10.3956 19.4767L10.3224 19.3331L10.6133 19.2194L10.677 19.358L10.3956 19.4767ZM9.9984 19.6114L9.93109 19.4598L10.2421 19.3629L10.2969 19.5045L9.9984 19.6114ZM9.59449 19.7395L9.55365 19.5796L9.86197 19.4886L9.90685 19.6377L9.59449 19.7395ZM9.18519 19.8538L9.12505 19.6789L9.4603 19.6099L9.50069 19.7683L9.18519 19.8538ZM8.78127 19.9323L8.73639 19.7619L9.06042 19.7077L9.09408 19.8692L8.78127 19.9323ZM8.34639 19.9909L8.31901 19.8215L8.65022 19.7783L8.67625 19.9353L8.34639 19.9909ZM7.91464 20.0302L7.90208 19.8692L8.22117 19.8349L8.23194 19.9959L7.91464 20.0302ZM7.80918 20.0426L7.47617 20.054L7.46989 19.893L7.79526 19.8806L7.80918 20.0426ZM7.03321 20.0669V19.903L7.37339 19.8955V20.058L7.03321 20.0669ZM12.0445 18.6262L11.9336 18.5109L12.014 18.4448L12.141 18.5358L12.0445 18.6262ZM13.0525 17.6912L13.1952 17.4825L13.0641 17.4269L12.9578 17.559L13.0525 17.6912ZM13.0188 17.7304L12.9169 17.6043L12.78 17.7533L12.9636 17.803L13.0188 17.7304Z" fill="#E3AA39"/>
</g>
<defs>
<clipPath id="clip0_247_4108">
<rect width="99" height="21" fill="white"/>
</clipPath>
</defs>
</svg>
