<svg width="86" height="47" viewBox="0 0 86 47" fill="none" xmlns="http://www.w3.org/2000/svg">
<g clip-path="url(#clip0_247_4205)">
<path d="M55.6867 12.2398C55.4996 12.4268 55.3125 12.5802 55.1253 12.7672C54.9734 12.5388 54.7677 12.3511 54.5263 12.2207C54.2849 12.0902 54.0151 12.021 53.7406 12.0191C52.2437 12.0191 51.4578 13.6238 51.3829 16.0963H51.6449L49.7363 18.004C49.6308 17.5238 49.5806 17.0331 49.5866 16.5414C49.5866 13.6238 51.6075 11.6787 53.7781 11.6787C54.451 11.7048 55.1068 11.8976 55.6867 12.2398ZM35.1784 32.1395C35.8146 31.5785 36.4508 30.9837 37.1245 30.3815C37.3864 28.9601 37.9852 27.9501 39.2202 27.9501C39.3605 27.9534 39.4994 27.9787 39.6319 28.0249L39.8564 27.8042C39.5567 27.6959 39.2395 27.6439 38.9208 27.6509C36.8999 27.6097 35.2533 29.5586 35.1784 32.1395ZM27.6188 36.5197C26.6458 36.5197 26.1593 35.8452 26.1593 34.4961V28.1746H29.0783V27.8379H26.1518V23.9477H25.8898C25.6653 26.7157 24.5426 27.6883 23.1579 27.9127V28.1746H24.6174V34.3839C24.6174 36.2541 25.553 37.1519 27.0874 37.1519C28.6218 37.1519 29.5948 35.8427 29.5948 33.6732H29.2954C29.2205 35.5434 28.5095 36.5197 27.6113 36.5197H27.6188ZM48.4639 19.3469L48.9504 18.8606C49.0124 18.5164 49.0375 18.1665 49.0252 17.817H48.7259C48.6961 18.3351 48.6083 18.8483 48.4639 19.3469ZM40.1932 24.8081H40.7172C41.5779 24.8081 41.8399 24.9951 41.8773 25.818C42.4012 25.2943 42.9252 24.8081 43.4117 24.3218V24.1722L40.1558 24.5088V24.8081H40.1932ZM45.5823 18.6736V12.352H48.5013V12.0154H45.5823V8.12521H45.3203C45.0957 10.8932 43.973 11.8658 42.5883 12.0902V12.352H44.0479V18.5613C44.0479 20.4316 44.9835 21.3294 46.5178 21.3294L47.154 20.6935H47.0792C46.0688 20.6935 45.5823 20.0202 45.5823 18.6736ZM20.5083 27.202C20.5083 25.0699 20.8451 23.5363 22.3046 23.5363C22.7163 23.5363 23.0157 23.7607 23.0157 23.9889C23.0157 24.0974 22.9034 24.2096 22.7911 24.3629C22.6841 24.463 22.5989 24.5841 22.541 24.7186C22.483 24.8532 22.4535 24.9982 22.4543 25.1447C22.4462 25.2603 22.4611 25.3764 22.4982 25.4861C22.5353 25.5959 22.5939 25.6973 22.6705 25.7842C22.7471 25.8712 22.8402 25.9422 22.9444 25.9929C23.0486 26.0436 23.1619 26.0732 23.2776 26.0799H23.3899C23.662 26.0819 23.9241 25.9773 24.12 25.7886C24.3159 25.5998 24.43 25.3418 24.4378 25.0699V24.9577C24.4378 24.0225 23.7267 23.3118 22.4169 23.3118C20.0966 23.3118 18.9365 25.4066 18.9365 27.8379V27.8753H17.5892V28.212H18.9365V35.3938C18.9365 36.3664 18.7119 36.5908 17.7763 36.5908H17.5892V36.89H22.0352V36.5871H21.6235C20.6879 36.5871 20.4634 36.3626 20.4634 35.3901V28.2082H22.6714V27.8716H20.4634V27.1983L20.5083 27.202ZM40.0061 10.5566C40.2429 10.5566 40.4745 10.4864 40.6714 10.3548C40.8684 10.2233 41.0219 10.0364 41.1125 9.81766C41.2031 9.59894 41.2269 9.35826 41.1806 9.12607C41.1344 8.89388 41.0204 8.6806 40.8529 8.5132C40.6854 8.3458 40.472 8.2318 40.2397 8.18562C40.0074 8.13943 39.7666 8.16314 39.5478 8.25373C39.329 8.34433 39.1419 8.49775 39.0103 8.69459C38.8788 8.89143 38.8085 9.12285 38.8085 9.35959C38.8065 9.5167 38.8359 9.67264 38.8949 9.81827C38.9539 9.9639 39.0414 10.0963 39.1522 10.2078C39.263 10.3192 39.3949 10.4075 39.5403 10.4674C39.6856 10.5272 39.8414 10.5576 39.9986 10.5566H40.0061ZM16.5788 32.2892C16.5788 35.0198 14.4082 37.1893 12.3873 37.1893C10.3664 37.1893 8.15841 35.0946 8.15841 32.364C8.15841 29.5586 10.3664 27.5761 12.3873 27.5761C14.4082 27.5761 16.5788 29.4837 16.5788 32.2892ZM14.745 32.364C14.745 29.8578 14.1088 27.8379 12.3499 27.8379C10.5909 27.8379 9.95475 29.8204 9.95475 32.3266C9.95475 34.8327 10.5535 36.8938 12.3499 36.8938C14.1462 36.8938 14.745 34.8365 14.745 32.364ZM3.66754 31.354C1.8712 30.8678 1.01045 30.5685 1.01045 29.5586C1.01045 28.6234 1.79634 27.9501 2.80679 27.9501C4.60313 27.9501 5.83812 29.1845 6.17493 30.9426H6.36205V27.6883H6.13751C6.08667 27.8526 5.98078 27.9943 5.83764 28.0897C5.69451 28.1851 5.52287 28.2282 5.35162 28.212C4.67799 28.212 4.11663 27.6509 2.88164 27.6509C1.23499 27.6509 0.0748523 28.6234 0.0748523 30.1608C0.0748523 32.0311 1.38469 32.5136 3.29331 33.0747C5.46389 33.7143 6.13751 34.0472 6.13751 35.0235C6.13751 35.9998 5.23934 36.7816 3.96693 36.7816C3.04097 36.7557 2.1539 36.4038 1.46231 35.7878C0.770729 35.1719 0.319091 34.3315 0.187119 33.4151H0V37.0808H0.224545C0.411665 36.5945 0.673634 36.3327 1.01045 36.3327C1.53438 36.3327 2.58225 37.0808 3.9295 37.0808C5.76327 37.0808 7.11053 36.0671 7.11053 34.3502C7.11053 32.6333 6.02525 31.9525 3.66754 31.3578V31.354ZM18.6371 13.549V18.191C18.6371 20.2483 19.5353 21.2583 21.2568 21.2583C22.7163 21.2583 23.9513 20.0613 24.5126 18.6025H24.55L24.4378 21.2583L27.3194 20.9179V20.6561H27.1697C26.2341 20.6561 25.9721 20.3942 25.9721 19.4217V11.8994L22.8285 12.0865V12.3483H23.2776C24.2132 12.3483 24.4378 12.6101 24.4378 13.5827V17.024C24.4378 18.8194 23.0905 20.7271 21.7807 20.7271C20.7702 20.7271 20.1715 20.1286 20.1715 18.595V11.862L17.2898 12.049V12.3109H17.4769C18.4125 12.3109 18.6371 12.5727 18.6371 13.5415V13.549ZM33.7189 20.7309H33.4943V21.0301H37.6484V20.7309H37.611C36.6379 20.7309 36.4134 20.5102 36.4134 19.5339V15.0452C36.4134 12.9131 35.6275 11.8321 33.8686 11.8321C32.4839 11.8321 31.0992 12.7672 30.5379 14.4841H30.5004L30.6127 11.8321L27.7311 12.0191V12.281H27.8808C28.8164 12.281 29.0409 12.5428 29.0409 13.5153V19.5339C29.0409 20.5064 28.8164 20.7309 27.8808 20.7309H27.7311V21.0301H31.9974V20.7309H31.7654C30.8298 20.7309 30.6052 20.5102 30.6052 19.5339V16.014C30.6052 14.1064 31.8028 12.5353 33.3746 12.5353C34.2353 12.5353 34.8715 13.0216 34.8715 14.5178V19.5301C34.9164 20.5027 34.6919 20.7309 33.7189 20.7309ZM42.2889 20.7309H42.1018C41.1662 20.7309 40.9417 20.5102 40.9417 19.5339V11.8658L38.0601 12.0528V12.3146H38.2472C39.1828 12.3146 39.4073 12.5391 39.4073 13.549V19.5339C39.4073 20.5064 39.1828 20.7309 38.2472 20.7309H38.0601V21.0301H42.244V20.7309H42.2889Z" fill="#ED1C24"/>
<path d="M57.1081 36.5534H57.2953V36.8526H53.0963V36.5534H53.2834C54.219 36.5534 54.4436 36.3327 54.4436 35.3564V29.3715C54.4436 28.399 54.219 28.1372 53.2834 28.1372H53.0963V27.8753L55.9779 27.6883V35.3564C55.948 36.2916 56.1351 36.5534 57.1081 36.5534ZM51.0829 27.5761C49.6608 27.5761 48.5755 28.9601 47.9019 31.3166H47.857L48.0067 27.6883L45.125 27.8753V28.1372H45.2747C46.1729 28.1372 46.4349 28.3616 46.4349 29.3341V35.3564C46.4349 36.329 46.2103 36.5534 45.2747 36.5534H45.125V36.8526H49.6533V36.5534H49.1668C48.2312 36.5534 48.0067 36.3327 48.0067 35.3564V32.8128C48.0067 31.1296 49.3165 28.0624 50.8883 28.0624C51.1503 28.0624 51.3748 28.0998 51.3748 28.2868C51.3748 28.399 51.3 28.4738 51.1877 28.5486C51.0461 28.6423 50.9306 28.7704 50.8521 28.9209C50.7735 29.0713 50.7345 29.2393 50.7386 29.4089C50.7415 29.6461 50.8371 29.8728 51.0049 30.0405C51.1727 30.2083 51.3995 30.3038 51.6368 30.3067H51.7116C52.3104 30.3067 52.7969 29.8578 52.7969 29.0349C52.7969 28.212 52.1682 27.5761 51.0829 27.5761ZM56.1351 25.1821C56.1351 24.9454 56.0649 24.714 55.9333 24.5171C55.8017 24.3203 55.6147 24.1669 55.3958 24.0763C55.177 23.9857 54.9362 23.962 54.7039 24.0082C54.4716 24.0543 54.2582 24.1683 54.0908 24.3357C53.9233 24.5031 53.8092 24.7164 53.763 24.9486C53.7168 25.1808 53.7405 25.4215 53.8312 25.6402C53.9218 25.8589 54.0753 26.0459 54.2722 26.1774C54.4692 26.3089 54.7007 26.3791 54.9376 26.3791C55.0955 26.3816 55.2524 26.3524 55.3988 26.2931C55.5453 26.2339 55.6783 26.1458 55.79 26.0341C55.9017 25.9225 55.9898 25.7895 56.0491 25.6432C56.1084 25.4968 56.1376 25.34 56.1351 25.1821ZM82.5563 31.354C80.76 30.8678 79.8993 30.5685 79.8993 29.5586C79.8993 28.6234 80.6852 27.9501 81.6956 27.9501C83.4919 27.9501 84.7269 29.1845 85.0638 30.9426H85.2509V27.6883H85.0263C84.9755 27.8526 84.8696 27.9943 84.7265 28.0897C84.5833 28.1851 84.4117 28.2282 84.2404 28.212C83.5668 28.212 83.0054 27.6509 81.7705 27.6509C80.1238 27.6509 78.9637 28.6234 78.9637 30.1608C78.9637 32.0311 80.2735 32.5136 82.1821 33.0747C84.3527 33.7143 85.0263 34.0472 85.0263 35.0235C85.0263 35.9998 84.1282 36.7816 82.8558 36.7816C81.9298 36.7557 81.0427 36.4038 80.3511 35.7878C79.6596 35.1719 79.2079 34.3315 79.0759 33.4151H78.8888V37.0808H79.1134C79.3005 36.5945 79.5624 36.3327 79.8993 36.3327C80.4232 36.3327 81.4711 37.0808 82.8183 37.0808C84.6521 37.0808 85.9993 36.0671 85.9993 34.3502C85.9993 32.6333 84.914 31.9525 82.5563 31.3578V31.354ZM57.4075 18.7858L57.6321 18.9728C56.8462 20.3194 55.5738 21.3705 53.7026 21.3705C52.8309 21.4045 51.9744 21.1357 51.2786 20.61C50.5827 20.0843 50.0904 19.334 49.8853 18.4865L49.2491 19.1262L48.6878 19.6873C48.582 20.051 48.3858 20.382 48.1175 20.6495C47.8492 20.917 47.5175 21.1123 47.1534 21.2171C45.9558 22.3767 44.7208 23.6148 43.411 24.924V35.2442C43.411 36.2167 43.5981 36.4786 44.5337 36.4786H44.7208V36.7778L41.8766 37.1145L41.9515 34.7205H41.8691C41.1581 36.0297 40.2599 37.0771 38.8004 37.0771C37.0789 37.0771 35.2451 35.4312 35.0954 32.6632C29.2199 37.7878 21.4357 43.5108 13.7638 45.9048C11.7569 46.5669 9.66413 46.9336 7.55148 46.9933C6.88483 47.0238 6.21719 46.9609 5.56802 46.8062C5.51108 46.7829 5.46455 46.7397 5.43702 46.6847C5.4095 46.6297 5.40286 46.5665 5.41833 46.507C5.44228 46.4504 5.48539 46.404 5.54013 46.3759C5.59487 46.3479 5.65774 46.34 5.71771 46.3536C5.75514 46.3536 8.44966 47.1017 13.689 45.4559C22.4462 42.7253 31.4279 35.5434 37.3783 29.97C41.9066 25.7432 45.6115 22.0775 48.8674 18.8232C58.2234 9.47182 63.8744 3.78619 75.4758 0.00823272C75.5052 -0.00159161 75.5364 -0.00551328 75.5674 -0.00331095C75.5984 -0.00110863 75.6287 0.00717548 75.6565 0.0210692C75.6843 0.0349628 75.7091 0.0541933 75.7294 0.0776631C75.7498 0.101133 75.7653 0.128382 75.7751 0.157855C75.785 0.187328 75.7889 0.218448 75.7867 0.249437C75.7845 0.280426 75.7762 0.310677 75.7623 0.338464C75.7484 0.366252 75.7292 0.39103 75.7057 0.411385C75.6822 0.43174 75.655 0.447276 75.6255 0.4571C67.1677 3.22885 61.8909 7.00306 55.9779 12.5391C56.4669 12.9415 56.8563 13.4512 57.1159 14.0286C57.3756 14.606 57.4984 15.2355 57.4749 15.8682C57.4749 15.9467 57.4375 16.3956 57.4375 16.5078H51.8987L51.3748 16.9903C51.4871 19.1262 52.4227 20.6972 54.1442 20.6972C55.8657 20.6972 56.6965 19.8331 57.4075 18.7858ZM41.9141 32.3266C41.9141 29.9326 40.941 28.6646 40.0429 28.1783C39.3318 28.8516 38.5833 29.5623 37.7974 30.2693C37.53 30.488 37.2798 30.7268 37.049 30.9837C37.0115 31.3914 36.9741 31.8066 36.9741 32.2555C36.9741 34.6495 37.5729 36.7068 39.1821 36.7068C40.3048 36.7068 41.9141 35.1694 41.9141 32.3266ZM41.9141 28.0249V26.4203C41.3901 26.9439 40.8288 27.4639 40.2674 27.9913C40.9927 28.4341 41.5668 29.0862 41.9141 29.8616H41.9889C41.9274 29.2514 41.9024 28.6381 41.9141 28.0249ZM55.3417 13.1413C54.3313 14.0764 53.3208 15.0864 52.273 16.1337H54.6307C55.4914 16.1337 55.716 15.8682 55.716 15.1612C55.7446 14.4683 55.6167 13.778 55.3417 13.1413ZM76.5236 35.506C76.5236 35.506 73.4174 31.0959 73.4174 31.1296L75.1764 29.3341C75.9623 28.5524 76.2617 28.2494 77.5341 28.1035V27.8791H73.7543V28.1035C74.4653 28.1372 74.8396 28.3242 74.8396 28.6646C74.8396 28.9264 74.7273 29.1471 74.2782 29.5997L71.0223 33.0747V24.1759L68.1407 24.5126V24.8118H68.3278C69.2634 24.8118 69.4879 25.0325 69.4879 26.0462V35.3602C69.4879 36.3327 69.2634 36.5571 68.3278 36.5571H68.2155V36.8564H72.3322V36.5571H72.2199C71.2469 36.5571 71.0223 36.3327 71.0223 35.3602V33.5647L72.407 32.1807L74.7273 35.5098C74.9518 35.8464 74.9893 35.9586 74.9893 36.1083C74.9893 36.3327 74.7647 36.5571 74.0537 36.5945V36.8564H78.058V36.5571C77.1973 36.4786 77.0101 36.2167 76.5236 35.506ZM65.3713 21.292L65.4462 18.898H65.3713C64.6603 20.2072 63.7621 21.2545 62.3026 21.2545C60.5062 21.2545 58.5976 19.4591 58.5976 16.5415C58.5976 13.8894 60.2817 11.791 62.3774 11.791C63.6872 11.791 64.6977 12.6887 65.3339 13.9979H65.4088C65.3713 13.4031 65.3339 12.0939 65.3339 10.7436V10.2199C65.3339 9.24739 65.1094 8.98555 64.1363 8.98555H63.6124V8.68631L66.8683 8.34966V19.3805C66.8683 20.3531 67.0554 20.6149 67.991 20.6149H68.1781V20.9142L65.3713 21.292ZM65.3713 16.5078C65.3713 13.2909 63.575 12.1276 62.6768 12.1276C60.9179 12.1276 60.4314 14.1512 60.4314 16.4667C60.4314 18.8606 61.0302 20.9179 62.6394 20.9179C63.7696 20.9179 65.3788 19.3469 65.3788 16.5078H65.3713ZM66.494 35.3564V30.8678C66.494 28.7357 65.7081 27.6509 63.9492 27.6509C62.5645 27.6509 61.1799 28.586 60.6185 30.3067H60.5811L60.6933 27.6509L57.8117 27.8379V28.1035H57.9614C58.897 28.1035 59.1215 28.3653 59.1215 29.3341V35.3564C59.1215 36.329 58.897 36.5534 57.9614 36.5534H57.8117V36.8526H62.078V36.5534H61.8535C60.9179 36.5534 60.6933 36.3327 60.6933 35.3564V31.8403C60.6933 29.9326 61.8909 28.3616 63.4627 28.3616C64.3235 28.3616 64.9597 28.8479 64.9597 30.3441V35.3564C64.9597 36.329 64.7351 36.5534 63.7621 36.5534H63.5376V36.8526H67.6916V36.5534H67.6542C66.7186 36.5534 66.494 36.2916 66.494 35.3564Z" fill="#002561"/>
</g>
<defs>
<clipPath id="clip0_247_4205">
<rect width="86" height="47" fill="white"/>
</clipPath>
</defs>
</svg>
