<svg width="15" height="14" viewBox="0 0 15 14" fill="none" xmlns="http://www.w3.org/2000/svg">
<g clip-path="url(#clip0_176_890)">
<path d="M11.0938 0.976432C11.0738 0.328425 10.8413 0 10.4013 0C9.88317 0 9.752 0.407513 9.49 1.21829C9.37133 1.58702 9.11383 2.38419 8.91433 2.71074C8.12933 2.47535 7.36933 2.3568 6.65117 2.3568C3.53117 2.3568 1.82733 4.50424 1.37683 6.39281C1.3025 6.28821 1.25 6.16576 1.25 6.0268H0C0 6.8789 0.5525 7.59511 1.30817 7.84207C1.5425 8.98943 2.43633 11.061 2.812 11.9017V11.9699C2.807 12.5727 2.80267 13.1957 3.21633 13.6217C3.4595 13.8711 3.797 13.998 4.21883 13.998C5.137 13.998 5.52883 13.3142 5.8145 12.8149C5.94383 12.5892 6.06567 12.3761 6.22317 12.216C6.31133 12.1261 6.75 11.9584 7.4125 11.9584C8.01933 11.9584 8.36 12.1031 8.42 12.1664C8.55 12.331 8.65933 12.5217 8.77433 12.7232C9.08117 13.2615 9.50117 13.9988 10.4687 13.9988L10.8112 14H10.8143C11.0387 14 11.3757 13.9988 11.6268 13.741C11.8818 13.4782 11.8793 13.1644 11.8757 12.7657L11.875 12.4142L11.8118 12.2822C11.8075 12.272 11.3493 11.2547 11.785 10.1781C12.1643 9.24251 13.1043 8.50266 14.58 7.98085L15 7.83152V4.60493L14.6718 4.42447C13.7055 3.89246 11.1393 2.48113 11.0937 0.976432H11.0938ZM13.7502 6.93418C12.1595 7.57963 11.1108 8.50504 10.6302 9.69067C10.0865 11.0326 10.4645 12.2732 10.6258 12.6916V12.7215H10.469C10.2603 12.7215 10.1627 12.6195 9.85533 12.0798C9.72783 11.8553 9.5835 11.6027 9.39283 11.3622C8.9235 10.769 7.951 10.6811 7.4135 10.6811C7.07217 10.6811 5.9135 10.7256 5.33967 11.3124C5.0685 11.5891 4.8915 11.898 4.73583 12.171C4.46767 12.639 4.39017 12.7213 4.2195 12.7213C4.1545 12.7213 4.117 12.7137 4.10583 12.7174C4.057 12.5968 4.06017 12.2276 4.06217 11.9788L4.06333 11.6235L4.0065 11.4966C3.2815 9.88865 2.50033 7.85738 2.50033 7.37758C2.50033 5.86658 3.81967 3.63173 6.6515 3.63173C7.309 3.63173 8.019 3.7535 8.76217 3.99655C8.84783 4.02393 8.9465 4.01373 9.02533 4.03873C9.65783 4.03754 10.041 3.38936 10.3497 2.57876C11.0515 3.68972 12.3883 4.59302 13.7503 5.36281V6.93384L13.7502 6.93418Z" fill="#006EFF"/>
<path d="M12.5 5.70738C12.5 6.05962 12.2202 6.34518 11.875 6.34518C11.5298 6.34518 11.25 6.05962 11.25 5.70738C11.25 5.35515 11.5298 5.06958 11.875 5.06958C12.2202 5.06958 12.5 5.35515 12.5 5.70738Z" fill="#006EFF"/>
</g>
<defs>
<clipPath id="clip0_176_890">
<rect width="15" height="14" fill="white"/>
</clipPath>
</defs>
</svg>
