<svg width="18" height="12" viewBox="0 0 18 12" fill="none" xmlns="http://www.w3.org/2000/svg">
<path d="M0.722656 5.94946H2.16874V7.43687H0.722656V5.94946Z" fill="#006EFF"/>
<path d="M0 3.71875H2.16913V5.20615H0V3.71875Z" fill="#006EFF"/>
<path d="M17.3515 5.80683L15.6719 1.4874H13.0132V0H2.89062V10.4118H4.47052C4.76977 11.2753 5.56512 11.8992 6.50584 11.8992C7.44657 11.8992 8.24192 11.2753 8.54193 10.4118H11.701C12.0002 11.2753 12.7956 11.8992 13.7363 11.8992C14.677 11.8992 15.4724 11.2753 15.7724 10.4118H17.3515V5.80683ZM6.50584 10.4118C6.10749 10.4118 5.7828 10.0787 5.7828 9.66813C5.7828 9.2576 6.10749 8.92443 6.50584 8.92443C6.90419 8.92443 7.22889 9.2576 7.22889 9.66813C7.22889 10.0787 6.90419 10.4118 6.50584 10.4118ZM13.7363 10.4118C13.3379 10.4118 13.0132 10.0787 13.0132 9.66813C13.0132 9.2576 13.3379 8.92443 13.7363 8.92443C14.1346 8.92443 14.4593 9.2576 14.4593 9.66813C14.4593 10.0787 14.1346 10.4118 13.7363 10.4118ZM15.7724 8.92443C15.4724 8.06094 14.6778 7.43702 13.7363 7.43702C12.7948 7.43702 12.0002 8.06094 11.7002 8.92443H8.54193C8.24192 8.06094 7.44734 7.43702 6.50584 7.43702C5.56434 7.43702 4.76977 8.06094 4.46975 8.92443H4.33691V1.4874H11.5673V2.97481H14.693L15.5607 5.20591H13.7365V6.69332H15.9056V8.92443H15.7726H15.7724Z" fill="#006EFF"/>
</svg>
