<svg width="97" height="29" viewBox="0 0 97 29" fill="none" xmlns="http://www.w3.org/2000/svg">
<g clip-path="url(#clip0_247_4171)">
<path d="M10.9362 25.0277C11.04 24.8772 11.1741 24.7501 11.33 24.6546C11.4858 24.559 11.66 24.4971 11.8413 24.473C11.8413 24.473 33.9539 16.9652 63.3791 18.4426C63.3791 18.4426 65.0504 18.3823 64.5858 19.112C64.3203 19.5401 63.8256 19.5642 62.8783 19.6125C62.3569 19.6609 61.8327 19.673 61.3096 19.6487C61.3096 19.6487 64.3264 20.8186 52.4404 20.5773C52.4404 20.5773 53.4903 21.6447 49.122 21.3372C49.122 21.3372 36.9405 20.7824 12.3179 25.2448C12.3179 25.2448 10.3812 25.6609 10.9242 25.0036" fill="#00009C"/>
<path d="M35.8983 0.742186C35.8983 0.742186 34.4322 -1.1031 34.6917 1.02561C34.7816 4.35719 34.604 7.6906 34.1607 10.9938C34.0727 10.7625 33.9551 10.5436 33.8108 10.3425C33.8108 10.3425 32.5317 8.64196 31.1017 9.13645C31.1017 9.13645 29.2917 9.70933 28.2177 12.4652C27.8033 13.528 27.6202 14.6669 27.6808 15.806C27.6808 15.806 27.6084 19.575 32.1998 16.9096C32.5839 16.6592 32.9381 16.3658 33.2557 16.0352C33.1093 16.4454 33.0061 16.8699 32.948 17.3016C32.948 17.3016 32.7851 18.2966 33.2376 18.5438C33.4126 18.6403 33.5996 18.5076 34.0038 17.5428C34.0038 17.5428 37.2679 9.17866 37.4429 5.72326C37.4429 5.72326 38.5893 4.01064 35.9104 0.766308L35.8983 0.742186ZM30.2209 15.8422C30.2209 15.8422 29.883 15.6191 29.9071 14.606C30.0165 13.4496 30.4634 12.3508 31.1922 11.4461C31.1922 11.4461 31.5301 11.024 31.7956 10.9697C31.8861 10.9697 32.0369 11.0843 32.1033 11.621C32.1033 11.7536 31.7413 11.7838 31.8801 12.224C31.8801 12.224 32.4834 13.8341 33.853 13.1105C33.7987 13.4361 33.7384 13.7678 33.672 14.0994C32.9781 15.0703 31.512 16.7407 30.2209 15.8663V15.8422ZM47.193 9.00378C47.193 9.00378 49.8477 11.826 49.7331 13.7859C49.7331 13.7859 49.3771 16.5055 44.8701 16.4151C44.8701 16.4151 43.7539 16.2462 44.8701 15.5347C44.8701 15.5347 47.8024 14.5879 45.8837 11.0662C45.8837 11.0662 44.0737 13.1949 42.867 14.3708C39.434 17.7177 38.7582 16.4875 38.7582 16.4875C37.4489 14.618 38.4083 10.5295 38.4083 10.5295C38.9151 8.36456 40.0373 9.13042 40.0373 9.13042C40.2335 9.13313 40.4257 9.18559 40.5961 9.28289C40.7664 9.38019 40.9092 9.51913 41.0112 9.68669C41.1131 9.85425 41.1707 10.0449 41.1788 10.2409C41.1868 10.4368 41.1449 10.6315 41.057 10.8069C40.8518 11.8984 40.5863 11.7777 40.5863 11.7777C40.0795 12.1878 39.983 13.9728 39.983 13.9728C40.1881 14.9618 39.3073 16.3367 41.8534 14.1296C42.4567 13.5266 45.4734 10.1013 45.9863 8.75051C45.9863 8.75051 46.4931 7.44192 47.193 8.99172V9.00378ZM43.2592 4.82474C43.2409 5.02146 43.1768 5.21117 43.072 5.37871C42.9673 5.54625 42.8247 5.68696 42.6558 5.7896C42.2154 6.12127 41.3043 6.68812 41.0087 6.61576C40.713 6.54339 41.0509 5.59663 41.063 5.33129C41.0743 5.05953 41.1086 4.78921 41.1656 4.52322C41.1704 4.3748 41.2063 4.22905 41.2711 4.09539C41.3358 3.96173 41.4279 3.84313 41.5413 3.74726C41.6548 3.65139 41.7871 3.58038 41.9298 3.53884C42.0724 3.49729 42.2222 3.48612 42.3694 3.50605C42.5166 3.52598 42.658 3.57657 42.7845 3.65455C42.9109 3.73252 43.0196 3.83615 43.1035 3.95873C43.1873 4.08131 43.2445 4.22012 43.2713 4.36618C43.2981 4.51223 43.294 4.66229 43.2592 4.80665V4.82474ZM61.9629 8.46105C62.7533 7.42383 63.3023 7.89419 63.3023 7.89419C63.3023 7.89419 63.5316 7.89419 63.598 7.89419C64.6418 7.8158 63.785 8.84096 63.785 8.84096C63.0976 9.91533 62.5348 11.0645 62.1077 12.2662C61.9553 12.693 61.8264 13.1278 61.7216 13.5688C61.4018 14.9256 62.8317 13.9668 62.8317 13.9668C63.0054 13.8325 63.1688 13.6853 63.3204 13.5266C63.4016 13.4398 63.5065 13.379 63.6221 13.3517C63.9238 13.3095 63.417 11.7597 63.417 11.7597C63.1998 11.1566 63.236 11.1204 63.236 11.1204C63.0972 10.3666 63.5135 10.1737 63.5135 10.1737C63.96 9.89627 64.322 10.6139 64.322 10.6139C64.663 11.3159 64.9163 12.0572 65.0762 12.821C65.414 14.2381 64.3522 14.1236 64.3522 14.1236C63.8995 14.3224 63.4897 14.607 63.1455 14.9618C62.3292 15.574 61.3569 15.9439 60.3399 16.0292C60.1463 16.0633 59.9474 16.0524 59.7587 15.9973C59.5699 15.9422 59.3965 15.8443 59.2517 15.7113C59.107 15.5783 58.9949 15.4138 58.9241 15.2304C58.8533 15.0471 58.8258 14.8499 58.8436 14.6542C58.8436 13.1105 61.9569 8.46105 61.9569 8.46105H61.9629ZM55.4347 10.5174C56.1889 11.042 57.4438 12.1999 57.2447 13.4059C57.2447 13.4059 56.8827 16.1256 52.3757 16.0352C52.3757 16.0352 51.887 16.0352 51.875 15.7035C51.8629 15.3718 51.9715 15.2995 52.3576 15.1547C52.3576 15.1547 55.2899 14.208 53.3713 10.6863L51.6276 12.0371C51.6276 12.0371 50.9156 12.821 50.9699 11.7054C50.9954 11.3968 51.1084 11.1018 51.2957 10.8551C52.2531 10.2702 53.0121 9.41077 53.4738 8.38868C53.7453 7.39367 55.1994 6.54942 55.3442 7.38764C55.4045 7.76756 54.9701 7.99068 54.7409 8.26808C54.2521 8.87111 54.8796 10.1676 55.4287 10.5174H55.4347ZM26.3896 15.9809C26.382 15.9439 26.363 15.9101 26.3353 15.8844C26.2146 15.806 25.6173 16.0714 25.026 16.4272L24.7726 16.5779C24.595 16.6822 24.4237 16.797 24.2598 16.9216C24.2598 16.9216 23.8797 17.2232 23.9219 16.5417V16.5116C23.9219 16.3608 23.9581 16.1678 23.9702 15.9628C23.9702 15.9628 24.4891 13.8823 24.7123 13.2974C24.7123 13.2974 24.839 12.7486 25.0321 12.1275C25.0321 12.1275 25.919 11.1988 24.29 10.9214C24.29 10.9214 23.5116 9.00378 22.673 12.025C22.6241 11.8146 22.5288 11.6177 22.3942 11.4487C22.2595 11.2797 22.0889 11.1429 21.8947 11.0481C21.7738 10.9892 21.6427 10.9544 21.5085 10.9456C21.4241 10.9509 21.3395 10.9509 21.2551 10.9456C21.2551 10.9456 20.4708 10.6139 19.608 11.6632C18.7452 12.7125 16.1387 15.7578 16.7361 18.3931C16.7361 18.3931 17.0558 19.7439 18.2565 19.7378C19.2892 19.7057 20.277 19.3082 21.044 18.6162C21.3135 18.3615 21.5617 18.0852 21.7861 17.79C21.8026 17.961 21.8329 18.1304 21.8766 18.2966C21.8731 18.3307 21.8731 18.365 21.8766 18.3991C21.9149 18.602 22.0163 18.7877 22.1662 18.9298C22.2957 19.0385 22.4484 19.1162 22.6126 19.157C22.7767 19.1977 22.948 19.2005 23.1134 19.1649L23.2582 19.1288C23.2582 19.1288 24.9355 18.7187 24.8933 18.0071C24.8933 17.6513 25.0019 17.585 25.0019 17.585C25.0331 17.5664 25.0572 17.5378 25.0703 17.504C25.0834 17.4701 25.0848 17.4328 25.0743 17.398C25.0743 17.398 26.4137 16.5055 26.3655 15.9387L26.3896 15.9809ZM21.5387 16.9337C21.3986 17.2132 21.1913 17.4536 20.9354 17.6332C20.9354 17.6332 19.1253 18.7609 19.1615 17.1689C19.2112 16.5906 19.3349 16.0211 19.5296 15.4744C20.0351 14.2176 20.7649 13.0631 21.6835 12.0672C21.8042 11.9466 21.9128 11.9345 21.9791 12.025C22.1098 12.2757 22.2267 12.5334 22.3291 12.7969L22.4498 12.9838C22.1772 14.1342 21.9757 15.3003 21.8464 16.4754C21.7797 16.6373 21.6947 16.7911 21.593 16.9337H21.5387ZM8.74775 8.22586C9.09769 8.87111 8.62708 9.89024 8.62708 9.89024C6.58777 14.0572 4.04165 23.8988 3.53484 25.9009V25.9853L3.46244 26.2627C3.46244 26.4134 3.39607 26.5461 3.35987 26.6727C3.29405 27.049 3.26375 27.4306 3.26937 27.8125C3.26937 28.3431 3.26937 28.8919 3.10646 28.9643C2.64792 29.1753 2.40658 28.5602 2.27988 27.8969C1.94301 27.7587 1.65809 27.5182 1.46536 27.2094C-0.187807 26.0998 1.04905 23.0304 1.04905 23.0304C2.17128 18.574 7.7281 9.16057 7.7281 9.16057C8.37971 8.11129 8.65122 7.9545 8.77792 8.20777L8.74775 8.22586ZM17.1946 23.9711C18.0755 25.1772 18.7512 26.0697 18.5642 26.2265C17.9609 26.7511 15.2639 24.6405 15.2639 24.6405C12.0578 21.9354 9.57063 18.48 8.02374 14.5819C8.00693 14.5254 8.00419 14.4656 8.01576 14.4078C8.02733 14.35 8.05285 14.2959 8.09011 14.2502C8.24698 14.0693 8.50038 13.9728 9.18216 13.8944C8.82619 13.7256 8.71759 13.6773 8.74775 13.5627C8.77792 13.4482 9.47177 13.3698 9.47177 13.3698C9.99065 13.3698 10.3708 13.3155 10.3708 13.3155C11.131 13.2371 11.5171 13.1647 11.5171 13.1647C12.3527 13.0906 13.143 12.7527 13.7736 12.1999C15.3846 10.5536 12.8083 8.94951 12.8083 8.94951C6.28007 5.20465 1.02492 6.97758 1.02492 6.97758C0.756741 7.05842 0.468776 7.0435 0.210402 6.93537C-0.477413 6.70621 0.741347 5.72929 0.741347 5.72929C3.97528 3.08197 5.67672 3.884 5.67672 3.884C11.9636 4.30613 14.7269 7.59268 14.7269 7.59268C16.9171 9.90833 16.3499 11.7536 16.0543 12.2903C14.9803 14.2562 12.4342 14.3045 12.4342 14.3045C12.042 14.3045 11.6921 14.3346 11.3844 14.3346C11.5998 14.6121 11.7708 14.9213 11.8912 15.2512C12.3678 16.7769 17.1946 23.9711 17.1946 23.9711ZM76.0872 14.9799C76.0872 14.9799 79.5324 17.8141 75.2607 17.6694C75.2607 17.6694 74.428 17.7357 73.9212 16.0231C73.9212 16.0231 72.4491 12.6702 72.5577 11.4039C71.9818 12.0758 71.5026 12.8248 71.1338 13.6291C70.9322 14.135 70.6773 14.6182 70.3736 15.0703C70.1965 15.3362 69.9945 15.5846 69.7702 15.8121C67.8817 17.5609 67.7007 15.3296 67.7007 15.3296C67.3086 13.424 68.3041 10.3727 68.3041 10.3727C69.016 8.26205 70.0598 9.13042 70.0598 9.13042C70.2428 9.17441 70.4134 9.25896 70.5593 9.37779C70.7051 9.49663 70.8223 9.64672 70.9023 9.81696C70.9822 9.9872 71.0228 10.1732 71.0211 10.3613C71.0194 10.5493 70.9754 10.7346 70.8924 10.9033C70.5847 11.9647 70.2891 11.7355 70.2891 11.7355C70.1376 11.8688 70.0167 12.0332 69.9344 12.2173C69.8522 12.4015 69.8106 12.6012 69.8124 12.8029C69.8124 12.8029 69.6737 13.9788 70.2046 13.0743C70.6327 12.1261 71.2159 11.2559 71.9302 10.4993C71.9302 10.4993 72.7507 9.61888 73.2334 10.3425C73.2334 10.3425 75.315 14.5155 76.0631 14.9799" fill="black"/>
<path d="M66.5967 18.6484C67.4957 18.7027 68.5093 18.7148 69.909 18.8535C70.6391 18.9198 71.7613 18.9198 71.9242 19.3962C72.0871 19.8726 71.52 20.2706 70.5426 20.4636C70.1302 20.568 69.7069 20.6227 69.2816 20.6264C68.7567 20.6264 67.6224 20.6264 67.5862 20.0234C67.5862 19.6434 66.8259 19.6434 66.3312 19.6254C65.3417 19.6012 65.4624 19.3178 65.6555 18.9982C65.7822 18.7932 66.0537 18.6605 66.5967 18.6665" fill="#00009C"/>
<path d="M96.9982 3.68089C96.9982 3.54175 96.9429 3.4083 96.8445 3.30991C96.746 3.21152 96.6125 3.15625 96.4733 3.15625H80.1829C80.0453 3.15625 79.9133 3.21089 79.816 3.30815C79.7187 3.40541 79.6641 3.53732 79.6641 3.67486V19.9568C79.6657 20.0949 79.7217 20.2268 79.8199 20.3239C79.9182 20.421 80.0508 20.4755 80.189 20.4754H96.4793C96.6165 20.4739 96.7475 20.4187 96.8445 20.3218C96.9415 20.2249 96.9966 20.0939 96.9982 19.9568V3.68089Z" fill="#00009C"/>
<path d="M94.6634 14.2251C94.4274 13.5685 94.2991 12.8782 94.2832 12.1808C93.6799 13.5376 92.7507 15.6362 91.713 15.4794C91.1096 15.3829 91.0493 14.2733 91.1941 13.2663C90.8637 14.0987 90.4343 14.8883 89.915 15.6181L89.8064 15.7508C89.6322 15.9805 89.4015 16.1612 89.1367 16.2754H89.0583C88.9745 16.2903 88.8887 16.2903 88.8049 16.2754C88.5937 16.2091 88.4006 16.004 88.2317 15.6121C88.1966 15.5411 88.1703 15.4662 88.1532 15.389C88.1298 15.2895 88.1117 15.1888 88.0989 15.0874C87.9308 15.3762 87.7282 15.6435 87.4956 15.8834C86.7921 16.5873 85.9163 17.0947 84.9555 17.3548C84.0867 17.6021 83.0188 17.8071 82.162 17.3548C81.9681 17.2469 81.7976 17.1016 81.6603 16.9273C81.523 16.753 81.4216 16.5533 81.3622 16.3396C81.3027 16.1259 81.2862 15.9025 81.3137 15.6824C81.3412 15.4623 81.4122 15.2498 81.5225 15.0573C81.6673 14.7377 81.7578 14.9246 81.6974 15.2925C81.6974 15.4251 81.6552 15.5578 81.6492 15.6905C81.5828 17.8976 84.9977 16.8483 85.939 16.2935C86.4332 16.0174 86.8777 15.6608 87.2543 15.2382C87.7425 14.6893 88.0483 14.0023 88.1291 13.2723C88.3222 11.626 86.2708 11.6381 85.2994 11.6803H85.2089C85.1003 11.9738 84.9857 12.2692 84.865 12.5667C84.6297 13.1698 84.4125 13.6281 84.1832 14.201C83.9757 14.7328 83.7106 15.2403 83.3928 15.7146C83.2179 15.9679 83.0791 15.8834 83.0912 15.588C83.1696 15.0438 83.3367 14.5162 83.5859 14.0261L84.2617 12.4341C84.7258 11.3996 85.0973 10.326 85.3718 9.22592C85.3713 9.19003 85.3785 9.15446 85.3931 9.12166C85.4077 9.08886 85.4293 9.05963 85.4563 9.036C85.4833 9.01237 85.5152 8.99491 85.5496 8.98482C85.5841 8.97473 85.6203 8.97226 85.6558 8.97759C85.6914 8.98291 85.7253 8.9959 85.7553 9.01565C85.7853 9.0354 85.8106 9.06144 85.8295 9.09195C85.8484 9.12247 85.8604 9.15674 85.8647 9.19237C85.869 9.228 85.8656 9.26414 85.8545 9.29829C85.793 9.7048 85.7084 10.1075 85.6011 10.5044C85.9227 10.0836 86.2228 9.64689 86.5001 9.19577C86.7655 8.73143 87.3568 7.47712 86.6268 7.09117C86.0234 6.77759 85.221 7.28414 84.7564 7.652C84.1738 8.1048 83.6702 8.6509 83.2661 9.26813C83.067 9.51538 82.9403 9.37065 83.0369 9.17768C83.4546 8.41013 84.0353 7.74325 84.7383 7.22384C85.3416 6.77759 86.2708 6.18662 86.9707 6.68714C87.7671 7.25399 87.4654 8.42991 87.0853 9.17768C86.7021 9.86005 86.2749 10.5167 85.8062 11.1436C86.7535 11.1436 87.9059 11.2702 88.4368 12.1567C88.4911 12.2501 88.5394 12.3467 88.5816 12.4461C88.8169 11.8129 89.0764 11.2823 89.2574 10.8722C89.7989 9.61574 90.4702 8.41925 91.2605 7.30224C91.3932 7.11529 91.5863 7.30224 91.4717 7.51933C90.2893 9.41618 89.3871 11.4736 88.7928 13.6281C88.7506 13.809 88.7144 13.9839 88.7023 14.0804C88.6251 14.4958 88.6583 14.9241 88.7988 15.3226C88.8295 15.3798 88.8704 15.4309 88.9195 15.4734C89.1488 15.6483 89.4384 15.3347 89.5832 15.1357C89.964 14.6494 90.2917 14.1238 90.5606 13.5678C91.0785 12.5943 91.5047 11.5748 91.8337 10.5224C91.9242 10.1847 92.3284 10.2571 92.3103 10.6431C92.2495 11.2533 92.1426 11.8581 91.9905 12.4522C91.9121 12.8683 91.3872 15.3528 92.2017 14.5809C93.0162 13.809 93.6678 12.3919 94.2531 11.1918C94.3617 10.9747 94.6513 11.0109 94.6875 11.2943C94.7314 12.1871 94.871 13.0726 95.1038 13.9356C95.2365 14.3336 94.8263 14.6352 94.6634 14.2492" fill="#5959BD"/>
<path d="M85.1805 12.2352C85.2866 12.1756 85.374 12.0876 85.4326 11.981C85.4913 11.8744 85.5189 11.7536 85.5123 11.6321V11.3065C85.5123 10.9447 85.3675 10.3477 84.3901 10.3477H81.0234V14.382H84.4384C85.1805 14.382 85.6451 14.0201 85.6451 13.4593V13.0251C85.664 12.8586 85.6268 12.6904 85.5393 12.5474C85.4519 12.4043 85.3193 12.2944 85.1624 12.2352H85.1805ZM84.7521 11.6321C84.7521 11.7949 84.6978 11.9879 84.2936 11.9879H81.7535V11.011H84.3298C84.4022 11.011 84.7582 11.011 84.7582 11.3005L84.7521 11.6321ZM81.7354 12.6392H84.2694C84.7582 12.6392 84.8728 12.7236 84.8728 13.0673V13.3447C84.8728 13.586 84.7823 13.7367 84.3358 13.7367H81.7535L81.7354 12.6392ZM87.262 13.7367H90.2245V14.388H86.5803V10.3657H87.3224L87.262 13.7367ZM95.6305 10.3657V13.3267C95.6305 14.2553 95.0693 14.4423 94.1583 14.4423H92.3724C91.4613 14.4423 90.9002 14.2553 90.9002 13.3267V10.3657H91.6423V13.3206C91.6423 13.6041 91.6966 13.791 92.3543 13.791H94.1643C94.822 13.791 94.8763 13.6041 94.8763 13.3206V10.3657H95.6305Z" fill="white"/>
</g>
<defs>
<clipPath id="clip0_247_4171">
<rect width="97" height="29" fill="white"/>
</clipPath>
</defs>
</svg>
