<svg width="74" height="38" viewBox="0 0 74 38" fill="none" xmlns="http://www.w3.org/2000/svg">
<g clip-path="url(#clip0_247_4139)">
<path d="M74 0H0V38H74V0Z" fill="#D70000"/>
<path d="M5.625 21.5368V14.4688H8.96198C10.2814 14.4688 10.976 15.2357 10.976 16.3031C10.9922 16.6217 10.9152 16.9381 10.7542 17.2145C10.5932 17.4908 10.3552 17.7153 10.0685 17.8611V17.8818C10.4369 17.9952 10.7569 18.2262 10.9786 18.5388C11.2003 18.8513 11.3111 19.2277 11.2937 19.6091C11.2937 20.7146 10.5956 21.5229 9.23773 21.5229L5.625 21.5368ZM6.98283 15.7538V17.3326H8.78396C8.88207 17.3431 8.98133 17.3344 9.07603 17.3069C9.17074 17.2795 9.25904 17.2338 9.33588 17.1725C9.41272 17.1112 9.4766 17.0355 9.52384 16.9498C9.57109 16.864 9.60079 16.7699 9.61123 16.6727C9.61649 16.6291 9.61649 16.5851 9.61123 16.5415C9.61123 16.0889 9.3983 15.7538 8.77 15.7538H6.98283ZM6.98283 18.5658V20.262H8.99689C9.10125 20.275 9.20719 20.2675 9.30858 20.2397C9.40996 20.2119 9.50479 20.1646 9.58756 20.1003C9.67033 20.0361 9.73941 19.9562 9.7908 19.8654C9.8422 19.7746 9.87489 19.6745 9.88698 19.5711C9.89221 19.516 9.89221 19.4604 9.88698 19.4053C9.89647 19.1883 9.81884 18.9765 9.67104 18.816C9.52324 18.6554 9.31727 18.5593 9.09811 18.5486H6.98283V18.5658Z" fill="white"/>
<path d="M16.5718 18.5658V20.262H20.3417V21.5368H15.207V14.4688H20.3417V15.7538H16.5718V17.3326H19.7134V18.5658" fill="white"/>
<path d="M27.2499 21.5368L25.7699 19.1497H24.5132V21.5368H23.1484V14.4688H26.0666C27.8363 14.4688 28.6147 15.4498 28.6147 16.804C28.6147 17.8404 28.1574 18.6626 27.1661 18.9873V19.0011L28.8695 21.5298L27.2499 21.5368ZM26.077 17.8542C26.9427 17.8542 27.2289 17.4017 27.2289 16.7971C27.2289 16.1926 26.9427 15.7607 26.077 15.7607H24.5132V17.868L26.077 17.8542Z" fill="white"/>
<path d="M36.4727 16.7118C36.2749 16.3646 35.9842 16.0781 35.6326 15.8837C35.281 15.6893 34.8821 15.5945 34.4796 15.6098C33.0834 15.6098 32.1549 16.615 32.1549 17.9969C32.1549 19.3787 33.0939 20.3978 34.4796 20.3978C35.5757 20.3978 36.375 19.8692 36.6961 18.9469V18.9261H34.0503V17.6963H38.1761V18.3561C38.0725 19.2364 37.6455 20.0482 36.9765 20.6373C36.3075 21.2264 35.4432 21.5516 34.5477 21.5511C33.6523 21.5507 32.7882 21.2246 32.1198 20.6348C31.4514 20.0451 31.0254 19.2328 30.9226 18.3524C30.8198 17.4721 31.0475 16.5851 31.5624 15.86C32.0772 15.1349 32.8434 14.6224 33.7151 14.4199C34.5869 14.2173 35.5034 14.3389 36.2905 14.7615C37.0776 15.184 37.6804 15.8781 37.9842 16.7118" fill="white"/>
<path d="M42.1148 21.5246H40.75V16.9715C40.75 15.1579 41.7972 14.3115 43.1934 14.3115C43.5899 14.2928 43.984 14.3829 44.332 14.5719C44.68 14.7609 44.9685 15.0414 45.1656 15.3824H45.1865C45.3821 15.0401 45.6702 14.7584 46.0186 14.5693C46.367 14.3801 46.7618 14.2908 47.1587 14.3115C48.5305 14.3115 49.6021 15.1544 49.6021 16.9715V21.5246H48.2373V16.9715C48.2373 16.0008 47.7241 15.5897 47.054 15.5897C46.3838 15.5897 45.8707 16.0008 45.8707 16.9715V21.5246H44.5093V16.9715C44.5093 16.0112 43.9962 15.5897 43.326 15.5897C42.6558 15.5897 42.1427 15.9904 42.1427 16.9715" fill="white"/>
<path d="M57.4472 21.5254V19.4077H54.0474V21.5254H52.707V17.3799C52.707 15.4903 53.7717 14.3088 55.7438 14.3088C57.716 14.3088 58.8016 15.4903 58.8016 17.3799V21.5254H57.4472ZM57.4367 17.3799C57.4367 16.2468 56.8817 15.5974 55.7334 15.5974C54.585 15.5974 54.0369 16.2468 54.0369 17.3799V18.1503H57.4367V17.3799Z" fill="white"/>
<path d="M66.9962 21.5269V17.2744C66.9962 16.238 66.4621 15.6093 65.3975 15.6093C64.3329 15.6093 63.8023 16.2242 63.8023 17.2744V21.5269H62.4375V17.2744C62.4375 15.4573 63.4847 14.3242 65.401 14.3242C67.3173 14.3242 68.3645 15.4573 68.3645 17.2744V21.5269" fill="white"/>
<path d="M7.36862 27.6366C7.17055 27.7568 6.94115 27.8169 6.70891 27.8093C6.49399 27.8164 6.28095 27.7675 6.09108 27.6676C5.91939 27.5726 5.77978 27.4296 5.68966 27.2566C5.5981 27.0538 5.55078 26.8343 5.55078 26.6123C5.55078 26.3902 5.5981 26.1707 5.68966 25.968C5.77934 25.7964 5.91923 25.6555 6.09108 25.5638C6.28869 25.4676 6.50649 25.419 6.72671 25.422C6.94692 25.425 7.16329 25.4795 7.35815 25.5811C7.53412 25.6907 7.65948 25.8644 7.70721 26.0647L7.16617 26.2789C7.149 26.167 7.09502 26.0638 7.01258 25.9853C6.92953 25.9203 6.825 25.8883 6.71938 25.8955C6.64218 25.8919 6.56526 25.907 6.49531 25.9395C6.42535 25.972 6.36447 26.0209 6.31796 26.082C6.21213 26.2414 6.16187 26.4306 6.17485 26.6209C6.16155 26.8103 6.2092 26.9989 6.31098 27.1598C6.3567 27.2207 6.41702 27.2693 6.4865 27.3013C6.55599 27.3332 6.63243 27.3476 6.70891 27.3429C6.81996 27.3505 6.93011 27.3187 7.01957 27.2531C7.10346 27.1766 7.15881 27.0744 7.17664 26.9629L7.73513 27.1184C7.68138 27.3298 7.55093 27.5142 7.36862 27.6366Z" fill="white"/>
<path d="M18.575 27.3112V27.781H16.7773V25.4492H17.3917V27.3112" fill="white"/>
<path d="M27.4151 25.4492H26.8008V27.781H27.4151V25.4492Z" fill="white"/>
<path d="M37.9348 27.7797H37.2367L36.5036 26.5188L36.3256 26.1733V26.6086V27.7831H35.8125V25.4479H36.5106L37.2436 26.7088L37.4251 27.0542L37.4077 26.612V25.4375H37.9487" fill="white"/>
<path d="M46.9503 25.4492H46.3359V27.781H46.9503V25.4492Z" fill="white"/>
<path d="M57.1108 27.6366C56.9126 27.7564 56.6833 27.8165 56.4511 27.8093C56.2361 27.8167 56.023 27.7679 55.8333 27.6676C55.66 27.5747 55.5198 27.4311 55.4318 27.2566C55.3403 27.0539 55.293 26.8343 55.293 26.6123C55.293 26.3902 55.3403 26.1707 55.4318 25.968C55.5248 25.7941 55.6699 25.6529 55.8472 25.5638C56.0448 25.4676 56.2626 25.419 56.4829 25.422C56.7031 25.425 56.9194 25.4795 57.1143 25.5811C57.2019 25.6348 57.2779 25.7052 57.3379 25.7883C57.3978 25.8713 57.4404 25.9653 57.4634 26.0647L56.9223 26.2789C56.9052 26.167 56.8512 26.0638 56.7687 25.9853C56.6845 25.923 56.5805 25.8924 56.4755 25.8989C56.3983 25.8953 56.3214 25.9104 56.2515 25.9429C56.1815 25.9755 56.1206 26.0244 56.0741 26.0855C55.9683 26.2448 55.918 26.4341 55.931 26.6244C55.9177 26.8137 55.9654 27.0024 56.0671 27.1633C56.1128 27.2241 56.1732 27.2728 56.2427 27.3047C56.3121 27.3367 56.3886 27.351 56.4651 27.3464C56.5761 27.354 56.6863 27.3221 56.7757 27.2566C56.8608 27.181 56.9163 27.0783 56.9328 26.9664L57.4913 27.1218C57.4327 27.3338 57.2972 27.5171 57.1108 27.6366Z" fill="white"/>
<path d="M67.9935 25.5161C68.1638 25.5889 68.3153 25.6987 68.4368 25.8373L68.0878 26.2312C68.0194 26.1201 67.9221 26.0294 67.8059 25.9686C67.6898 25.9078 67.5593 25.8792 67.4281 25.8857C67.3282 25.8797 67.2288 25.9025 67.1418 25.9513C67.1116 25.9682 67.0866 25.9928 67.0694 26.0226C67.0522 26.0524 67.0434 26.0863 67.0441 26.1206C67.0456 26.1518 67.0563 26.1818 67.0749 26.207C67.0935 26.2322 67.1192 26.2514 67.1488 26.2623C67.2602 26.3108 67.3775 26.3445 67.4979 26.3624C67.748 26.3929 67.9873 26.4817 68.196 26.6215C68.2651 26.6801 68.3199 26.7534 68.3562 26.836C68.3925 26.9186 68.4093 27.0083 68.4054 27.0983C68.4054 27.2365 68.3601 27.3711 68.2763 27.4817C68.1849 27.5945 68.0643 27.6805 67.9272 27.7304C67.7625 27.7884 67.5889 27.8176 67.4141 27.8168C67.1933 27.8232 66.9732 27.7893 66.7649 27.7166C66.5985 27.6536 66.4499 27.5517 66.332 27.4195L66.6462 26.9946C66.7245 27.1107 66.8331 27.2038 66.9603 27.2641C67.0936 27.3204 67.2379 27.3464 67.3827 27.3401C67.4833 27.3474 67.5841 27.3296 67.6759 27.2883C67.705 27.2728 67.7295 27.2499 67.7467 27.222C67.7639 27.1941 67.7732 27.1621 67.7736 27.1293C67.7736 27.0741 67.7387 27.0326 67.6689 26.9981C67.5574 26.9507 67.44 26.9181 67.3199 26.9013C67.1475 26.8709 66.979 26.8223 66.8172 26.7563C66.6957 26.7111 66.5894 26.6334 66.51 26.5317C66.4363 26.4316 66.3983 26.3101 66.4018 26.1863C66.3985 26.0459 66.4401 25.9081 66.5205 25.7924C66.6085 25.6715 66.7296 25.578 66.8696 25.523C67.0426 25.4545 67.2278 25.4216 67.4141 25.4263C67.6098 25.4213 67.8045 25.4554 67.9866 25.5264" fill="white"/>
</g>
<defs>
<clipPath id="clip0_247_4139">
<rect width="74" height="38" fill="white"/>
</clipPath>
</defs>
</svg>
