<svg width="56" height="56" viewBox="0 0 56 56" fill="none" xmlns="http://www.w3.org/2000/svg">
<path d="M56 27.5444C56 42.7832 43.456 55.0889 28.0224 55.0889C12.544 55.133 0 42.7832 0 27.5444C0 12.3498 12.544 0 27.9776 0C43.456 0 56 12.3498 56 27.5444Z" fill="#FF6600"/>
<path d="M20.5508 22.3774C20.5508 21.6767 20.6398 21.0636 20.8178 20.5381C20.9957 20.0128 21.3071 19.531 21.7074 19.1807C22.1076 18.8305 22.5971 18.5238 23.2642 18.3487C24.0021 18.1427 24.7656 18.0396 25.5326 18.0421C26.4223 18.0421 27.1783 18.1304 27.8011 18.3487C28.3763 18.5087 28.9081 18.793 29.3579 19.1807C29.7584 19.531 30.0697 20.0128 30.2476 20.5381C30.4254 21.0634 30.5144 21.7206 30.5144 22.3774C30.5144 23.0782 30.4248 23.6913 30.2476 24.2605C30.0697 24.786 29.7584 25.2676 29.3579 25.6181C28.9081 26.0057 28.3763 26.2899 27.8011 26.4499C27.0632 26.656 26.2996 26.7592 25.5326 26.7565C24.6431 26.7565 23.8869 26.6682 23.2642 26.4499C22.6889 26.2899 22.1571 26.0057 21.7074 25.6181C21.3071 25.2676 20.9957 24.786 20.8178 24.2605C20.64 23.6913 20.5508 23.0782 20.5508 22.3774ZM27.8456 22.4656C27.8419 22.1426 27.812 21.8204 27.756 21.5021C27.6664 21.1955 27.5782 20.9765 27.4001 20.7576C27.222 20.5386 26.9998 20.4073 26.6884 20.2759C26.3771 20.1445 26.0214 20.1008 25.5765 20.1008C25.1316 20.1008 24.7314 20.1449 24.4646 20.2759C24.1532 20.4082 23.9308 20.5386 23.7529 20.7576C23.5751 20.9765 23.4416 21.1955 23.397 21.5021C23.3074 21.8086 23.3074 22.1151 23.3074 22.4656C23.311 22.7885 23.3409 23.1106 23.397 23.4289C23.4418 23.7354 23.5748 23.9544 23.7529 24.1734C23.931 24.3924 24.1532 24.5675 24.4646 24.655C24.7759 24.7873 25.1316 24.8301 25.5765 24.8301C26.0214 24.8301 26.4217 24.786 26.6884 24.655C26.9554 24.5419 27.1972 24.3782 27.4001 24.1734C27.5793 23.9544 27.7115 23.6917 27.756 23.4289C27.8008 23.1223 27.8456 22.8158 27.8456 22.4656ZM31.3595 22.3774C31.3595 21.6767 31.4484 21.0636 31.6263 20.5381C31.8055 20.0128 32.1157 19.531 32.516 19.1807C32.9657 18.793 33.4976 18.5087 34.0728 18.3487C34.8107 18.1427 35.5743 18.0396 36.3413 18.0421C37.2308 18.0421 37.987 18.1304 38.6097 18.3487C39.185 18.5087 39.7168 18.793 40.1665 19.1807C40.5668 19.531 40.8782 20.0128 41.056 20.5381C41.2339 21.0634 41.323 21.7206 41.323 22.3774C41.323 23.0782 41.2334 23.6913 41.056 24.2605C40.8782 24.786 40.5668 25.2676 40.1665 25.6181C39.7167 26.0057 39.1849 26.2899 38.6097 26.4499C37.8718 26.656 37.1083 26.7592 36.3413 26.7565C35.4518 26.7565 34.6955 26.6682 34.0728 26.4499C33.4976 26.2899 32.9658 26.0057 32.516 25.6181C32.1157 25.2676 31.8044 24.786 31.6263 24.2605C31.4484 23.6913 31.3595 23.0782 31.3595 22.3774ZM38.6097 22.4656C38.606 22.1426 38.5761 21.8204 38.5201 21.5021C38.4305 21.1955 38.3423 20.9765 38.1642 20.7576C37.9861 20.5386 37.7639 20.4073 37.4525 20.2759C37.1412 20.1445 36.7855 20.1008 36.3406 20.1008C35.8957 20.1008 35.4955 20.1449 35.2287 20.2759C34.9173 20.4082 34.6949 20.5386 34.517 20.7576C34.3392 20.9765 34.2061 21.1951 34.1613 21.5021C34.0717 21.8086 34.0717 22.1151 34.0717 22.4656C34.0753 22.7885 34.1053 23.1106 34.1613 23.4289C34.2061 23.7354 34.3392 23.9544 34.5172 24.1734C34.6953 24.3924 34.9175 24.5675 35.2289 24.655C35.5403 24.7873 35.896 24.8301 36.3408 24.8301C36.7857 24.8301 37.186 24.786 37.4528 24.655C37.7197 24.5419 37.9615 24.3782 38.1644 24.1734C38.3436 23.9544 38.4758 23.6917 38.5203 23.4289C38.6099 23.1223 38.6099 22.8158 38.6099 22.4656H38.6097ZM45.2818 24.5675C45.3714 24.6557 45.4162 24.7432 45.4162 24.8301V26.3628C45.4162 26.451 45.3714 26.5386 45.2818 26.6257C45.1922 26.7139 45.1026 26.7139 44.9704 26.7139H42.6128C42.4784 26.7139 42.346 26.6698 42.2571 26.5816C42.1682 26.4934 42.1227 26.4065 42.1227 26.275V15.7649C42.1227 15.6767 42.1675 15.5892 42.2571 15.5023C42.3467 15.4141 42.435 15.4141 42.5685 15.4141H44.3477C44.4821 15.4141 44.5699 15.4582 44.6591 15.5023C44.7487 15.5905 44.7931 15.678 44.7923 15.7649V24.4792H45.0594C45.1042 24.4351 45.1938 24.4792 45.2818 24.5675ZM25.7996 37.3982C25.8892 37.4864 25.934 37.574 25.934 37.6609V39.2814C25.934 39.4137 25.8892 39.5001 25.7996 39.5879C25.71 39.6757 25.6204 39.7202 25.4883 39.7202H23.0417C22.9084 39.7202 22.7749 39.6761 22.686 39.5879C22.5971 39.4997 22.5516 39.4126 22.5516 39.2814V28.2016C22.5516 28.1134 22.5964 28.0258 22.686 27.939C22.7756 27.8507 22.8639 27.8066 22.9974 27.8066H24.8653C24.9997 27.8066 25.0877 27.8507 25.1767 27.939C25.2656 28.0272 25.3099 28.1141 25.3099 28.2016V37.3096H25.577C25.6218 37.3096 25.7114 37.3537 25.7994 37.3978L25.7996 37.3982ZM19.2165 24.0854C19.1269 23.9972 19.0386 23.9531 18.9497 23.909C18.8601 23.909 18.7273 23.9531 18.6383 23.9972C18.4605 24.1284 17.7932 24.7415 15.9696 24.7415C14.6352 24.7415 13.0784 24.0408 13.0784 22.333C13.0784 20.6689 14.7685 19.9244 15.9696 19.9244C17.7042 19.9244 18.4605 20.5813 18.6383 20.6689C18.7279 20.7571 18.8608 20.8012 18.9497 20.7571C19.0393 20.7571 19.1275 20.713 19.2165 20.582L19.8838 19.7063C19.893 19.6986 20.0549 19.5583 20.0211 19.3453C19.989 19.1428 19.8096 19.0561 19.7948 19.0493C19.4835 18.8303 19.3056 18.7428 19.0386 18.6113C18.7716 18.4799 18.5048 18.3485 18.1935 18.3044C17.8821 18.2161 17.5707 18.1731 17.215 18.1293C16.8593 18.0854 16.4588 18.0851 15.9696 18.0851C14.902 18.0851 14.0569 18.2164 13.3898 18.4353C12.7225 18.6982 10.543 19.6615 10.543 22.3328C10.543 25.1353 12.7225 26.1864 13.3898 26.449C14.0571 26.7117 14.9466 26.7995 15.9696 26.7995C16.4588 26.7995 16.8591 26.7995 17.215 26.7554C17.571 26.7113 17.8821 26.6671 18.1935 26.5803C18.5048 26.4934 18.7718 26.4052 19.0386 26.2737C19.3054 26.1423 19.4835 26.0547 19.7948 25.8357C19.7948 25.8357 20.2841 25.5292 20.0616 25.2227L19.2165 24.0854ZM11.1213 39.3685C11.1213 39.4997 11.1661 39.5875 11.2546 39.6311C11.3442 39.7193 11.4327 39.7634 11.566 39.7634C11.566 39.7634 13.6566 39.7634 13.7455 39.7193C13.8351 39.7193 13.8799 39.6311 13.8799 39.5442V39.2816C14.2356 39.4139 14.6361 39.5442 15.0808 39.6318C15.5254 39.7193 16.0148 39.7641 16.5932 39.7641C17.5273 39.7641 18.3279 39.6759 18.9506 39.4576C19.6177 39.2386 20.1514 38.9759 20.5517 38.5816C20.952 38.1873 21.2636 37.7498 21.4415 37.1803C21.6193 36.6109 21.7082 35.9542 21.7082 35.2536C21.7082 34.509 21.6187 33.8523 21.4415 33.3268C21.2703 32.7803 20.9647 32.2839 20.5517 31.8816C20.1514 31.4875 19.6177 31.2249 18.9506 31.0059C18.2835 30.7869 17.4818 30.6982 16.5477 30.6982C16.0139 30.6982 15.5247 30.7424 15.0799 30.7865C14.6352 30.8747 14.2793 30.9616 13.9234 31.093V28.2016C13.9234 28.1134 13.8789 28.0258 13.7901 27.939C13.7005 27.8507 13.6122 27.8066 13.4787 27.8066H11.6106C11.4762 27.8066 11.3881 27.8507 11.2992 27.939C11.2103 28.0272 11.1648 28.1141 11.1648 28.2016L11.1213 39.3685ZM18.8162 36.3031C18.7266 36.6096 18.5938 36.8723 18.4159 37.0474C18.238 37.2664 17.971 37.4417 17.6597 37.5292C17.3483 37.6615 16.948 37.7043 16.5034 37.7043C16.0139 37.7043 15.6582 37.6602 15.3469 37.5292C15.0355 37.3982 14.7685 37.2664 14.5906 37.0474C14.4143 36.8241 14.2788 36.5722 14.1904 36.3031C14.1008 35.9965 14.056 35.69 14.056 35.2959C14.0539 34.9557 14.0992 34.6169 14.1904 34.2887C14.28 33.9822 14.4134 33.7194 14.5906 33.5003C14.7685 33.2813 15.0355 33.1062 15.3469 32.9748C15.6582 32.8434 16.0585 32.7997 16.5034 32.7997C16.9926 32.7997 17.3929 32.8438 17.6597 32.9748C17.971 33.1071 18.1935 33.2813 18.4159 33.5003C18.5939 33.72 18.7277 33.9828 18.8173 34.2887C18.9085 34.6169 18.9537 34.9557 18.9517 35.2959C18.9517 35.69 18.9069 35.9965 18.8173 36.3031H18.8162ZM35.1404 30.7865C35.23 30.8747 35.2748 30.9622 35.2748 31.0491V35.3407C35.2748 36.0852 35.23 36.7858 35.097 37.3113C34.9626 37.8805 34.741 38.3185 34.4297 38.6689C34.1183 39.0194 33.6737 39.282 33.0953 39.4571C32.5169 39.6322 31.8055 39.7198 30.9603 39.7198C30.0708 39.7198 29.3591 39.6322 28.8254 39.4571C28.247 39.282 27.8022 39.0193 27.4908 38.6689C27.1794 38.3185 26.9572 37.8805 26.8237 37.3113C26.6893 36.7858 26.6459 36.0852 26.6459 35.3407V31.0919C26.6459 31.0037 26.6907 30.9161 26.7803 30.829C26.8699 30.7408 26.9584 30.6967 27.0916 30.6967H28.7374C28.8718 30.6967 28.9598 30.7408 29.0487 30.829C29.1377 30.9172 29.1831 31.0054 29.1831 31.0919V36.3031C29.1817 36.5401 29.2599 36.771 29.4056 36.9598C29.54 37.1362 29.7169 37.3102 29.9394 37.3978C30.2061 37.486 30.5175 37.5729 30.9624 37.5729C31.4072 37.5729 31.7629 37.5288 31.9854 37.3978C32.2078 37.3096 32.4302 37.1351 32.5192 36.9598C32.6536 36.7847 32.697 36.5221 32.7416 36.2592C32.7416 35.9965 32.7864 35.69 32.7864 35.3834V31.0919C32.7864 31.0037 32.8312 30.9161 32.9208 30.829C33.0104 30.7408 33.0986 30.6967 33.2322 30.6967H34.8779C34.9675 30.6967 35.0557 30.7408 35.1449 30.7849L35.1404 30.7865ZM38.7031 34.332C38.7479 34.0693 38.7927 33.8064 38.881 33.6313C38.9621 33.4228 39.1008 33.2407 39.2815 33.1058C39.4941 32.9459 39.7356 32.8271 39.9931 32.7556C40.2599 32.6674 40.6156 32.6233 41.0605 32.6233C41.461 32.6233 41.8167 32.6674 42.0837 32.7556C42.3022 32.825 42.5005 32.9451 42.6619 33.1058C42.7963 33.2381 42.8843 33.4562 42.9287 33.6313C42.9735 33.8503 43.0183 34.0693 43.0183 34.332H40.3C40.0776 34.332 40.0776 34.5509 40.0776 34.5509V35.8647C40.0776 35.8647 40.0776 36.0398 40.3 36.0398H45.4596V34.6385C45.4613 34.2117 45.4162 33.786 45.3252 33.3687C45.2356 32.9744 45.1028 32.5803 44.925 32.2737C44.7471 31.9235 44.4801 31.6606 44.1687 31.4417C43.8574 31.2227 43.4127 31.0039 42.9233 30.8725C42.4339 30.741 41.8114 30.6974 41.0997 30.6974C40.0767 30.6974 39.2315 30.8297 38.5643 31.0476C37.8972 31.3104 37.408 31.617 37.0075 32.0547C36.6355 32.4658 36.3754 32.963 36.2515 33.4999C36.1171 34.0254 36.029 34.6385 36.029 35.2079C36.0316 35.7984 36.1063 36.3864 36.2515 36.9594C36.3859 37.4849 36.6517 37.9665 37.0075 38.4045C37.3634 38.7986 37.8972 39.149 38.5643 39.368C39.2313 39.587 40.0767 39.7182 41.1443 39.7182C41.6335 39.7182 42.0338 39.7182 42.3897 39.6741C42.7457 39.63 43.0568 39.5859 43.3682 39.4977C43.6795 39.4095 43.9463 39.3226 44.2133 39.1912C44.4803 39.0597 44.6582 38.9724 44.9695 38.7534C44.9695 38.7534 45.4587 38.4469 45.1917 38.1403C45.1469 38.0962 45.1469 38.0962 45.0139 37.9213L44.3468 37.0454C44.2572 36.9572 44.2124 36.9131 44.0798 36.8703C43.9902 36.8703 43.8574 36.9144 43.7684 36.9585C43.5906 37.0908 43.4127 37.1775 43.2347 37.265C43.0566 37.3526 42.8789 37.4415 42.7011 37.484C42.5231 37.5722 42.3006 37.6163 42.0338 37.6163C41.767 37.6604 41.4556 37.6604 41.0997 37.6604C40.6548 37.6604 40.2991 37.6163 39.9878 37.5281C39.7302 37.4566 39.4887 37.3377 39.2761 37.1777C39.1037 37.0075 38.9542 36.8162 38.8313 36.6085C38.7417 36.3895 38.6534 36.1705 38.6088 35.9079C38.6088 35.2948 38.6984 34.3313 38.6984 34.3313" fill="white"/>
<path d="M31.3555 22.3782C31.3555 21.6775 31.4444 21.0644 31.6222 20.539C31.8014 20.0137 32.1117 19.5318 32.512 19.1816C32.9617 18.7938 33.4935 18.5096 34.0688 18.3496C34.8067 18.1436 35.5702 18.0404 36.3372 18.043C37.2267 18.043 37.9829 18.1312 38.6056 18.3496C39.1809 18.5096 39.7127 18.7938 40.1624 19.1816C40.5627 19.5318 40.8741 20.0137 41.0519 20.539C41.2298 21.0643 41.3189 21.7215 41.3189 22.3782C41.3189 23.0791 41.2293 23.6921 41.0519 24.2613C40.8741 24.7869 40.5627 25.2685 40.1624 25.6189C39.7127 26.0066 39.1809 26.2907 38.6056 26.4508C37.8678 26.6568 37.1042 26.76 36.3372 26.7573C35.4477 26.7573 34.6915 26.6691 34.0688 26.4508C33.4935 26.2907 32.9617 26.0066 32.512 25.6189C32.1117 25.2685 31.8003 24.7869 31.6222 24.2613C31.4444 23.6921 31.3555 23.0791 31.3555 22.3782ZM38.6056 22.4664C38.6019 22.1434 38.572 21.8212 38.516 21.5029C38.4264 21.1964 38.3382 20.9774 38.1601 20.7584C37.982 20.5394 37.7598 20.4082 37.4485 20.2768C37.1371 20.1453 36.7814 20.1017 36.3365 20.1017C35.8917 20.1017 35.4914 20.1458 35.2246 20.2768C34.9132 20.4091 34.6908 20.5394 34.513 20.7584C34.3351 20.9774 34.202 21.196 34.1572 21.5029C34.0676 21.8095 34.0676 22.116 34.0676 22.4664C34.0712 22.7894 34.1012 23.1115 34.1572 23.4297C34.202 23.7363 34.3351 23.9552 34.5132 24.1742C34.6913 24.3932 34.9135 24.5683 35.2248 24.6559C35.5362 24.7882 35.8919 24.831 36.3368 24.831C36.7816 24.831 37.1819 24.7869 37.4487 24.6559C37.7156 24.5427 37.9574 24.3791 38.1603 24.1742C38.3395 23.9552 38.4717 23.6926 38.5163 23.4297C38.6059 23.1232 38.6059 22.8166 38.6059 22.4664H38.6056ZM38.6955 34.3337C38.7403 34.071 38.7851 33.8081 38.8733 33.633C38.9544 33.4245 39.0931 33.2425 39.2738 33.1075C39.4865 32.9476 39.7279 32.8288 39.9855 32.7573C40.2522 32.6691 40.608 32.625 41.0528 32.625C41.4533 32.625 41.8091 32.6691 42.0761 32.7573C42.2945 32.8267 42.4928 32.9468 42.6542 33.1075C42.7886 33.2398 42.8766 33.4579 42.921 33.633C42.9658 33.852 43.0106 34.071 43.0106 34.3337H40.2959C40.0735 34.3337 40.0735 34.5527 40.0735 34.5527V35.8664C40.0735 35.8664 40.0735 36.0415 40.2959 36.0415H45.4555V34.6402C45.4572 34.2134 45.4121 33.7877 45.3211 33.3704C45.2315 32.9761 45.0987 32.582 44.9208 32.2754C44.743 31.9252 44.476 31.6624 44.1646 31.4434C43.8533 31.2244 43.4086 31.0056 42.9192 30.8742C42.4298 30.7428 41.8073 30.6991 41.0956 30.6991C40.0726 30.6991 39.2275 30.8314 38.5602 31.0493C37.8931 31.3122 37.4039 31.6187 37.0034 32.0565C36.6314 32.4675 36.3713 32.9647 36.2474 33.5016C36.113 34.0271 36.025 34.6402 36.025 35.2096C36.0276 35.8001 36.1022 36.3881 36.2474 36.9611C36.3818 37.4866 36.6477 37.9682 37.0034 38.4062C37.3593 38.8003 37.8931 39.1507 38.5602 39.3697C39.2272 39.5887 40.0726 39.7199 41.1402 39.7199C41.6294 39.7199 42.0297 39.7199 42.3856 39.6758C42.7416 39.6317 43.0527 39.5876 43.3641 39.4994C43.6754 39.4112 43.9422 39.3243 44.2092 39.1929C44.4762 39.0614 44.6541 38.9741 44.9654 38.7551C44.9654 38.7551 45.4546 38.4486 45.1876 38.142C45.1428 38.0979 45.1428 38.0979 45.0098 37.923L44.3427 37.0471C44.2531 36.9589 44.2083 36.9148 44.0757 36.872C43.9861 36.872 43.8533 36.9161 43.7643 36.9602C43.5865 37.0925 43.4086 37.1792 43.2306 37.2667C43.0525 37.3543 42.8748 37.4432 42.697 37.4857C42.519 37.5739 42.2965 37.618 42.0297 37.618C41.7629 37.6621 41.4516 37.6621 41.0956 37.6621C40.6508 37.6621 40.295 37.618 39.9837 37.5298C39.7261 37.4583 39.4847 37.3394 39.272 37.1794C39.0996 37.0092 38.9501 36.8179 38.8272 36.6102C38.7376 36.3912 38.6493 36.1722 38.6047 35.9096C38.6047 35.2965 38.6943 34.333 38.6943 34.333" fill="white"/>
</svg>
