<svg width="97" height="28" viewBox="0 0 97 28" fill="none" xmlns="http://www.w3.org/2000/svg">
<g clip-path="url(#clip0_247_4186)">
<path d="M19.7287 0.046814V24.164C19.7287 24.3781 19.6871 24.5901 19.6062 24.7878C19.5254 24.9856 19.4069 25.1652 19.2576 25.3163C19.1083 25.4675 18.931 25.5872 18.736 25.6687C18.541 25.7502 18.3321 25.7919 18.1212 25.7912H12.4675C11.8644 25.7923 11.2824 26.0168 10.8308 26.4226C10.3792 26.8284 10.0891 27.3876 10.0148 27.9952H9.73767C9.6634 27.3876 9.37323 26.8284 8.92163 26.4226C8.47003 26.0168 7.88805 25.7923 7.28495 25.7912H1.60352C1.39265 25.7919 1.18373 25.7502 0.988735 25.6687C0.79374 25.5872 0.616502 25.4675 0.467178 25.3163C0.317853 25.1652 0.199378 24.9856 0.118541 24.7878C0.0377033 24.5901 -0.00390713 24.3781 -0.00390625 24.164L-0.00390625 0.046814H19.7287Z" fill="#0055A3"/>
<path d="M9.38651 19.1809C9.28811 18.6734 9.09866 18.1886 8.82761 17.7507C8.77218 17.671 8.70751 17.5959 8.62899 17.4834C8.24561 17.7366 7.85761 17.9523 7.50194 18.229C6.87375 18.6979 6.28713 19.2372 5.65432 19.6827C4.95092 20.117 4.16284 20.3906 3.3448 20.4846C3.02146 20.5408 2.79513 20.433 2.81822 20.0156C2.8762 19.5402 3.03369 19.083 3.28013 18.6745C4.29894 16.6075 5.60054 14.6973 7.14627 13.0004C7.25713 12.8738 7.20632 12.8128 7.14627 12.7143C5.94532 11.2231 4.75361 9.73191 3.55727 8.23133C3.40108 8.04111 3.26196 7.83709 3.14156 7.62171C3.06911 7.49591 2.96956 7.38838 2.85038 7.30717C2.73119 7.22596 2.59545 7.17318 2.45332 7.15278C2.09765 7.04962 1.73275 7.02148 1.3817 6.96521C1.28932 6.96521 1.1877 6.96521 1.09532 6.92769C0.868987 6.87611 0.85051 6.81984 0.975225 6.63227C1.38928 6.02913 2.01619 5.61099 2.72584 5.46462C3.05842 5.38021 3.04456 5.39428 3.06765 5.05665C3.07751 4.78867 3.11781 4.52275 3.18775 4.26415C3.2608 4.05578 3.38331 3.8689 3.54444 3.72004C3.70557 3.57119 3.90035 3.46494 4.11156 3.41069C4.26861 3.35442 4.3148 3.48103 4.31942 3.61702C4.31942 3.92652 4.34713 4.24071 4.35637 4.55489C4.40766 5.56673 4.79331 6.53149 5.45108 7.29346C5.80778 7.82172 6.23708 8.29545 6.72594 8.70026C7.09777 8.96007 7.52244 9.13157 7.96846 9.20202C8.0978 9.20202 8.14861 9.17857 8.1717 9.04258C8.27794 8.30636 8.35646 7.57013 8.52275 6.84329C8.6911 6.19769 8.89465 5.56209 9.13246 4.93942C9.27565 4.53613 9.46041 4.15161 9.63132 3.76239C9.65576 3.68076 9.69491 3.60443 9.7468 3.53731C9.8207 3.4529 9.92694 3.33098 10.0101 3.34035C10.0675 3.35603 10.1209 3.38432 10.1664 3.42321C10.2118 3.4621 10.2484 3.51065 10.2734 3.56544C10.4258 3.87494 10.5551 4.1985 10.6937 4.50331C11.2232 5.82335 11.6239 7.19294 11.89 8.59241C11.927 8.74246 11.9686 8.89252 12.024 9.06134C12.1718 8.93004 12.3104 8.81281 12.4351 8.69088C13.1187 8.02969 13.8208 7.38725 14.4721 6.69792C15.2482 5.85994 15.8402 4.86415 16.2088 3.77646C16.2492 3.68349 16.2971 3.59409 16.352 3.50917C16.4214 3.58023 16.4848 3.65709 16.5414 3.73895C16.8077 4.11799 16.9933 4.54919 17.0865 5.00507C17.0865 5.00507 17.0865 5.04727 17.0865 5.06603C17.1327 5.41773 17.1327 5.40366 17.4698 5.43649C17.9317 5.48338 18.4445 5.55372 18.6939 6.06955C18.7495 6.18712 18.7989 6.30765 18.8417 6.43062C18.4999 6.51503 18.1858 6.58537 17.8671 6.67916C17.2109 6.83351 16.6165 7.18677 16.1627 7.69205C16.0055 7.88394 15.8273 8.057 15.6315 8.20788C15.1421 8.63376 14.7443 9.15732 14.4628 9.74598C13.9363 10.6838 13.3543 11.5889 12.7815 12.4986C12.6522 12.6956 12.6245 12.8128 12.7815 13.0144C13.8762 14.3181 14.9663 15.6264 16.0148 16.9582C16.2582 17.3135 16.4438 17.7061 16.5645 18.1211C16.7102 18.552 16.8335 18.9902 16.934 19.4341C16.9667 19.5881 16.9761 19.7462 16.9617 19.9031C16.9617 20.1 16.7539 20.2079 16.5276 20.1329C16.1196 19.9976 15.7187 19.8411 15.3266 19.6639C14.309 19.1336 13.3439 18.5055 12.4443 17.7882C12.2961 17.685 12.1419 17.591 11.9824 17.5068C11.9533 17.4877 11.9208 17.4745 11.8867 17.4681C11.8526 17.4618 11.8176 17.4623 11.7836 17.4697C11.7497 17.4771 11.7176 17.4912 11.6891 17.5113C11.6606 17.5313 11.6363 17.5569 11.6175 17.5865C11.5986 17.6147 11.586 17.6467 11.5806 17.6803C11.3049 18.5241 11.1372 19.4004 11.0817 20.2876C11.0649 21.0231 11.2234 21.7519 11.5436 22.4119C11.7388 22.7609 12.0269 23.0469 12.375 23.2372C12.411 23.2574 12.445 23.2809 12.4767 23.3075C12.4767 23.3075 12.4767 23.3075 12.4767 23.345C11.3819 23.7249 10.8646 23.7765 10.1671 22.7542C9.97027 22.8842 9.7806 23.0251 9.59899 23.1762C9.34387 23.3727 9.04283 23.4984 8.72541 23.5412C8.40799 23.5839 8.08507 23.5422 7.78832 23.4201C7.64513 23.3779 7.64051 23.2841 7.74675 23.1528C8.14861 22.6838 8.56894 22.2149 8.93384 21.7038C9.10603 21.4064 9.24839 21.0922 9.3588 20.7659C9.37492 20.7397 9.38735 20.7112 9.39575 20.6815V19.2606C9.38624 19.2328 9.37385 19.2061 9.3588 19.1809H9.38651ZM9.98699 11.467C9.91503 11.4898 9.84542 11.5196 9.77913 11.5561C9.58513 11.7061 9.39575 11.8609 9.21099 12.025C8.93846 12.2923 8.94308 12.4517 9.21099 12.7143C9.47889 12.9769 9.85303 13.2583 10.1717 13.5303C10.2595 13.6053 10.3473 13.6756 10.4258 13.7507L11.793 14.9371C11.8322 14.978 11.8848 15.003 11.9408 15.0074C12.1213 15.0002 12.3006 15.0395 12.4621 15.1214C12.6236 15.2034 12.7621 15.3255 12.8647 15.4763C12.9879 15.6304 13.1273 15.7703 13.2804 15.8937C13.4197 15.9857 13.5775 16.0449 13.7423 16.0672C13.9178 16.0672 13.9547 15.9922 13.8577 15.8468C13.782 15.7276 13.6971 15.6147 13.6037 15.5092C13.2203 15.0871 12.8323 14.6698 12.4443 14.2477C12.3319 14.1348 12.2499 13.9944 12.2062 13.84C12.1625 13.6856 12.1586 13.5225 12.1949 13.3661C12.2103 13.3217 12.211 13.2733 12.1969 13.2285C12.1827 13.1836 12.1544 13.1446 12.1164 13.1176C11.4789 12.5924 10.8369 12.0688 10.1902 11.5467C10.1245 11.5152 10.0565 11.4885 9.98699 11.467ZM9.31722 8.23602C9.31495 8.26411 9.31495 8.29234 9.31722 8.32043C9.3265 8.53021 9.27777 8.73845 9.17656 8.9216C9.07534 9.10474 8.92566 9.25548 8.74446 9.35677C8.70535 9.38243 8.67199 9.41614 8.64652 9.45572C8.62106 9.4953 8.60407 9.53987 8.59665 9.58654C8.5597 10.2993 8.53199 11.0168 8.50889 11.7436C8.50889 11.9265 8.61513 11.9734 8.77218 11.8562L9.69599 11.1481C9.7899 11.0782 9.86667 10.9873 9.92035 10.8823C9.97402 10.7774 10.0031 10.6614 10.0055 10.5432C10.0114 10.2881 10.0037 10.033 9.98237 9.77881C9.94171 9.49284 9.91703 9.20477 9.90846 8.91597C9.89651 8.75266 9.83225 8.5978 9.7255 8.47503C9.61875 8.35226 9.47536 8.26832 9.31722 8.23602ZM3.54803 19.7436L3.95451 19.5139C4.08846 19.4341 4.25013 19.3497 4.35175 19.5139C4.45337 19.678 4.65661 19.6733 4.81365 19.5983C4.9707 19.5232 5.16008 19.4482 5.32637 19.3591C5.60249 19.1679 5.81485 18.8959 5.93528 18.5794C6.05572 18.2628 6.07855 17.9166 6.00075 17.5865C5.97303 17.4928 6.00075 17.3193 6.0377 17.2864C6.08976 17.2589 6.1476 17.2445 6.2063 17.2445C6.265 17.2445 6.32283 17.2589 6.37489 17.2864C6.4963 17.3773 6.58802 17.5031 6.63818 17.6475C6.68899 17.7929 6.66127 17.9664 6.69823 18.1164C6.71365 18.1466 6.73522 18.1731 6.7615 18.1941C6.78778 18.2151 6.81817 18.2302 6.85065 18.2384C6.97778 18.1659 7.09972 18.0844 7.21556 17.9945C6.91994 17.8069 6.89222 17.7554 6.86913 17.4365C6.86913 17.2771 6.86913 17.1223 6.82294 16.9676C6.81236 16.8439 6.75391 16.7295 6.6604 16.6495C6.56688 16.5695 6.44594 16.5304 6.32408 16.5408C5.98464 16.5802 5.64822 16.6428 5.31713 16.7284C5.19703 16.7612 5.16008 16.855 5.27556 16.9863C5.42315 17.1544 5.54748 17.3421 5.64508 17.5443C5.69327 17.6637 5.71671 17.7918 5.71391 17.9208C5.71111 18.0497 5.68215 18.1767 5.62883 18.2937C5.57551 18.4108 5.49898 18.5155 5.40402 18.6011C5.30906 18.6868 5.19771 18.7517 5.07694 18.7917C4.94225 18.8467 4.79432 18.8591 4.65256 18.8273C4.51079 18.7955 4.38179 18.721 4.28246 18.6135C4.08846 18.3837 3.97299 18.4166 3.82056 18.6932C3.72182 18.882 3.63691 19.0779 3.56651 19.2794C3.53816 19.434 3.52578 19.5911 3.52956 19.7483L3.54803 19.7436ZM10.4766 17.202H10.4212V16.4095C10.4183 16.3168 10.3963 16.2257 10.3565 16.1422C10.2641 15.9453 10.1163 15.9031 9.96389 16.0438C9.81146 16.1844 9.59437 16.4095 9.40037 16.5877C9.32452 16.6529 9.26857 16.7387 9.23912 16.8351C9.20966 16.9314 9.20791 17.0343 9.23408 17.1317C9.34032 17.5725 9.44194 18.018 9.56665 18.4541C9.69137 18.8902 9.80223 19.2137 9.93618 19.5889C9.98105 19.6726 10.0387 19.7486 10.1071 19.814L10.2595 19.542V19.5045L10.4766 17.202ZM7.30332 17.8726C7.55731 17.6941 7.74833 17.4378 7.84837 17.1411C7.9692 16.7778 8.21746 16.4723 8.54584 16.2829C8.70406 16.1608 8.90263 16.1053 9.10013 16.1282C9.24049 16.1197 9.37437 16.0653 9.48178 15.9732C9.58918 15.8811 9.66432 15.7561 9.69599 15.617C9.69599 15.5608 9.69599 15.4857 9.69599 15.4529C9.52949 15.2668 9.34879 15.0943 9.15556 14.9371C9.12528 14.9103 9.08988 14.8902 9.05158 14.878C9.01327 14.8658 8.97289 14.8617 8.93298 14.8661C8.89306 14.8705 8.85448 14.8833 8.81965 14.9036C8.78482 14.9238 8.75451 14.9512 8.73061 14.984C8.35184 15.3638 7.93151 15.7061 7.54813 16.0906C7.42267 16.2165 7.34289 16.3818 7.3218 16.5596C7.29408 16.991 7.31256 17.4083 7.31256 17.8726H7.30332ZM13.9963 18.2899L14.0564 18.2571C14.0887 18.1024 14.1118 17.9476 14.1534 17.7882C14.1781 17.6863 14.2249 17.5913 14.2904 17.5102C14.356 17.429 14.4385 17.3638 14.5321 17.3193C14.6755 17.2676 14.8286 17.2502 14.9797 17.2685C15.1307 17.2868 15.2756 17.3402 15.403 17.4246C15.5304 17.509 15.6368 17.6221 15.7141 17.7551C15.7914 17.8881 15.8374 18.0375 15.8486 18.1915C15.8667 18.3048 15.8572 18.4208 15.8209 18.5295C15.7847 18.6382 15.7228 18.7363 15.6407 18.8152C15.6033 18.8565 15.5707 18.9021 15.5437 18.9511C15.4698 19.0684 15.479 19.1668 15.6176 19.2231C15.7562 19.2794 15.9178 19.345 16.0795 19.3919C16.1516 19.4013 16.2245 19.4013 16.2966 19.3919C16.2958 19.3035 16.2786 19.216 16.2458 19.134C16.212 19.0766 16.1942 19.011 16.1942 18.9441C16.1942 18.8772 16.212 18.8116 16.2458 18.7542C16.2962 18.6494 16.3108 18.5307 16.2874 18.4166C16.177 18.082 16.0395 17.7573 15.8763 17.4459C15.8348 17.3266 15.77 17.2172 15.6857 17.124C15.6015 17.0309 15.4996 16.956 15.3861 16.9039C15.2726 16.8517 15.1499 16.8235 15.0254 16.8207C14.9009 16.8179 14.7771 16.8408 14.6615 16.8878C14.5936 16.9176 14.5186 16.9268 14.4457 16.9144C14.3727 16.9019 14.3049 16.8682 14.2504 16.8175C14.232 16.7787 14.2224 16.7363 14.2224 16.6932C14.2224 16.6502 14.232 16.6077 14.2504 16.569C14.2985 16.4928 14.3613 16.4274 14.4351 16.3767C14.5044 16.3157 14.5783 16.2595 14.6661 16.1938C14.4028 16.0578 14.3058 16.0953 14.2042 16.3251C14.1899 16.3651 14.1679 16.4018 14.1395 16.433C13.9596 16.6525 13.8386 16.9156 13.7884 17.1966C13.7382 17.4776 13.7605 17.767 13.8531 18.0367C13.8531 18.1399 13.964 18.2055 14.0287 18.2899H13.9963ZM13.9594 9.70847L13.9086 9.66157C13.8606 9.69011 13.8144 9.72142 13.77 9.75536C13.2203 10.2712 12.6707 10.787 12.1348 11.3122C12.0418 11.4088 11.9832 11.5343 11.9686 11.6686C11.9669 11.8876 11.9886 12.1061 12.0332 12.3204C12.0332 12.3861 12.1071 12.4423 12.1441 12.5033C12.2064 12.4655 12.2625 12.418 12.3104 12.3626C12.6799 11.814 13.0494 11.2747 13.3958 10.7167C13.6129 10.3931 13.7792 10.0461 13.9686 9.70847H13.9594ZM8.02389 11.2372C8.02389 10.8996 8.07008 10.5619 8.07008 10.2243C8.06163 10.1811 8.04456 10.1401 8.01994 10.1038C7.99532 10.0675 7.96365 10.0367 7.92689 10.0133C7.63589 9.82101 7.34027 9.62406 7.03542 9.45524C6.82756 9.33801 6.57351 9.2536 6.3518 9.14575C6.46265 9.71785 7.64975 11.2231 8.02389 11.2372ZM9.16018 7.98279C9.36803 7.76239 9.39113 7.76239 9.64518 7.79522C9.79299 7.79522 9.99622 7.86087 10.1071 7.79522C10.3529 7.57762 10.5801 7.33917 10.7861 7.08244C10.8184 7.04493 10.7861 6.95114 10.7861 6.84797C10.6561 6.92923 10.5091 6.97849 10.357 6.99183C10.2049 7.00517 10.0519 6.98223 9.91006 6.92482C9.76825 6.86741 9.64162 6.77714 9.54029 6.66121C9.43896 6.54528 9.36574 6.4069 9.32646 6.25712C9.28388 6.31496 9.25297 6.38076 9.23549 6.45076C9.21802 6.52075 9.21432 6.59356 9.22462 6.66501C9.23492 6.73646 9.25901 6.80514 9.29551 6.86711C9.33201 6.92909 9.3802 6.98314 9.43732 7.02617C9.51827 7.06649 9.59296 7.11863 9.65903 7.18092C9.72529 7.257 9.76004 7.35612 9.75603 7.45759C9.75603 7.51386 9.61284 7.55606 9.5297 7.5842C9.45287 7.59124 9.37558 7.59124 9.29875 7.5842C9.22484 7.5842 9.10013 7.63109 9.09551 7.66861C9.09912 7.77633 9.121 7.88262 9.16018 7.98279ZM9.62208 5.25829L9.68213 5.29112L10.3935 4.96286V4.88314C10.2179 4.88314 10.0008 4.96286 9.93156 4.6815H9.86689L9.62208 5.25829Z" fill="#FFEF41"/>
<path d="M31.3793 6.9174H34.2708C34.2246 8.282 32.8343 9.13546 31.4301 9.13546C30.9703 9.12452 30.5171 9.02148 30.0966 8.83224C29.6762 8.64301 29.2967 8.37131 28.9799 8.03274C28.6632 7.69418 28.4154 7.29543 28.2509 6.85939C28.0864 6.42334 28.0083 5.9586 28.0212 5.49185C28.0083 5.02578 28.0865 4.56174 28.2512 4.1265C28.4158 3.69126 28.6638 3.29344 28.9807 2.956C29.2977 2.61855 29.6773 2.34817 30.0977 2.16046C30.518 1.97274 30.9709 1.87141 31.4301 1.8623C31.8757 1.86261 32.3167 1.95459 32.7263 2.13271C33.136 2.31083 33.5058 2.57139 33.8135 2.89865L35.25 1.62784C34.7539 1.10317 34.1566 0.687906 33.4954 0.407946C32.8342 0.127986 32.1233 -0.0106654 31.407 0.000639675C30.7007 0.00122656 30.0014 0.143832 29.3497 0.420224C28.6979 0.696616 28.1065 1.10132 27.6097 1.61098C27.1128 2.12064 26.7203 2.72516 26.4548 3.38964C26.1893 4.05413 26.056 4.76542 26.0627 5.48247C26.0579 6.19878 26.1924 6.90901 26.4586 7.57239C26.7249 8.23578 27.1175 8.83925 27.6141 9.34816C28.1106 9.85707 28.7013 10.2614 29.3522 10.5379C30.0031 10.8145 30.7014 10.9578 31.407 10.9596C34.4371 10.9596 36.4879 9.19173 36.4879 5.28083H31.3793V6.9174ZM41.107 3.40978C40.6174 3.39347 40.1297 3.47935 39.6741 3.66211C39.2185 3.84487 38.8047 4.12061 38.4583 4.47227C38.1119 4.82393 37.8403 5.24403 37.6603 5.70655C37.4803 6.16908 37.3957 6.66419 37.4117 7.16125C37.3946 7.66076 37.4782 8.15856 37.6572 8.62415C37.8363 9.08973 38.1071 9.51331 38.453 9.86892C38.799 10.2245 39.2128 10.5047 39.6692 10.6922C40.1255 10.8798 40.6148 10.9708 41.107 10.9596C42.4234 10.9596 43.7953 10.4485 44.4373 9.2058C43.9754 8.96195 43.4581 8.68059 43.0146 8.43206C42.8242 8.73412 42.5587 8.97987 42.2448 9.14453C41.931 9.30919 41.5799 9.38693 41.2271 9.36992C40.1739 9.36992 39.3795 8.77907 39.2594 7.81776H44.6914C44.6914 7.64425 44.7237 7.34882 44.7237 7.16594C44.7481 6.6733 44.6719 6.18086 44.4998 5.71956C44.3278 5.25825 44.0637 4.83803 43.724 4.48531C43.3844 4.13258 42.9766 3.85495 42.5262 3.66987C42.0759 3.48478 41.5927 3.39623 41.107 3.40978ZM39.2594 6.52819C39.3212 6.08368 39.5457 5.67912 39.888 5.39498C40.2304 5.11085 40.6656 4.96797 41.107 4.99478C41.5425 4.96576 41.9721 5.10934 42.3055 5.39533C42.6389 5.68131 42.85 6.0874 42.8946 6.52819H39.2594ZM57.3568 10.8096V6.66887C57.3568 4.5446 56.3314 3.40978 54.5854 3.40978C54.1234 3.40356 53.6689 3.52846 53.2731 3.77038C52.8773 4.01231 52.5559 4.36167 52.3451 4.77907C51.9525 3.89279 51.1996 3.4895 50.0679 3.42854C49.6543 3.41953 49.2461 3.52579 48.8878 3.73579C48.5295 3.94578 48.2347 4.25147 48.0356 4.61963V3.55984H46.1879V10.8049H48.0356V6.9643C48.0356 5.72631 48.7654 5.27614 49.5321 5.27614C50.2989 5.27614 50.807 5.81541 50.807 6.82362V10.8096H52.6546V6.9643C52.6546 5.8623 53.2643 5.27614 54.105 5.27614C54.8671 5.27614 55.4491 5.84824 55.4491 6.88927V10.8283L57.3568 10.8096ZM64.3916 8.43675C64.2005 8.73814 63.9348 8.98336 63.6211 9.14793C63.3075 9.3125 62.9567 9.39066 62.604 9.37461C61.5463 9.37461 60.7564 8.78376 60.6317 7.82245H66.0498C66.0498 7.64894 66.0775 7.35351 66.0775 7.17063C66.1013 6.67797 66.0245 6.18564 65.8519 5.72456C65.6793 5.26348 65.4146 4.84362 65.0746 4.49133C64.7345 4.13904 64.3263 3.86195 63.8758 3.67744C63.4252 3.49293 62.9419 3.405 62.4562 3.41916C61.9666 3.40285 61.4789 3.48873 61.0233 3.67149C60.5677 3.85425 60.1539 4.12999 59.8075 4.48165C59.4611 4.83331 59.1895 5.25341 59.0095 5.71593C58.8295 6.17846 58.7449 6.67357 58.761 7.17063C58.7439 7.67014 58.8274 8.16794 59.0065 8.63352C59.1855 9.09911 59.4563 9.52269 59.8023 9.87829C60.1482 10.2339 60.5621 10.5141 61.0184 10.7016C61.4748 10.8892 61.964 10.9801 62.4562 10.969C63.7726 10.969 65.1445 10.4578 65.7865 9.21987C65.3293 8.96664 64.8073 8.68528 64.3685 8.43675H64.3916ZM62.4978 4.99478C62.9325 4.96702 63.361 5.11118 63.6934 5.39703C64.0258 5.68289 64.2362 6.08826 64.2807 6.52819H60.6178C60.6788 6.0815 60.9043 5.67488 61.2489 5.39032C61.5935 5.10575 62.0315 4.96441 62.4747 4.99478H62.4978ZM72.6874 8.43675C72.4977 8.73844 72.233 8.984 71.9199 9.14866C71.6069 9.31332 71.2566 9.39126 70.9045 9.37461C69.8467 9.37461 69.0568 8.78376 68.9321 7.82245H74.3641C74.3641 7.64894 74.3965 7.35351 74.3965 7.17063C74.4202 6.67797 74.3434 6.18564 74.1708 5.72456C73.9982 5.26348 73.7335 4.84362 73.3935 4.49133C73.0534 4.13904 72.6453 3.86195 72.1947 3.67744C71.7441 3.49293 71.2608 3.405 70.7751 3.41916C70.2855 3.40285 69.7978 3.48873 69.3422 3.67149C68.8866 3.85425 68.4728 4.12999 68.1264 4.48165C67.7801 4.83331 67.5084 5.25341 67.3284 5.71593C67.1484 6.17846 67.0638 6.67357 67.0799 7.17063C67.0628 7.67014 67.1463 8.16794 67.3254 8.63352C67.5044 9.09911 67.7752 9.52269 68.1212 9.87829C68.4671 10.2339 68.881 10.5141 69.3373 10.7016C69.7937 10.8892 70.2829 10.9801 70.7751 10.969C72.0915 10.969 73.4634 10.4578 74.1055 9.21987C73.6297 8.96664 73.1077 8.68528 72.6643 8.43675H72.6874ZM70.7982 4.99478C71.2335 4.96695 71.6625 5.11096 71.9956 5.39671C72.3287 5.68247 72.5402 6.08787 72.5858 6.52819H68.9136C68.9767 6.08158 69.2034 5.67557 69.5485 5.39129C69.8936 5.10702 70.3316 4.96541 70.7751 4.99478H70.7982ZM77.6667 6.9643C77.6667 5.70756 78.3827 5.27614 79.2234 5.27614C80.064 5.27614 80.586 5.83417 80.586 6.88927V10.8283H82.4336V6.52819C82.4336 4.47895 81.4405 3.40978 79.773 3.40978C79.3484 3.40701 78.9305 3.51725 78.561 3.72953C78.1914 3.9418 77.8831 4.2487 77.6667 4.61963V3.56453H75.8191V10.8096H77.6667V6.9643ZM86.7616 0.807205H84.914V3.56922H83.6022V5.08856H84.9002V10.8096H86.7478V5.08856H88.2582V3.56922H86.7478L86.7616 0.807205ZM96.3138 7.16594C96.3383 6.6731 96.2619 6.18047 96.0896 5.71907C95.9172 5.25768 95.6526 4.83752 95.3124 4.48509C94.9722 4.13265 94.5638 3.85557 94.1129 3.67131C93.662 3.48705 93.1783 3.3996 92.6925 3.41447C92.2025 3.39677 91.7142 3.4817 91.258 3.66397C90.8018 3.84623 90.3875 4.12193 90.0408 4.47388C89.6941 4.82582 89.4226 5.24648 89.243 5.70964C89.0635 6.17279 88.9798 6.66852 88.9973 7.16594C88.9795 7.66563 89.0626 8.16372 89.2414 8.62962C89.4202 9.09551 89.691 9.51936 90.0371 9.87511C90.3831 10.2309 90.7972 10.511 91.2539 10.6983C91.7106 10.8856 92.2001 10.9761 92.6925 10.9643C94.0089 10.9643 95.3808 10.4532 96.0228 9.21518C95.5609 8.96664 95.0436 8.68528 94.6002 8.43675C94.4101 8.73915 94.1446 8.98516 93.8307 9.14987C93.5168 9.31457 93.1655 9.3921 92.8126 9.37461C91.7595 9.37461 90.965 8.78376 90.8356 7.82245H96.2769C96.2769 7.64425 96.3138 7.35351 96.3138 7.16594ZM90.8264 6.52819C90.8886 6.07764 91.1177 5.66814 91.467 5.3832C91.8164 5.09825 92.2596 4.95934 92.7064 4.99478C93.1419 4.96576 93.5715 5.10934 93.9049 5.39533C94.2383 5.68131 94.4494 6.0874 94.4939 6.52819H90.8264ZM31.4947 16.8729H26.617V15.0862H34.0075V16.6525L28.8988 23.9913H34.0167V25.7779H26.423V24.2257L31.4947 16.8729ZM40.8622 24.8447C40.4003 25.5903 39.3471 25.9186 38.645 25.9186C37.6595 25.9186 36.7143 25.5211 36.0174 24.8136C35.3205 24.1061 34.929 23.1466 34.929 22.146C34.929 21.1455 35.3205 20.1859 36.0174 19.4784C36.7143 18.7709 37.6595 18.3734 38.645 18.3734C39.07 18.3615 39.4919 18.4508 39.8769 18.634C40.2619 18.8172 40.5993 19.0893 40.8622 19.4285V18.5376H42.7098V25.7826H40.8622V24.8447ZM38.9037 24.0991C39.1605 24.1094 39.4166 24.0663 39.6564 23.9724C39.8961 23.8785 40.1144 23.7358 40.2978 23.553C40.4813 23.3703 40.6259 23.1515 40.723 22.9099C40.82 22.6683 40.8674 22.4092 40.8622 22.1484C40.8654 21.8879 40.8167 21.6294 40.719 21.3885C40.6213 21.1476 40.4766 20.9293 40.2937 20.7466C40.1107 20.564 39.8933 20.4207 39.6544 20.3256C39.4155 20.2304 39.1602 20.1853 38.9037 20.1929C38.6431 20.1799 38.3827 20.2208 38.1381 20.3131C37.8936 20.4054 37.6701 20.5472 37.4812 20.7299C37.2922 20.9125 37.1418 21.1322 37.039 21.3756C36.9363 21.6191 36.8833 21.8812 36.8833 22.146C36.8833 22.4109 36.9363 22.673 37.039 22.9164C37.1418 23.1598 37.2922 23.3795 37.4812 23.5622C37.6701 23.7448 37.8936 23.8866 38.1381 23.9789C38.3827 24.0712 38.6431 24.1121 38.9037 24.0991ZM46.5482 25.7779H44.7006V18.5376H46.5482V19.6255C46.7647 19.2495 47.0753 18.9383 47.4484 18.7233C47.8215 18.5084 48.244 18.3974 48.673 18.4016C50.3358 18.4016 51.3289 19.4707 51.3289 21.52V25.8013H49.4813V21.8342C49.4813 20.7838 48.9316 20.221 48.1233 20.221C47.315 20.221 46.5621 20.6571 46.5621 21.9139L46.5482 25.7779ZM58.5023 24.7838C58.2561 25.1543 57.9194 25.4536 57.5251 25.6525C57.1308 25.8514 56.6924 25.9431 56.2528 25.9186C54.4052 25.9186 52.7516 24.4461 52.7516 22.1671C52.7516 19.8881 54.3729 18.3828 56.2528 18.3828C56.6912 18.353 57.1295 18.4403 57.5242 18.6362C57.9189 18.832 58.2562 19.1295 58.5023 19.4989V14.5892H60.3499V25.7779H58.5023V24.7838ZM56.5577 20.1601C56.3056 20.1554 56.0552 20.2031 55.822 20.3003C55.5887 20.3975 55.3776 20.5422 55.2015 20.7253C55.0253 20.9085 54.888 21.1264 54.798 21.3654C54.7079 21.6045 54.667 21.8598 54.6777 22.1155C54.6834 22.4922 54.7978 22.8589 55.0065 23.1704C55.2153 23.4818 55.5095 23.7243 55.8525 23.8678C56.1956 24.0114 56.5726 24.0497 56.9369 23.9781C57.3012 23.9064 57.6369 23.728 57.9023 23.4648C58.1678 23.2016 58.3515 22.8652 58.4307 22.4971C58.5098 22.1291 58.481 21.7455 58.3478 21.3939C58.2146 21.0423 57.9827 20.7381 57.681 20.5188C57.3793 20.2995 57.0209 20.1748 56.6501 20.1601H56.5577ZM61.3892 18.5235H63.3754L65.223 23.3394L67.0706 18.5235H69.0753L66.0498 25.7779H64.387L61.3892 18.5235ZM69.4725 22.1155C69.4798 21.3752 69.7028 20.6536 70.1132 20.0416C70.5236 19.4297 71.1033 18.9547 71.7791 18.6765C72.4549 18.3983 73.1967 18.3293 73.9111 18.4783C74.6254 18.6273 75.2804 18.9875 75.7935 19.5136C76.3066 20.0397 76.6549 20.7082 76.7945 21.4349C76.9341 22.1615 76.8588 22.9139 76.5781 23.5972C76.2973 24.2805 75.8237 24.8642 75.2169 25.2748C74.61 25.6854 73.8971 25.9045 73.1678 25.9045C72.6767 25.9189 72.1879 25.831 71.7316 25.646C71.2754 25.4611 70.8613 25.1832 70.515 24.8294C70.1687 24.4756 69.8975 24.0535 69.7182 23.5892C69.5389 23.1248 69.4553 22.6281 69.4725 22.1296V22.1155ZM75.0524 22.1155C75.0524 21.6131 74.8558 21.1312 74.5058 20.7759C74.1558 20.4206 73.6812 20.221 73.1863 20.221C72.6913 20.221 72.2167 20.4206 71.8667 20.7759C71.5168 21.1312 71.3202 21.6131 71.3202 22.1155C71.3202 22.618 71.5168 23.0998 71.8667 23.4551C72.2167 23.8104 72.6913 24.01 73.1863 24.01C73.6812 24.01 74.1558 23.8104 74.5058 23.4551C74.8558 23.0998 75.0524 22.618 75.0524 22.1155ZM77.967 22.1155C77.9697 21.3697 78.19 20.6415 78.6 20.0226C79.0101 19.4038 79.5915 18.9222 80.2709 18.6385C80.9503 18.3548 81.6972 18.2817 82.4175 18.4286C83.1377 18.5755 83.799 18.9356 84.3178 19.4636C84.8366 19.9917 85.1897 20.6639 85.3326 21.3954C85.4755 22.127 85.4017 22.8851 85.1206 23.5742C84.8395 24.2632 84.3636 24.8523 83.753 25.267C83.1425 25.6817 82.4246 25.9036 81.6899 25.9045C81.1981 25.9167 80.709 25.8274 80.2522 25.6421C79.7954 25.4568 79.3804 25.1792 79.0323 24.8263C78.6843 24.4734 78.4104 24.0524 78.2272 23.5889C78.0441 23.1253 77.9556 22.6289 77.967 22.1296V22.1155ZM83.5468 22.1155C83.5468 21.6137 83.3504 21.1324 83.0009 20.7776C82.6514 20.4227 82.1773 20.2234 81.683 20.2234C81.1887 20.2234 80.7146 20.4227 80.3651 20.7776C80.0156 21.1324 79.8192 21.6137 79.8192 22.1155C79.8192 22.6174 80.0156 23.0986 80.3651 23.4535C80.7146 23.8083 81.1887 24.0077 81.683 24.0077C82.1773 24.0077 82.6514 23.8083 83.0009 23.4535C83.3504 23.0986 83.5468 22.6174 83.5468 22.1155ZM88.7756 25.7638H86.9279V18.5376H88.7756V20.2445C89.1405 18.9268 89.9857 18.3688 90.7941 18.3688C91.2024 18.3582 91.6069 18.45 91.9719 18.636L91.6486 20.343C91.3049 20.1987 90.9349 20.1299 90.5631 20.1413C89.2975 20.1413 88.7756 21.2902 88.7756 23.2175V25.7638ZM95.4824 18.5235H96.9975V20.0428H95.4778V25.7826H93.6302V20.0569H92.3322V18.5376H93.6302V15.7709H95.4778L95.4824 18.5235Z" fill="black"/>
</g>
<defs>
<clipPath id="clip0_247_4186">
<rect width="97" height="28" fill="white"/>
</clipPath>
</defs>
</svg>
