<svg width="87" height="9" viewBox="0 0 87 9" fill="none" xmlns="http://www.w3.org/2000/svg">
<g clip-path="url(#clip0_247_4132)">
<path d="M1.89131 5.90514C1.88568 6.20358 1.96097 6.49816 2.10954 6.75889C2.26546 6.98251 2.46285 7.17556 2.69148 7.32806C2.94658 7.50659 3.25078 7.60576 3.56439 7.61265C3.89996 7.6743 4.24165 7.69817 4.58278 7.68379C4.92728 7.68186 5.2699 7.63398 5.60118 7.5415C5.85922 7.49034 6.10566 7.39392 6.3286 7.25692C6.42203 7.22929 6.50882 7.18356 6.58381 7.12245C6.65879 7.06134 6.72043 6.98609 6.76506 6.90119C6.84575 6.7714 6.89547 6.62549 6.91054 6.47431C6.93185 6.34109 6.91608 6.20472 6.86487 6.07953C6.81367 5.95433 6.72894 5.84494 6.61957 5.76285C6.41768 5.61754 6.19768 5.498 5.96489 5.40711C5.60118 5.33597 5.16472 5.19368 4.65552 5.12253C4.14633 4.98024 3.56439 4.90909 2.80059 4.69565C2.3976 4.63061 2.00586 4.51088 1.63671 4.33992C1.38255 4.19087 1.13947 4.02445 0.909287 3.8419C0.760725 3.64444 0.638503 3.42927 0.545575 3.20158C0.487317 2.98104 0.462803 2.75327 0.472832 2.52569C0.446817 2.14831 0.549116 1.7731 0.763802 1.4585C1.0007 1.14523 1.29707 0.879525 1.63671 0.675889C2.02966 0.467387 2.44421 0.300436 2.87333 0.177866C3.3628 0.0684002 3.86254 0.00879391 4.36455 0C4.8887 0.010449 5.41139 0.0580042 5.92852 0.142292C6.38866 0.27489 6.82891 0.466264 7.23788 0.711462C7.59709 0.920403 7.89716 1.21389 8.11079 1.56522C8.31703 1.90966 8.41801 2.30471 8.40176 2.70356H6.5832C6.59092 2.47341 6.53397 2.24559 6.41854 2.04489C6.30311 1.84418 6.13363 1.67828 5.92852 1.56522C5.42326 1.31106 4.85957 1.18855 4.29181 1.20949C4.07107 1.19792 3.84989 1.22195 3.63713 1.28063C3.41258 1.29386 3.19159 1.34189 2.98245 1.42292C2.76422 1.56522 2.61873 1.63636 2.54599 1.77866C2.40023 1.93334 2.32193 2.13754 2.32776 2.34783C2.33473 2.48458 2.37065 2.61843 2.43326 2.7409C2.49587 2.86337 2.5838 2.97179 2.69148 3.05929C2.97617 3.24434 3.29903 3.36579 3.63713 3.41502C3.78025 3.45096 3.92628 3.47476 4.07358 3.48617L4.94649 3.6996C5.31021 3.77075 5.60118 3.8419 5.96489 3.91304C6.18019 3.97253 6.39877 4.02003 6.61957 4.05534C6.95021 4.13018 7.26852 4.24992 7.56522 4.41107C7.80982 4.54096 8.03098 4.7092 8.2199 4.90909C8.38325 5.0969 8.50687 5.31454 8.58362 5.54941C8.66648 5.75396 8.71558 5.9701 8.7291 6.18972C8.73077 6.61891 8.60437 7.03925 8.36539 7.39921C8.12441 7.75358 7.80015 8.04633 7.41974 8.25296C6.98128 8.47294 6.5172 8.64016 6.03763 8.75099C5.5205 8.83528 4.99782 8.88283 4.47367 8.89328C3.87728 8.8798 3.28221 8.83228 2.69148 8.75099C2.21107 8.58086 1.74829 8.36646 1.30937 8.11067C0.925584 7.87765 0.601968 7.56114 0.363718 7.18577C0.124369 6.77377 -0.000993024 6.30785 5.92365e-06 5.83399H1.89131V5.90514ZM33.9344 5.90514C33.9287 6.20358 34.004 6.49816 34.1526 6.75889C34.3085 6.98251 34.5059 7.17556 34.7345 7.32806C34.9896 7.50659 35.2938 7.60576 35.6074 7.61265C35.943 7.6743 36.2847 7.69817 36.6258 7.68379C36.9703 7.68186 37.313 7.63398 37.6442 7.5415C37.9023 7.49034 38.1487 7.39392 38.3717 7.25692C38.5138 7.13298 38.6364 6.98912 38.7354 6.83004C38.8265 6.6789 38.8766 6.50745 38.8809 6.33202C38.9022 6.1988 38.8864 6.06243 38.8352 5.93723C38.784 5.81204 38.6993 5.70265 38.5899 5.62055C38.4249 5.46176 38.2262 5.34033 38.0079 5.26482C37.5842 5.12092 37.1448 5.02542 36.6986 4.98024C36.1894 4.90909 35.6074 4.7668 34.8437 4.62451C34.4433 4.54884 34.0529 4.42952 33.6798 4.26877C33.4256 4.11973 33.1825 3.95331 32.9523 3.77075C32.8038 3.57329 32.6816 3.35812 32.5886 3.13043C32.5058 2.92588 32.4567 2.70975 32.4431 2.49012C32.4513 2.08458 32.5775 1.68972 32.8069 1.35178C33.0235 1.02125 33.3243 0.751546 33.6798 0.56917C34.0616 0.353673 34.4808 0.208957 34.9164 0.142292C35.4256 0.142292 35.862 0.0711462 36.4076 0.0711462C36.9559 0.0816501 37.5028 0.129194 38.0443 0.213439C38.5009 0.323561 38.941 0.490956 39.3537 0.711462C39.7129 0.920403 40.013 1.21389 40.2266 1.56522C40.4328 1.90966 40.5338 2.30471 40.5176 2.70356H38.5899C38.5846 2.46735 38.5142 2.23691 38.3862 2.03656C38.2582 1.83621 38.0772 1.67337 37.8625 1.56522C37.3542 1.31933 36.7927 1.19728 36.2258 1.20949C36.005 1.19792 35.7838 1.22195 35.5711 1.28063C35.3528 1.35178 35.1346 1.35178 34.9164 1.42292C34.823 1.45055 34.7362 1.49628 34.6612 1.55739C34.5862 1.61851 34.5246 1.69376 34.4799 1.77866C34.4089 1.84132 34.3527 1.91829 34.315 2.00427C34.2773 2.09024 34.2591 2.18318 34.2617 2.27668C34.2687 2.41343 34.3046 2.54728 34.3672 2.66975C34.4298 2.79222 34.5177 2.90064 34.6254 2.98814C34.9101 3.17319 35.233 3.29464 35.5711 3.34387C35.7142 3.37981 35.8602 3.40361 36.0075 3.41502C36.2985 3.48617 36.5895 3.55731 36.9532 3.62846C37.3169 3.6996 37.6079 3.77075 37.9716 3.8419C38.1869 3.90138 38.4055 3.94889 38.6263 3.98419C38.99 4.19763 39.3537 4.33992 39.5719 4.48221C39.8035 4.63066 40.0225 4.79721 40.2266 4.98024C40.3752 5.17769 40.4974 5.39287 40.5903 5.62055C40.6732 5.82511 40.7223 6.04124 40.7358 6.26087C40.7375 6.69006 40.6111 7.11039 40.3721 7.47036C40.1311 7.82472 39.8068 8.11748 39.4264 8.32411C38.988 8.54408 38.5239 8.71131 38.0443 8.82213C37.5272 8.90642 37.0045 8.95398 36.4804 8.96443C35.884 8.95094 35.2889 8.90343 34.6982 8.82213C34.2046 8.72014 33.7355 8.52696 33.3161 8.25296C32.9323 8.01994 32.6087 7.70343 32.3704 7.32806C32.1311 6.91607 32.0057 6.45014 32.0067 5.97628L33.9344 5.90514ZM9.96572 0.213439H11.7479V5.19368C11.736 5.48011 11.7604 5.76688 11.8207 6.04743C11.8474 6.34241 11.9565 6.62453 12.1361 6.86294C12.3157 7.10135 12.5589 7.28687 12.8391 7.39921C13.256 7.55707 13.7016 7.62971 14.1484 7.61265C14.5956 7.63669 15.0427 7.5638 15.4578 7.39921C15.743 7.2687 15.9924 7.07359 16.1852 6.83004C16.3254 6.58655 16.4237 6.32215 16.4762 6.04743C16.4762 5.76285 16.5489 5.47826 16.5489 5.19368V0.213439H18.3311V5.6917C18.3509 6.19335 18.2513 6.69264 18.0401 7.1502C17.8309 7.54316 17.5323 7.88392 17.1672 8.14625C16.7789 8.44303 16.3336 8.66075 15.8579 8.78656C14.7368 9.07112 13.56 9.07112 12.439 8.78656C11.9632 8.66075 11.518 8.44303 11.1296 8.14625C10.781 7.86704 10.4855 7.52985 10.2567 7.1502C10.0385 6.69486 9.93853 6.19388 9.96572 5.6917V0.213439ZM20.4406 0.213439H22.2228V8.78656H20.4406V0.213439ZM23.4595 0.213439H31.7157V1.49407H28.4787V8.78656H26.6965V1.52964H23.4595V0.213439ZM42.4816 0.213439H44.2638V5.19368C44.2518 5.48011 44.2763 5.76688 44.3365 6.04743C44.3633 6.34241 44.4724 6.62453 44.652 6.86294C44.8316 7.10135 45.0748 7.28687 45.3549 7.39921C46.2036 7.68379 47.125 7.68379 47.9737 7.39921C48.2589 7.2687 48.5083 7.07359 48.7011 6.83004C48.8413 6.58655 48.9396 6.32215 48.9921 6.04743C48.9921 5.76285 49.0648 5.47826 49.0648 5.19368V0.213439H50.847V5.6917C50.8668 6.19335 50.7672 6.69264 50.556 7.1502C50.3567 7.54963 50.0562 7.89253 49.6831 8.14625C49.2947 8.44303 48.8495 8.66075 48.3738 8.78656C47.2527 9.07112 46.0759 9.07112 44.9549 8.78656C44.4791 8.66075 44.0339 8.44303 43.6455 8.14625C43.2969 7.86704 43.0014 7.52985 42.7726 7.1502C42.5544 6.69486 42.4544 6.19388 42.4816 5.6917V0.213439ZM53.2839 0.213439H57.7939C58.4019 0.182509 59.0097 0.279556 59.5761 0.498024C59.9601 0.634487 60.3081 0.85327 60.5945 1.13834C60.8319 1.3788 61.0065 1.67164 61.1037 1.99209C61.1875 2.26983 61.2364 2.55653 61.2492 2.84585C61.2364 3.13517 61.1875 3.42187 61.1037 3.6996C60.9899 4.01276 60.8172 4.30233 60.5945 4.55336C60.3279 4.86131 59.9732 5.08429 59.5761 5.19368C59.0022 5.38413 58.4 5.48029 57.7939 5.47826H55.0661V8.78656H53.2839V0.213439ZM55.0661 4.2332H57.7212C57.9181 4.24939 58.1163 4.22516 58.3031 4.16206C58.5014 4.10275 58.6958 4.03147 58.885 3.94862C59.0305 3.87747 59.176 3.66403 59.3215 3.52174C59.412 3.31956 59.4614 3.10207 59.467 2.88142C59.4609 2.63782 59.4117 2.3971 59.3215 2.16996C59.2933 2.07858 59.2465 1.99369 59.184 1.92036C59.1215 1.84702 59.0446 1.78673 58.9578 1.74308C58.7685 1.66023 58.5742 1.58895 58.3758 1.52964C58.1631 1.47097 57.9419 1.44693 57.7212 1.4585H55.0661V4.2332ZM62.8131 0.213439H67.3232C67.9312 0.182509 68.5389 0.279556 69.1054 0.498024C69.4801 0.65222 69.8247 0.868875 70.1237 1.13834C70.3611 1.3788 70.5358 1.67164 70.6329 1.99209C70.7731 2.256 70.8479 2.54846 70.8512 2.84585C70.8381 3.11184 70.7892 3.37498 70.7057 3.62846C70.5919 3.94161 70.4192 4.23118 70.1965 4.48221C69.9299 4.79017 69.5752 5.01315 69.1781 5.12253C68.6042 5.31298 68.002 5.40914 67.3959 5.40711H64.6681V8.71542H62.8859V0.213439H62.8131ZM64.6317 4.2332H67.2868C67.4837 4.24939 67.6819 4.22516 67.8687 4.16206C68.067 4.10275 68.2614 4.03147 68.4507 3.94862C68.5962 3.87747 68.7416 3.66403 68.8871 3.52174C68.9777 3.31956 69.0271 3.10207 69.0326 2.88142C69.0266 2.63782 68.9773 2.3971 68.8871 2.16996C68.8589 2.07858 68.8121 1.99369 68.7496 1.92036C68.6872 1.84702 68.6102 1.78673 68.5234 1.74308C68.3341 1.66023 68.1398 1.58895 67.9415 1.52964C67.7287 1.47097 67.5075 1.44693 67.2868 1.4585H64.6317V4.2332ZM72.3788 0.213439H74.161V7.50593H79.3984V8.78656H72.4151L72.3788 0.213439ZM81.3625 5.40711L77.5435 0.213439H79.6166L82.3445 4.01976L84.9996 0.213439H87L83.181 5.40711V8.78656H81.3988V5.40711H81.3625Z" fill="#2D2E2C"/>
</g>
<defs>
<clipPath id="clip0_247_4132">
<rect width="87" height="9" fill="white"/>
</clipPath>
</defs>
</svg>
