<svg width="103" height="15" viewBox="0 0 103 15" fill="none" xmlns="http://www.w3.org/2000/svg">
<g clip-path="url(#clip0_247_4194)">
<path d="M3.70804 1.08014C3.39904 0.958185 3.14154 0.818812 2.83254 0.818812C1.32188 0.818812 4.28918e-05 2.16028 4.28918e-05 3.81533C-0.00409539 4.58383 0.291367 5.32281 0.821988 5.8711C1.35261 6.4194 2.07534 6.73251 2.83254 6.74216H3.51921L2.45488 10.3833L3.77671 10.7665L4.78954 7.5784C5.99121 8.27526 5.85388 8.08362 6.79804 8.60627V14.7387H9.80221V9.70383C9.87088 9.70383 10.3 9.77351 10.3 9.77351L11.6219 14.7561H13.9565L15.0209 10.7317H15.8449V14.7561L18.8662 14.6864V3.83275C12.9609 4.09408 9.87088 2.99652 5.59638 0L4.20588 4.33798C4.11996 4.64617 3.93812 4.91789 3.68751 5.11256C3.43689 5.30724 3.13096 5.41442 2.81538 5.41811C1.99138 5.41811 1.30471 4.65157 1.30471 3.81533C1.30829 3.40985 1.4686 3.02201 1.75113 2.73528C2.03367 2.44856 2.41583 2.28586 2.81538 2.28223C2.98426 2.271 3.15363 2.29472 3.31321 2.35192C3.33038 2.36934 3.70804 1.08014 3.70804 1.08014Z" fill="#A5A2A1"/>
<path d="M21.9375 3.83362H26.3322L27.8428 10.2796L29.3535 3.83362H33.8855V14.7395H30.8642V7.78832L29.0445 14.7395H26.6583L24.9588 7.78832H24.8387V14.7395H21.9547V3.83362H21.9375ZM38.8638 10.8545L39.8767 7.66637H39.9453L40.8208 10.8545H38.8638ZM34.5207 14.7395H37.7308L38.2287 13.2064H41.4388L41.8165 14.7395H45.1468L41.3702 3.88588H38.3488L34.5207 14.7395ZM45.8335 3.83362H50.3655L51.8075 10.2796H51.9277L53.3182 3.83362H57.8502V14.7395H54.949V7.78832H54.8288L53.0092 14.7395H50.7432L48.9235 7.78832V14.7395H45.8507V3.83362H45.8335ZM59.3608 3.83362H63.8928L65.4035 10.2796L66.9142 3.83362H71.3775V14.7395H68.4248V7.78832L66.6052 14.7395H64.219L62.3993 7.78832V14.7395H59.378L59.3608 3.83362ZM75.7722 9.44337C75.7722 7.07403 76.9738 6.51655 77.7807 6.51655C78.5875 6.51655 79.7892 7.09146 79.7892 9.44337C79.7892 11.743 78.5875 12.3702 77.7807 12.3702C76.9738 12.3702 75.7722 11.743 75.7722 9.44337ZM72.562 9.39111C72.562 12.5793 74.7078 15.0009 77.8493 15.0009C80.9908 15.0009 83.068 12.5793 83.068 9.39111C83.068 6.08101 80.9908 3.78135 77.8493 3.78135C74.6392 3.76393 72.562 5.9939 72.562 9.39111ZM84.1323 3.83362H92.6813V6.63849H87.3425V7.97996H92.1835V10.5932H87.3425V11.9347H92.8187V14.7395H84.1323V3.83362ZM96.9043 6.63849H93.9517V3.83362H102.999V6.63849H99.9257V14.7395H96.9043V6.63849Z" fill="#E3000F"/>
</g>
<defs>
<clipPath id="clip0_247_4194">
<rect width="103" height="15" fill="white"/>
</clipPath>
</defs>
</svg>
