<svg width="183" height="37" viewBox="0 0 183 37" fill="none" xmlns="http://www.w3.org/2000/svg">
<path d="M36.8376 7.2122C34.9234 7.33933 33.0069 7.75705 31.602 9.13052H31.4019V8.13617V7.65943V7.55954H25.7686V7.65943V11.2123V28.0572V28.1571H31.4019V17.3055C31.4019 16.234 31.6725 15.1556 32.2545 14.2816C32.3795 14.1136 32.5182 13.957 32.6705 13.8094C33.5162 12.9921 34.7029 12.5835 36.2328 12.5835H37.7605H39.2519V7.15771C38.4721 7.15771 37.656 7.15771 36.8376 7.2122Z" fill="#020202"/>
<path d="M148.361 28.7106C148.299 28.7106 148.242 28.7084 148.181 28.7084C148.11 28.7084 148.042 28.7106 147.972 28.7106L147.981 28.7038C145.614 28.6335 143.762 27.9002 142.425 26.4995C141.015 25.0261 140.311 22.883 140.311 20.068V7.60913H145.933C145.946 7.60913 145.946 18.4879 145.946 18.4879C145.946 19.6957 146.142 20.9534 146.96 21.8955C147.722 22.7695 148.795 23.1714 149.934 23.2258C150.959 23.2735 152.009 23.0556 152.887 22.5198C154.355 21.6231 155.001 19.9363 155.001 18.2723V7.60913H160.637V24.5539V28.1068H155.151H155.001V27.63V26.6357H154.801C154.799 26.6357 152.68 28.7106 148.361 28.7106Z" fill="#020202"/>
<path d="M102.776 7.00439C102.838 7.00439 102.894 7.00666 102.956 7.00666C103.026 7.00666 103.094 7.00439 103.165 7.00439L103.156 7.0112C105.522 7.08158 107.375 7.81486 108.712 9.21557C110.119 10.6889 110.826 12.832 110.826 15.647V28.1059H105.204C105.19 28.1059 105.19 17.2294 105.19 17.2294C105.19 16.0216 104.995 14.7639 104.174 13.8218C103.413 12.9478 102.34 12.546 101.201 12.4915C100.175 12.4438 99.1251 12.6617 98.2476 13.1975C96.779 14.0942 96.1334 15.781 96.1334 17.445V28.1059H90.5V11.1611V7.60827H95.9856H96.1357V8.08501V9.07936H96.3357C96.3357 9.07936 98.4545 7.00439 102.776 7.00439Z" fill="#020202"/>
<path d="M177.419 13.6032H177.458H182.612H182.809C182.83 13.6032 182.573 12.5363 182.532 12.4114C182.252 11.5374 181.92 10.7087 181.373 9.96412C180.306 8.51346 178.66 7.77337 176.949 7.36701C176.801 7.33296 176.651 7.2989 176.503 7.26712C174.882 6.92886 173.152 6.80854 171.508 7.04237C170.026 7.2535 168.551 7.62127 167.278 8.44081C167.105 8.55205 166.939 8.6701 166.778 8.79724C166.716 8.84491 166.657 8.89485 166.598 8.9448C165.152 10.1094 164.427 11.635 164.427 13.5215C164.427 15.1629 164.968 16.5023 166.05 17.5398C167.132 18.5773 168.753 19.2402 170.917 19.5262L172.866 19.785L174.161 19.9575C175.43 20.1301 176.31 20.3821 176.801 20.7135C177.242 21.0109 177.483 21.4445 177.526 22.0098C177.531 22.0734 177.535 22.1369 177.535 22.2028C177.535 24.4866 174.716 24.6932 173.007 24.5615C172.188 24.4979 171.363 24.2686 170.706 23.7783C170.149 23.3628 169.642 22.7363 169.417 22.0756C169.346 21.869 169.303 21.6556 169.294 21.4354C169.294 21.4354 163.618 21.4264 163.511 21.4264C163.57 21.7578 163.643 22.087 163.731 22.4094C163.94 23.1744 164.24 23.9077 164.657 24.5933C165.316 25.6739 166.223 26.5865 167.303 27.2517C168.003 27.683 168.767 28.0099 169.558 28.2301C171.754 28.8408 174.152 28.9044 176.38 28.4844C176.642 28.4345 176.905 28.3754 177.167 28.3073C178.485 28.0213 179.597 27.5491 180.5 26.8907C180.816 26.6592 181.1 26.4117 181.352 26.1438C182.382 25.0587 182.9 23.6739 182.9 21.9871C182.9 18.5023 180.752 16.4728 176.455 15.8961L173.254 15.4648C171.956 15.2923 171.054 15.0471 170.551 14.7293C170.047 14.4137 169.794 13.9801 169.794 13.433C169.794 12.5272 170.233 11.8938 171.106 11.5237C171.704 11.2718 172.504 11.1424 173.516 11.1424C175.651 11.1424 176.919 11.8484 177.324 13.2604L177.419 13.6032Z" fill="#020202"/>
<path d="M84.016 10.1395C81.9768 8.04869 79.3738 7.00439 76.2093 7.00439C73.0948 7.00439 70.4736 8.0555 68.3412 10.16C66.2088 12.2644 65.1426 14.8298 65.1426 17.856C65.1426 20.8844 66.2088 23.4497 68.3412 25.5519C70.4736 27.6564 73.0971 28.7075 76.2093 28.7075C79.8308 28.7075 82.7157 27.502 84.8617 25.0911C84.9254 25.0162 84.9799 24.9344 85.039 24.8595C85.7029 24.0309 86.2394 23.1092 86.6463 22.0876C86.6531 22.0513 86.6622 22.0127 86.669 21.9764L85.862 21.9673H79.3716C78.6418 22.6097 77.6893 23.0184 76.7367 23.1501C74.2701 23.4883 72.0445 21.9764 71.3261 19.6789H86.1916H86.9828C87.0373 19.0637 87.0555 18.6392 87.0555 18.6392C87.0623 18.4439 87.0737 17.8582 87.0737 17.8582C87.076 14.8003 86.0552 12.2281 84.016 10.1395ZM71.2988 16.1283C71.2829 16.1283 71.408 15.613 71.5807 15.2725C72.4514 13.5517 74.3883 12.4279 76.3093 12.4983C78.3713 12.5732 80.4582 14.0284 80.8697 16.1306H71.2988V16.1283Z" fill="#020202"/>
<path d="M136.02 0.0068106V0H130.384V1.40752V4.96947V6.18175V7.63468V8.27715V8.40201V8.8901H130.325H130.22C129.798 8.4792 129.079 8.00926 128.156 7.64149C127.62 7.42809 127.013 7.25102 126.353 7.13751C126.292 7.12616 126.233 7.11708 126.172 7.108C126.133 7.10119 126.092 7.09664 126.053 7.08983C125.721 7.04216 125.38 7.01265 125.026 7.0013C124.894 6.99676 124.762 7.00584 124.633 7.01038C122.327 7.07848 120.297 7.73684 118.542 8.98772C118.36 9.12847 118.183 9.27831 118.01 9.43268C117.733 9.6597 117.462 9.90261 117.199 10.1614C117.055 10.3022 116.917 10.4475 116.785 10.5928C115.337 12.393 114.58 14.4952 114.398 16.8358C114.327 17.7348 114.348 18.6225 114.468 19.4942C114.607 20.5748 114.898 21.6305 115.357 22.6543C116.36 24.8859 117.958 26.584 120.163 27.6488C120.45 27.7872 120.741 27.9144 121.041 28.0324C121.85 28.3276 122.707 28.5251 123.607 28.625C123.78 28.6431 123.955 28.659 124.132 28.6726C124.362 28.6885 124.592 28.6999 124.826 28.7021C125.171 28.6976 125.496 28.6772 125.803 28.6454C126.069 28.6181 126.322 28.5818 126.563 28.5387C126.606 28.5364 126.647 28.5341 126.69 28.5296C126.86 28.5137 127.026 28.4842 127.186 28.4343C127.245 28.4161 127.304 28.3957 127.363 28.3752C128.074 28.1823 128.64 27.9303 129.077 27.6828C129.893 27.2197 130.255 26.777 130.255 26.777H130.411V26.8951V27.2651V28.13H130.452V28.1369H130.539C130.607 28.1391 130.709 28.1391 130.837 28.1414C130.848 28.1414 130.857 28.1414 130.868 28.1414C132.18 28.155 136.068 28.1528 136.068 28.1369V27.9916V1.3485V1.21456V0.0068106H136.02ZM128.033 22.4296C127.199 22.9971 126.278 23.2945 125.36 23.2423C122.802 23.2264 120.811 21.4852 120.411 19.0424C120.397 18.9584 120.386 18.8767 120.375 18.7927C120.188 17.7166 120.288 16.5884 120.711 15.5827C120.888 15.1604 121.125 14.7631 121.411 14.4044C122.048 13.5758 122.887 13.0196 123.8 12.7358C124.767 12.4112 125.826 12.3749 126.824 12.6972C126.885 12.7177 126.945 12.7381 127.004 12.7608C127.592 12.9787 128.111 13.3147 128.552 13.7324C128.959 14.0911 129.316 14.5293 129.6 15.0469C131.007 17.6077 130.32 20.8699 128.033 22.4296Z" fill="#020202"/>
<path d="M21.6647 27.9339V23.1914V16.4626V10.8529V7.88347V7.73364V7.58834C21.6647 7.57018 16.8792 7.57018 16.1359 7.58834H16.0495V8.82333V8.91414L15.8494 8.91641C15.031 8.11503 13.1009 7.09344 10.6866 7.0276C10.5547 7.02306 10.4229 7.03215 10.2933 7.03669C6.63775 7.14339 3.04129 8.98906 1.30671 12.2945C0.567869 13.7043 0.16321 15.2639 0.0404488 16.8439C-0.0300254 17.7429 -0.00956512 18.6306 0.110923 19.5024C0.249598 20.583 0.540589 21.6386 0.999808 22.6625C2.5025 26.0087 5.6261 28.2358 9.27485 28.6308C11.2868 28.8465 13.5283 28.5763 15.2129 27.3777C15.5652 27.128 15.7744 26.9191 15.8562 26.8306L16.0313 26.8328V27.3209V27.4458V28.0882V29.5412V30.7535V31.9431H3.28681V36.7468H21.6624C21.6624 36.7468 21.6624 34.9783 21.6647 34.9783C21.6669 34.9783 21.6647 30.7103 21.6647 30.4674V27.9339ZM13.6693 22.4309C12.8349 22.9985 11.9142 23.2959 10.9958 23.2436C8.43825 23.2278 6.44678 21.4865 6.04667 19.0438C6.03303 18.9598 6.02166 18.878 6.0103 18.7941C5.82161 17.718 5.92391 16.5897 6.34676 15.584C6.52408 15.1617 6.76051 14.7644 7.04695 14.4058C7.68122 13.5771 8.52236 13.0209 9.43625 12.7372C10.4024 12.4125 11.4618 12.3762 12.4598 12.6986C12.5212 12.719 12.5803 12.7394 12.6394 12.7621C13.2282 12.9801 13.7465 13.3161 14.1876 13.7338C14.5945 14.0925 14.9514 14.5306 15.2356 15.0482C16.6428 17.609 15.9563 20.8713 13.6693 22.4309Z" fill="#020202"/>
<path d="M62.5432 31.9141H40.8076V36.7632H62.5432V31.9141Z" fill="#020202"/>
<path d="M43.9471 25.5244C41.8534 23.3949 40.8076 20.8432 40.8076 17.867C40.8076 14.893 41.8534 12.3413 43.9471 10.2096C46.0386 8.08018 48.6143 7.01318 51.6743 7.01318C54.732 7.01318 57.3077 8.08018 59.4014 10.2096C61.4929 12.3413 62.541 14.893 62.541 17.867C62.541 20.841 61.4929 23.3949 59.4014 25.5244C57.3077 27.6538 54.732 28.7208 51.6743 28.7208C48.6143 28.7208 46.0409 27.6538 43.9471 25.5244Z" fill="#006EFF"/>
</svg>
