<?xml version="1.0" encoding="UTF-8"?>
<!-- Generator: Adobe Illustrator 26.0.2, SVG Export Plug-In . SVG Version: 6.00 Build 0)  -->
<svg xmlns="http://www.w3.org/2000/svg" xmlns:xlink="http://www.w3.org/1999/xlink" version="1.1" id="Laag_1" x="0px" y="0px" viewBox="0 0 1920 1080" style="enable-background:new 0 0 1920 1080;" xml:space="preserve">
<style type="text/css">
	.st0{fill:#6FB0FB;}
	.st1{fill:#F96023;}
	.st2{fill:#FFFFFF;}
	.st3{fill:#FA8C5A;}
	.st4{fill:#FCA886;}
	.st5{fill:#01499F;}
	.st6{fill:#006EFF;}
	.st7{fill:#141414;}
	.st8{fill:#020202;}
	.st9{fill:#E0E0E0;}
	.st10{fill:#311E69;}
	.st11{fill:#F4F4F4;}
	.st12{fill:#1E1240;}
</style>
<path class="st0" d="M1578.3,831.3c18.6-6.6,33.6-14.6,43.8-23.9c44.9-40.8-24.6-29.9-145.7-111c-45.4-30.4-90.3-45-131.4-48.1  c-2.8-2.6-5.7-5.3-8.7-8.1c-87.4-83.2-171.9-47.9-207.4,16.1c-17.8-2.9-35.7-4-52.9-3.4c-14.9-4-30.1-8.2-45.7-12.7  C712.5,548.6,406.2,601,315.5,677c-47,39.4-29.2,62.6,43.1,78.9c-12.3,8.8-23,17.9-32,27.2c-106.8,110.8,57.9,137.8,415.9,169.1  c358,31.3,752.2,6.3,880.4-55.8C1690.9,863.5,1667.1,852.6,1578.3,831.3z"></path>
<path class="st1" d="M429.7,756.4c0,0-144-227.6-119.7-274.5c24.3-46.9,101.5,108.6,101.5,108.6s-85.1-272.6-59.4-302.5  c25.8-29.9,72,89.1,72,89.1s-29.2-174.6,7.5-177.4c36.6-2.8,65.4,230.9,75.7,302.1C517.4,573,581.4,766.2,429.7,756.4z"></path>
<g>
	<g>
		<polygon class="st2" points="651.7,847.9 544.8,847.6 688.8,757.4 764.4,757.6   "></polygon>
	</g>
	<g>
		<polygon class="st2" points="1080.8,849.3 973.3,849 991.5,758.2 1067.4,758.4   "></polygon>
	</g>
	<g>
		<polygon class="st2" points="1512.5,850.7 1404.3,850.3 1295.4,759 1371.6,759.2   "></polygon>
	</g>
	<g>
		<polygon class="st2" points="1296.3,850 1188.5,849.6 1143.3,758.6 1219.3,758.8   "></polygon>
	</g>
	<g>
		<polygon class="st2" points="865.9,848.6 758.7,848.3 840,757.8 915.7,758   "></polygon>
	</g>
	<g>
		<polygon class="st2" points="438,847.2 331.4,846.9 537.9,757 613.3,757.2   "></polygon>
	</g>
</g>
<g>
	<g>
		<g>
			<polygon class="st3" points="718.1,680.4 935.5,680.4 935.5,145.3 888,116.3    "></polygon>
			<polygon class="st4" points="672.8,680.4 890.2,680.4 890.2,115.7 672.8,145.3    "></polygon>
			
				<rect x="699.5" y="159.7" transform="matrix(-1 -1.224647e-16 1.224647e-16 -1 1548.1893 329.9622)" class="st3" width="149.1" height="10.6"></rect>
			
				<rect x="699.5" y="206.1" transform="matrix(-1 -1.224647e-16 1.224647e-16 -1 1548.1893 422.6805)" class="st3" width="149.1" height="10.6"></rect>
			
				<rect x="699.5" y="252.4" transform="matrix(-1 -1.224647e-16 1.224647e-16 -1 1548.1893 515.3986)" class="st3" width="149.1" height="10.6"></rect>
			
				<rect x="699.5" y="298.8" transform="matrix(-1 -1.224647e-16 1.224647e-16 -1 1548.1893 608.1169)" class="st3" width="149.1" height="10.6"></rect>
			
				<rect x="699.5" y="345.1" transform="matrix(-1 -1.224647e-16 1.224647e-16 -1 1548.1893 700.835)" class="st3" width="149.1" height="10.6"></rect>
			
				<rect x="699.5" y="391.5" transform="matrix(-1 -1.224647e-16 1.224647e-16 -1 1548.1893 793.553)" class="st3" width="149.1" height="10.6"></rect>
			
				<rect x="699.5" y="437.9" transform="matrix(-1 -1.224647e-16 1.224647e-16 -1 1548.1893 886.2714)" class="st3" width="149.1" height="10.6"></rect>
			
				<rect x="699.5" y="484.2" transform="matrix(-1 -1.224647e-16 1.224647e-16 -1 1548.1893 978.9894)" class="st3" width="149.1" height="10.6"></rect>
			
				<rect x="699.5" y="530.6" transform="matrix(-1 -1.224647e-16 1.224647e-16 -1 1548.1893 1071.7075)" class="st3" width="149.1" height="10.6"></rect>
		</g>
		<g>
			<polygon class="st3" points="565.2,639.5 681.3,639.5 681.3,232 655.9,209.9    "></polygon>
			<polygon class="st4" points="540.9,639.5 657.1,639.5 657.1,209.5 540.9,232    "></polygon>
			
				<rect x="555.2" y="243" transform="matrix(-1 -1.224647e-16 1.224647e-16 -1 1190.1461 494.0292)" class="st1" width="79.7" height="8"></rect>
			
				<rect x="555.2" y="278.3" transform="matrix(-1 -1.224647e-16 1.224647e-16 -1 1190.1461 564.629)" class="st1" width="79.7" height="8"></rect>
			
				<rect x="555.2" y="313.6" transform="matrix(-1 -1.224647e-16 1.224647e-16 -1 1190.1461 635.2289)" class="st1" width="79.7" height="8"></rect>
			
				<rect x="555.2" y="348.9" transform="matrix(-1 -1.224647e-16 1.224647e-16 -1 1190.1461 705.8289)" class="st1" width="79.7" height="8"></rect>
			
				<rect x="555.2" y="384.2" transform="matrix(-1 -1.224647e-16 1.224647e-16 -1 1190.1461 776.4287)" class="st1" width="79.7" height="8"></rect>
			
				<rect x="555.2" y="419.5" transform="matrix(-1 -1.224647e-16 1.224647e-16 -1 1190.1461 847.0286)" class="st1" width="79.7" height="8"></rect>
			
				<rect x="555.2" y="454.8" transform="matrix(-1 -1.224647e-16 1.224647e-16 -1 1190.1461 917.6285)" class="st1" width="79.7" height="8"></rect>
			
				<rect x="555.2" y="490.1" transform="matrix(-1 -1.224647e-16 1.224647e-16 -1 1190.1461 988.2284)" class="st1" width="79.7" height="8"></rect>
			
				<rect x="555.2" y="525.4" transform="matrix(-1 -1.224647e-16 1.224647e-16 -1 1190.1461 1058.8281)" class="st1" width="79.7" height="8"></rect>
		</g>
		<g>
			
				<rect x="894.5" y="164.6" transform="matrix(-1 -1.224647e-16 1.224647e-16 -1 2308.666 843.7211)" class="st1" width="519.7" height="514.4"></rect>
			
				<rect x="837.3" y="164.6" transform="matrix(-1 -1.224647e-16 1.224647e-16 -1 2194.2307 843.7211)" class="st3" width="519.7" height="514.4"></rect>
			
				<rect x="1256.7" y="238.5" transform="matrix(-1 -1.224647e-16 1.224647e-16 -1 2544.7339 520.4186)" class="st4" width="31.4" height="43.5"></rect>
			
				<rect x="1183.4" y="238.5" transform="matrix(-1 -1.224647e-16 1.224647e-16 -1 2398.1299 520.4186)" class="st4" width="31.4" height="43.5"></rect>
			
				<rect x="1110.1" y="238.5" transform="matrix(-1 -1.224647e-16 1.224647e-16 -1 2251.5266 520.4186)" class="st4" width="31.4" height="43.5"></rect>
			
				<rect x="1036.8" y="238.5" transform="matrix(-1 -1.224647e-16 1.224647e-16 -1 2104.9224 520.4186)" class="st4" width="31.4" height="43.5"></rect>
			
				<rect x="963.5" y="238.5" transform="matrix(-1 -1.224647e-16 1.224647e-16 -1 1958.3186 520.4186)" class="st4" width="31.4" height="43.5"></rect>
			
				<rect x="890.1" y="238.5" transform="matrix(-1 -1.224647e-16 1.224647e-16 -1 1811.715 520.4186)" class="st4" width="31.4" height="43.5"></rect>
			
				<rect x="1256.7" y="310.9" transform="matrix(-1 -1.224647e-16 1.224647e-16 -1 2544.7339 665.267)" class="st4" width="31.4" height="43.5"></rect>
			
				<rect x="1183.4" y="310.9" transform="matrix(-1 -1.224647e-16 1.224647e-16 -1 2398.1299 665.267)" class="st4" width="31.4" height="43.5"></rect>
			
				<rect x="1110.1" y="310.9" transform="matrix(-1 -1.224647e-16 1.224647e-16 -1 2251.5266 665.267)" class="st4" width="31.4" height="43.5"></rect>
			
				<rect x="1036.8" y="310.9" transform="matrix(-1 -1.224647e-16 1.224647e-16 -1 2104.9224 665.267)" class="st4" width="31.4" height="43.5"></rect>
			
				<rect x="963.5" y="310.9" transform="matrix(-1 -1.224647e-16 1.224647e-16 -1 1958.3186 665.267)" class="st4" width="31.4" height="43.5"></rect>
			
				<rect x="890.1" y="310.9" transform="matrix(-1 -1.224647e-16 1.224647e-16 -1 1811.715 665.267)" class="st4" width="31.4" height="43.5"></rect>
			
				<rect x="1256.7" y="383.3" transform="matrix(-1 -1.224647e-16 1.224647e-16 -1 2544.7339 810.1151)" class="st4" width="31.4" height="43.5"></rect>
			
				<rect x="1183.4" y="383.3" transform="matrix(-1 -1.224647e-16 1.224647e-16 -1 2398.1299 810.1151)" class="st4" width="31.4" height="43.5"></rect>
			
				<rect x="1110.1" y="383.3" transform="matrix(-1 -1.224647e-16 1.224647e-16 -1 2251.5266 810.1151)" class="st4" width="31.4" height="43.5"></rect>
			
				<rect x="1036.8" y="383.3" transform="matrix(-1 -1.224647e-16 1.224647e-16 -1 2104.9224 810.1151)" class="st4" width="31.4" height="43.5"></rect>
			
				<rect x="963.5" y="383.3" transform="matrix(-1 -1.224647e-16 1.224647e-16 -1 1958.3186 810.1151)" class="st4" width="31.4" height="43.5"></rect>
			
				<rect x="890.1" y="383.3" transform="matrix(-1 -1.224647e-16 1.224647e-16 -1 1811.715 810.1151)" class="st4" width="31.4" height="43.5"></rect>
			
				<rect x="1256.7" y="455.8" transform="matrix(-1 -1.224647e-16 1.224647e-16 -1 2544.7339 954.9631)" class="st4" width="31.4" height="43.5"></rect>
			
				<rect x="1183.4" y="455.8" transform="matrix(-1 -1.224647e-16 1.224647e-16 -1 2398.1299 954.9631)" class="st4" width="31.4" height="43.5"></rect>
			
				<rect x="1110.1" y="455.8" transform="matrix(-1 -1.224647e-16 1.224647e-16 -1 2251.5266 954.9631)" class="st4" width="31.4" height="43.5"></rect>
			
				<rect x="1036.8" y="455.8" transform="matrix(-1 -1.224647e-16 1.224647e-16 -1 2104.9224 954.9631)" class="st4" width="31.4" height="43.5"></rect>
			
				<rect x="963.5" y="455.8" transform="matrix(-1 -1.224647e-16 1.224647e-16 -1 1958.3186 954.9631)" class="st4" width="31.4" height="43.5"></rect>
			
				<rect x="890.1" y="455.8" transform="matrix(-1 -1.224647e-16 1.224647e-16 -1 1811.715 954.9631)" class="st4" width="31.4" height="43.5"></rect>
			
				<rect x="1256.7" y="528.2" transform="matrix(-1 -1.224647e-16 1.224647e-16 -1 2544.7339 1099.8112)" class="st4" width="31.4" height="43.5"></rect>
			
				<rect x="1183.4" y="528.2" transform="matrix(-1 -1.224647e-16 1.224647e-16 -1 2398.1299 1099.8112)" class="st4" width="31.4" height="43.5"></rect>
			
				<rect x="1110.1" y="528.2" transform="matrix(-1 -1.224647e-16 1.224647e-16 -1 2251.5266 1099.8112)" class="st4" width="31.4" height="43.5"></rect>
			
				<rect x="1036.8" y="528.2" transform="matrix(-1 -1.224647e-16 1.224647e-16 -1 2104.9224 1099.8112)" class="st4" width="31.4" height="43.5"></rect>
			
				<rect x="963.5" y="528.2" transform="matrix(-1 -1.224647e-16 1.224647e-16 -1 1958.3186 1099.8112)" class="st4" width="31.4" height="43.5"></rect>
			
				<rect x="890.1" y="528.2" transform="matrix(-1 -1.224647e-16 1.224647e-16 -1 1811.715 1099.8112)" class="st4" width="31.4" height="43.5"></rect>
			
				<rect x="1256.7" y="600.6" transform="matrix(-1 -1.224647e-16 1.224647e-16 -1 2544.7339 1244.6593)" class="st4" width="31.4" height="43.5"></rect>
			
				<rect x="1183.4" y="600.6" transform="matrix(-1 -1.224647e-16 1.224647e-16 -1 2398.1299 1244.6593)" class="st4" width="31.4" height="43.5"></rect>
			
				<rect x="1110.1" y="600.6" transform="matrix(-1 -1.224647e-16 1.224647e-16 -1 2251.5266 1244.6593)" class="st4" width="31.4" height="43.5"></rect>
			
				<rect x="1036.8" y="600.6" transform="matrix(-1 -1.224647e-16 1.224647e-16 -1 2104.9224 1244.6593)" class="st4" width="31.4" height="43.5"></rect>
			
				<rect x="963.5" y="600.6" transform="matrix(-1 -1.224647e-16 1.224647e-16 -1 1958.3186 1244.6593)" class="st4" width="31.4" height="43.5"></rect>
			
				<rect x="890.1" y="600.6" transform="matrix(-1 -1.224647e-16 1.224647e-16 -1 1811.715 1244.6593)" class="st4" width="31.4" height="43.5"></rect>
		</g>
	</g>
	<g>
		
			<rect x="1260.7" y="469.6" transform="matrix(-1 -1.224647e-16 1.224647e-16 -1 2733.1567 1170.4757)" class="st3" width="211.8" height="231.3"></rect>
		
			<rect x="1202.5" y="469.6" transform="matrix(-1 -1.224647e-16 1.224647e-16 -1 2616.8186 1170.4757)" class="st4" width="211.8" height="231.3"></rect>
		<g>
			
				<rect x="1363.2" y="500.9" transform="matrix(-1 -1.224647e-16 1.224647e-16 -1 2752.1223 1017.7316)" class="st3" width="25.8" height="15.9"></rect>
			
				<rect x="1318" y="500.9" transform="matrix(-1 -1.224647e-16 1.224647e-16 -1 2661.7893 1017.7316)" class="st3" width="25.8" height="15.9"></rect>
			
				<rect x="1272.8" y="500.9" transform="matrix(-1 -1.224647e-16 1.224647e-16 -1 2571.4565 1017.7316)" class="st3" width="25.8" height="15.9"></rect>
			
				<rect x="1227.7" y="500.9" transform="matrix(-1 -1.224647e-16 1.224647e-16 -1 2481.1238 1017.7316)" class="st3" width="25.8" height="15.9"></rect>
		</g>
		<g>
			
				<rect x="1363.2" y="528.5" transform="matrix(-1 -1.224647e-16 1.224647e-16 -1 2752.1223 1072.8682)" class="st3" width="25.8" height="15.9"></rect>
			
				<rect x="1318" y="528.5" transform="matrix(-1 -1.224647e-16 1.224647e-16 -1 2661.7893 1072.8682)" class="st3" width="25.8" height="15.9"></rect>
			
				<rect x="1272.8" y="528.5" transform="matrix(-1 -1.224647e-16 1.224647e-16 -1 2571.4565 1072.8682)" class="st3" width="25.8" height="15.9"></rect>
			
				<rect x="1227.7" y="528.5" transform="matrix(-1 -1.224647e-16 1.224647e-16 -1 2481.1238 1072.8682)" class="st3" width="25.8" height="15.9"></rect>
		</g>
		<g>
			
				<rect x="1363.2" y="556" transform="matrix(-1 -1.224647e-16 1.224647e-16 -1 2752.1223 1128.0046)" class="st3" width="25.8" height="15.9"></rect>
			
				<rect x="1318" y="556" transform="matrix(-1 -1.224647e-16 1.224647e-16 -1 2661.7893 1128.0046)" class="st3" width="25.8" height="15.9"></rect>
			
				<rect x="1272.8" y="556" transform="matrix(-1 -1.224647e-16 1.224647e-16 -1 2571.4565 1128.0046)" class="st3" width="25.8" height="15.9"></rect>
			
				<rect x="1227.7" y="556" transform="matrix(-1 -1.224647e-16 1.224647e-16 -1 2481.1238 1128.0046)" class="st3" width="25.8" height="15.9"></rect>
		</g>
		<g>
			
				<rect x="1363.2" y="583.6" transform="matrix(-1 -1.224647e-16 1.224647e-16 -1 2752.1223 1183.1412)" class="st3" width="25.8" height="15.9"></rect>
			
				<rect x="1318" y="583.6" transform="matrix(-1 -1.224647e-16 1.224647e-16 -1 2661.7893 1183.1412)" class="st3" width="25.8" height="15.9"></rect>
			
				<rect x="1272.8" y="583.6" transform="matrix(-1 -1.224647e-16 1.224647e-16 -1 2571.4565 1183.1412)" class="st3" width="25.8" height="15.9"></rect>
			
				<rect x="1227.7" y="583.6" transform="matrix(-1 -1.224647e-16 1.224647e-16 -1 2481.1238 1183.1412)" class="st3" width="25.8" height="15.9"></rect>
		</g>
		<g>
			
				<rect x="1363.2" y="611.2" transform="matrix(-1 -1.224647e-16 1.224647e-16 -1 2752.1223 1238.2777)" class="st3" width="25.8" height="15.9"></rect>
			
				<rect x="1318" y="611.2" transform="matrix(-1 -1.224647e-16 1.224647e-16 -1 2661.7893 1238.2777)" class="st3" width="25.8" height="15.9"></rect>
			
				<rect x="1272.8" y="611.2" transform="matrix(-1 -1.224647e-16 1.224647e-16 -1 2571.4565 1238.2777)" class="st3" width="25.8" height="15.9"></rect>
			
				<rect x="1227.7" y="611.2" transform="matrix(-1 -1.224647e-16 1.224647e-16 -1 2481.1238 1238.2777)" class="st3" width="25.8" height="15.9"></rect>
		</g>
		<g>
			
				<rect x="1363.2" y="638.7" transform="matrix(-1 -1.224647e-16 1.224647e-16 -1 2752.1223 1293.4143)" class="st3" width="25.8" height="15.9"></rect>
			
				<rect x="1318" y="638.7" transform="matrix(-1 -1.224647e-16 1.224647e-16 -1 2661.7893 1293.4143)" class="st3" width="25.8" height="15.9"></rect>
			
				<rect x="1272.8" y="638.7" transform="matrix(-1 -1.224647e-16 1.224647e-16 -1 2571.4565 1293.4143)" class="st3" width="25.8" height="15.9"></rect>
			
				<rect x="1227.7" y="638.7" transform="matrix(-1 -1.224647e-16 1.224647e-16 -1 2481.1238 1293.4143)" class="st3" width="25.8" height="15.9"></rect>
		</g>
		<g>
			
				<rect x="1363.2" y="666.3" transform="matrix(-1 -1.224647e-16 1.224647e-16 -1 2752.1223 1348.5509)" class="st3" width="25.8" height="15.9"></rect>
			
				<rect x="1318" y="666.3" transform="matrix(-1 -1.224647e-16 1.224647e-16 -1 2661.7893 1348.5509)" class="st3" width="25.8" height="15.9"></rect>
			
				<rect x="1272.8" y="666.3" transform="matrix(-1 -1.224647e-16 1.224647e-16 -1 2571.4565 1348.5509)" class="st3" width="25.8" height="15.9"></rect>
			
				<rect x="1227.7" y="666.3" transform="matrix(-1 -1.224647e-16 1.224647e-16 -1 2481.1238 1348.5509)" class="st3" width="25.8" height="15.9"></rect>
		</g>
	</g>
</g>
<rect x="431.6" y="254.2" transform="matrix(-1 -1.224647e-16 1.224647e-16 -1 911.8136 710.639)" class="st5" width="48.6" height="202.3"></rect>
<rect x="482.2" y="274.3" transform="matrix(-1 -1.224647e-16 1.224647e-16 -1 983.0782 567.3121)" class="st0" width="18.8" height="18.8"></rect>
<rect x="482.2" y="418.7" transform="matrix(-1 -1.224647e-16 1.224647e-16 -1 983.0782 856.1977)" class="st0" width="18.8" height="18.8"></rect>
<rect x="442.1" y="254.2" transform="matrix(-1 -1.224647e-16 1.224647e-16 -1 932.8299 710.639)" class="st0" width="48.6" height="202.3"></rect>
<g>
	<path class="st6" d="M471.8,259.7c0,0-7.9-1.5-13.8,1.8c-7.3,4.2-7.5,15.7-7.5,15.7L471.8,259.7z"></path>
	<path class="st5" d="M483,279.1c0,0-0.6-16-8.9-18.9c-8.3-2.8-19.5,7.8-21.1,12.3C451.5,276.9,483,279.1,483,279.1z"></path>
	<path class="st1" d="M477.6,306.2c0.6-0.6,1.2-1.3,1.7-2c0,0,0,0,0,0c3.1-4.2,5-9.9,5-16.1c0-12.8-8-23.3-18-23.3   c-8.1,0-15,7-17.2,16.6c0,0,0,0,0,0c-0.1,0.4-0.2,0.8-0.2,1.1c0,0.1,0,0.2-0.1,0.3c-0.1,0.3-0.1,0.6-0.1,0.9c0,0.1,0,0.3-0.1,0.4   c0,0.3-0.1,0.6-0.1,0.9c0,0.1,0,0.3,0,0.4c0,0.3,0,0.6-0.1,0.9c0,0.1,0,0.3,0,0.4c0,0.4,0,0.9,0,1.3c0,0.8,0,1.6,0.1,2.4   c0.9,11.7,8.6,20.9,17.9,20.9c0,0,0,0,0,0c0,0,0,0,0,0c0.4,0,0.8,0,1.1-0.1c0.1,0,0.2,0,0.3,0c0.3,0,0.6-0.1,0.9-0.1   c0.1,0,0.2,0,0.3,0c0.4-0.1,0.7-0.1,1.1-0.2c0,0,0.1,0,0.1,0c0.3-0.1,0.6-0.2,0.9-0.3c0.1,0,0.2-0.1,0.3-0.1   c0.3-0.1,0.6-0.2,0.9-0.4c0,0,0.1,0,0.1-0.1c0.4-0.2,0.7-0.3,1-0.5c0,0,0.1,0,0.1-0.1c0.3-0.2,0.6-0.4,0.9-0.6   c0.1,0,0.1-0.1,0.2-0.1c0.7-0.5,1.3-1,1.9-1.5c0,0,0,0,0.1-0.1C477,306.8,477.3,306.6,477.6,306.2   C477.6,306.2,477.6,306.2,477.6,306.2z"></path>
</g>
<g>
	<path class="st6" d="M471.8,319.9c0,0-7.9-1.5-13.8,1.8c-7.3,4.2-7.5,15.7-7.5,15.7L471.8,319.9z"></path>
	<path class="st5" d="M483,339.2c0,0-0.6-16-8.9-18.9c-8.3-2.8-19.5,7.8-21.1,12.3C451.5,337.1,483,339.2,483,339.2z"></path>
	<path class="st3" d="M477.6,366.3c0.6-0.6,1.2-1.3,1.7-2c0,0,0,0,0,0c3.1-4.2,5-9.9,5-16.1c0-12.8-8-23.3-18-23.3   c-8.1,0-15,7-17.2,16.6c0,0,0,0,0,0c-0.1,0.4-0.2,0.8-0.2,1.1c0,0.1,0,0.2-0.1,0.3c-0.1,0.3-0.1,0.6-0.2,0.9c0,0.1,0,0.3-0.1,0.4   c0,0.3-0.1,0.6-0.1,0.9c0,0.1,0,0.3,0,0.4c0,0.3,0,0.6-0.1,0.9c0,0.1,0,0.3,0,0.4c0,0.4,0,0.9,0,1.3c0,0.4,0,0.8,0,1.2   c0.5,12.3,8.3,22.1,17.9,22.1c0,0,0,0,0,0c0,0,0,0,0,0c0.4,0,0.8,0,1.1-0.1c0.1,0,0.2,0,0.3,0c0.3,0,0.6-0.1,0.9-0.1   c0.1,0,0.2,0,0.3,0c0.4-0.1,0.7-0.1,1.1-0.2c0,0,0.1,0,0.1,0c0.3-0.1,0.6-0.2,0.9-0.3c0.1,0,0.2-0.1,0.3-0.1   c0.3-0.1,0.6-0.2,0.9-0.4c0,0,0.1,0,0.1-0.1c0.4-0.2,0.7-0.3,1-0.5c0,0,0.1,0,0.1-0.1c0.3-0.2,0.6-0.4,0.9-0.5   c0.1,0,0.1-0.1,0.2-0.1c0.7-0.5,1.3-1,1.9-1.5c0,0,0,0,0.1-0.1C477,367,477.3,366.7,477.6,366.3   C477.6,366.4,477.6,366.4,477.6,366.3z"></path>
</g>
<g>
	<path class="st6" d="M471.8,380c0,0-7.9-1.5-13.8,1.8c-7.3,4.2-7.5,15.7-7.5,15.7L471.8,380z"></path>
	<path class="st5" d="M483,399.3c0,0-0.6-16-8.9-18.9c-8.3-2.8-19.5,7.8-21.1,12.3C451.5,397.2,483,399.3,483,399.3z"></path>
	<path class="st6" d="M477.6,426.5c0.6-0.6,1.2-1.3,1.7-2c0,0,0,0,0,0c3.1-4.2,5-9.9,5-16.1c0-12.8-8-23.3-18-23.3   c-8.1,0-15,7-17.2,16.6c0,0,0,0,0,0c-0.1,0.4-0.2,0.8-0.2,1.1c0,0.1,0,0.2-0.1,0.3c-0.1,0.3-0.1,0.6-0.1,0.9c0,0.1,0,0.3-0.1,0.4   c0,0.3-0.1,0.6-0.1,0.9c0,0.1,0,0.3,0,0.4c0,0.3,0,0.6-0.1,0.9c0,0.1,0,0.3,0,0.4c0,0.4,0,0.9,0,1.3c0,0.8,0,1.6,0.1,2.4   c0.9,11.7,8.6,20.9,17.9,20.9c0,0,0,0,0,0c0,0,0,0,0,0c0.4,0,0.8,0,1.1-0.1c0.1,0,0.2,0,0.3,0c0.3,0,0.6-0.1,0.9-0.1   c0.1,0,0.2,0,0.3,0c0.4-0.1,0.7-0.1,1.1-0.2c0,0,0.1,0,0.1,0c0.3-0.1,0.6-0.2,0.9-0.3c0.1,0,0.2-0.1,0.3-0.1   c0.3-0.1,0.6-0.2,0.9-0.4c0,0,0.1,0,0.1-0.1c0.4-0.2,0.7-0.3,1-0.5c0,0,0.1,0,0.1-0.1c0.3-0.2,0.6-0.4,0.9-0.6   c0.1,0,0.1-0.1,0.2-0.1c0.7-0.5,1.3-1,1.9-1.5c0,0,0,0,0.1-0.1C477,427.1,477.3,426.8,477.6,426.5   C477.6,426.5,477.6,426.5,477.6,426.5z"></path>
</g>
<path class="st0" d="M497,757.2h17.1V207.3c0-1.7-1.4-3.1-3.1-3.1h-10.9c-1.7,0-3.1,1.4-3.1,3.1V757.2z"></path>
<g>
	<path class="st6" d="M1643.3,626.5c0,0-13.7-83.7-55.1-69.6s-97.4,97.4-89.9,125.1s61.7,66.7,120.2,60.9   C1676.9,737.2,1643.3,626.5,1643.3,626.5z"></path>
	<path class="st7" d="M1614.3,649c-0.9-2.6-21.9,24.8-22.4,21.1c-0.4-3.7-0.1-55.3-0.1-55.3s-5,80.9-5.3,81.7s-21.6-24.8-21.8-23.7   s19,23.1,20.8,26.7c1.8,3.6,1.6,17.4,1.1,19.5c-0.6,2.1-24-19.5-24.8-16.5c-0.8,3,22.4,16.8,23.3,21.4c0.8,4.6-4.3,62.5-0.7,63.7   c3.6,1.3,4.7,0.7,5.4-3.6c0.7-4.3,2.1-105.2,2.3-107.8C1592.2,673.6,1615.2,651.6,1614.3,649z"></path>
	<path class="st1" d="M1444.5,453.5c27-6,39.3,16,44.8,35.4c3.9,13.8,13.5,25.3,26.4,31.6c10,4.8,20.7,14,25.4,31.4   c4.6,17.2,5.1,30.6,4.3,39.9c-0.9,10.7,1.6,21.3,7.1,30.5c6.2,10.2,12,24.5,8.1,38.6c-7.3,26-80.7,59.5-141.3,38.5   c-60.6-21.1-58.4-52-58.3-69.6c0-20.2,7.6-38,14.2-49.8c5.7-10,7.8-21.6,6.1-33C1377.1,519.4,1378.8,468.2,1444.5,453.5z"></path>
	<path class="st7" d="M1459,566.6c4.3,4.7-3.8,62-3.2,79.9c0,0,29.7-24.4,32.3-21.3c2,2.4-32,27.9-32,27.9l-2.3,27   c0,0,43.9-27.9,47.5-22.8c1.6,2.3-42,25.5-45.2,29.9c-3.2,4.5-2.5,100.2-2.5,100.2l-17.1-0.2l10.3-114.3c0,0-38-40.1-34.7-39.8   c3.2,0.3,36.5,31.1,36.5,31.1S1454.6,561.9,1459,566.6z"></path>
</g>
<g>
	<path class="st6" d="M497,211.1c0-3.8,3.1-6.8,6.8-6.8h1.7v552.9H497V211.1z"></path>
</g>
<g>
	<path class="st5" d="M1249.5,492.5c0,0-64.4,41.9-57.3,76c4.9,23.8,45.5,3.1,54.7-23.2C1256.2,518.8,1249.5,492.5,1249.5,492.5z"></path>
	<path class="st4" d="M1322.7,604l-8.5-76.8c0,0,9.7,6.8,11.3,8.3c1.6,1.4,7.5,61.6,7.8,68.7C1333.7,611.4,1322.7,604,1322.7,604z"></path>
	<path class="st8" d="M1271.6,775.5c-1.9-2.8-2.4-5.8-2.6-8.3l-9.2,0c0,0,0.6,3.2-0.9,5.6c-0.7,1.1-2.7,1.9-5.4,3   c-4.3,2.2-9.6,5-9.8,6.5c-0.3,2.5,25.1,2.5,29.3,0.1C1275.1,781.2,1273.6,778.5,1271.6,775.5z"></path>
	<path class="st8" d="M1380.2,747.6c-2.9-1.5-4.8-4-6.2-6.1l-8.1,4.3c0,0,2,2.5,1.8,5.4c-0.1,1.3-1.5,2.9-3.3,5.2   c-2.8,4-6.1,9-5.6,10.4c0.9,2.3,23.2-9.7,25.8-13.8C1386,751,1383.4,749.3,1380.2,747.6z"></path>
	<path class="st6" d="M1325.1,664.8c0.3-20.7,4-29.1-0.1-52.8c-1.7-9.7-9-36.4-9.9-43.5c-0.1-0.8-0.2-1.6-0.2-2.4   c-27.9,3.6-55.4-3.1-61.9-4.9c-1,5.3-3.1,10.4-6.2,14.9c-12,17.2-27.7,63.4-27.8,92.6c-0.1,65.4,23,90.7,31.4,102.7   c2.1,3,11.5,2.6,18.1,1.4c18-3.3-19.4-82.5-19.4-89.1c0-20.8,21.8-52.6,21.8-52.6c1.2,4.6,5.8,23.7,16.7,52.7   c13.2,35.1,50.7,41.9,71.1,68.6c3.1,4.1,18.9-3.8,17.5-10C1365.3,694.2,1324.8,687.9,1325.1,664.8z"></path>
	<polygon class="st9" points="1253.2,613.2 1265.6,616.3 1269.8,601 1272.4,616.3 1293.4,615.3 1273.1,586.6 1265.9,587.1  "></polygon>
	<path class="st5" d="M1326.6,624.7c0-15.4-8.9-57.6-8.9-57.6s8.8-45.9,4-57.4c-6.9-16.8-26-25.5-64.4-21   c-13.4,1.6-17,21.3-15.9,34.7c1.1,13.1-2.5,62.1-8,79.9c-4.7,15.1,4.3,20,23.3,23.1c1.7,0.3,10.5-36.5,12.3-36.3   c4,0.5,10.3,40.5,14.4,40.6C1306.8,631.7,1326.6,628,1326.6,624.7z"></path>
	<path class="st5" d="M1326.6,624.7c0-15.4-8.9-57.6-8.9-57.6s8.8-45.9,4-57.4c-4.5-10.8-13.9-18.2-30.3-20.9   c1.1,10.3,2.4,31.5-2.1,55.4c-5.1,26.8,2.2,65.8,8.2,86.6C1314.2,630.2,1326.6,627.3,1326.6,624.7z"></path>
	<path class="st9" d="M1279.5,489.5c0,0-3.5-1.5-5.8,2.2c-14.8,22.8-3.9,76.7-3.9,76.7s15.9-64.4,16.5-71.5   C1287,490,1279.5,489.5,1279.5,489.5z"></path>
	<path class="st8" d="M1268,477.6c0,0-4.5-9.9-2-13.5c5.3-7.7,13.9-1.1,15.8,0.8c3.6,3.6,4.8,8.2,1.5,14.1   C1281.1,483.1,1270.5,483.6,1268,477.6z"></path>
	<path class="st1" d="M1281.8,476.8l5.9,13.5c0.2,2-10.2,8.6-13.6,6.3c-1-0.7-0.9-2.6-0.2-4.8l4.2-11.9L1281.8,476.8z"></path>
	<path class="st8" d="M1277.2,482.4c2.2-0.6,5.2-1.4,5.2-1.4s0.1,3.6-2.8,6.5c-1.5,1.6-3.4,2.4-5.2,2.7L1277.2,482.4z"></path>
	<path class="st1" d="M1277.9,471.3l4,8c1.1,2.7-0.1,5.9-2.8,7c-2.2,0.9-3.6,1.2-6.5,1.3c-2.4,0.1-4-2-4.5-5.2   c-0.6-4.1,0-8,0.4-10.1C1269.4,467.5,1274.9,466.3,1277.9,471.3z"></path>
	<path class="st2" d="M1273.3,478.2c0,0-1.9,0.8-4.8,0.9c0,0,0.2,1.8,1.4,2.3C1271.2,481.8,1273,480.5,1273.3,478.2z"></path>
	<g>
		<path class="st1" d="M1271.3,484.5c2.6-0.9,5.3,2.8,9.4-1.8c0.8-0.9,1-2.6,1.1-3.7l0.1,0.2c1.1,2.7-0.1,5.9-2.8,7    c-2.2,0.9-3.6,1.2-6.5,1.3c-1.5,0-2.7-0.7-3.4-2C1269.5,485.5,1270.5,484.8,1271.3,484.5z"></path>
	</g>
	<path class="st8" d="M1274.6,468.3c0,0,2.5,2.8,2.6,4.5c0.1,1.7-0.1,2.4,0.6,2.8c0.6,0.4,2-1.2,1.7-2.9   C1279.2,471,1277.8,466.8,1274.6,468.3z"></path>
	<path class="st1" d="M1278.4,475.4c0-0.6,0-1.1-0.1-1.6c-0.2-1-0.1-2.6,1.5-2.1c2.4,0.8,2.9,6.3,0.4,7.2   C1278.4,479.5,1278.3,476.8,1278.4,475.4z"></path>
	<g>
		<path class="st2" d="M1276.4,497.1c0,0,4.5-2.7,6.3-5c1.1-1.5,2.9-6.5,2.9-6.5s4,2,4.9,5.7l-10.2,10.7c0,0-1.6-2.7-2.3-3.5    C1277.6,498.2,1276.4,497.1,1276.4,497.1z"></path>
		<path class="st2" d="M1276.4,497.1l-0.8-1.7c-0.4-0.9-1.2-5.2-1.1-5.7c0,0-2.4,3.3-3.4,4.5c-0.9,1.3-1.4,2.4-1.4,2.4l3.5,5.4    C1273.3,502,1275.1,497.2,1276.4,497.1z"></path>
	</g>
	<path class="st5" d="M1307.4,496.5c9.2-8.2,66.3,41.9,61.8,73.3c-4.5,31.4-73.4,19.1-74.6-1.6c-0.2-2.9,0.7-8.6,4.7-10.2   c12.1-4.7,42.4,1.3,42.4,1.3S1294.3,508.2,1307.4,496.5z"></path>
	<path class="st3" d="M1293.5,633.8c4.1,8.7,10.1,2.8,19.5,4.3c9.4,1.5,11,2,17.3-1.5c2.3-1.2,4.5-4,6.4-6.9   c0.2-8.3,0-20.6-2.2-25.7c-2.1-4.8-26.2-0.9-26.2-0.9s-6.7,0.1-11.6,0.4C1295.2,608.1,1290,626.2,1293.5,633.8z"></path>
	<path class="st4" d="M1330.3,636.5c-6.3,3.5-8,3-17.3,1.5c-9.4-1.5-15.4,4.4-19.5-4.3c-3.5-7.6,1.7-25.7,3.2-30.3   c-1.7,0.1-3.2,0.3-4.2,0.5c-7.3,1.8-8,29.8-6.9,35.6c1.1,5.8,19.9,12.3,33.6,10.1c13.7-2.3,17.1-7.5,17.3-13.2   c0-1.5,0.1-3.9,0.2-6.9C1334.8,632.6,1332.6,635.3,1330.3,636.5z"></path>
	<path class="st4" d="M1336.4,614.6c-3,3.1-10.4,9.4-21.9,9.8c-10.4,0.3-17.6-4.8-21.1-8.2c-0.1,0.7-0.3,1.5-0.4,2.2   c1.1,1.8,3.3,3.2,5.7,5c7.2,5.2,23.1,5.8,31.2,0.2c3.7-2.5,5.6-4.2,6.7-6.3C1336.6,616.4,1336.5,615.5,1336.4,614.6z"></path>
	<path class="st4" d="M1327.1,618c0,0,0.7,8.3,0.4,10c-0.4,1.7,3.6,0,4.2-1.2c0.6-1.2,0.1-10.8-1-10.3   C1329.6,617,1327.1,618,1327.1,618z"></path>
	<path class="st4" d="M1306.1,618.8c0,0-0.4,7.4,0,9.1c0.4,1.7-3.5,0.7-4.1-0.4s0-10,1-9.5C1304,618.5,1306.1,618.8,1306.1,618.8z"></path>
	<path class="st4" d="M1289,607.4c0,0-14.1-59.4,8.4-116.5c0.2-0.5,0.6-0.7,1.1-0.7c1.2,0.1,3.6,0.4,5.3,1.8   c0.3,0.3,0.4,0.8,0.3,1.2c-1.6,4.8-11.3,34.6-11.8,55.4c-0.6,22.7,4.3,58.8,4.3,58.8H1289z"></path>
	<path class="st1" d="M1298.2,559.8c0,0-4.2-5.5-5.2-6c-1-0.5-1.6,3-1.6,3s-7.2-4.5-7.8-2.3c-0.6,2.2,0.2,6.2,0,8.6   c-0.2,2.5,6.5,4.7,10,5.3S1301.4,563.7,1298.2,559.8z"></path>
	<g>
		<path class="st2" d="M1226.6,541h-8.4c-1.1,0-2-0.7-2.2-1.8l-4.6-19.5c-0.3-1.4,0.8-2.8,2.2-2.8h8.4c1.1,0,2,0.7,2.2,1.8l4.6,19.5    C1229.2,539.6,1228.1,541,1226.6,541z"></path>
		<path class="st9" d="M1218.8,522.7c0.1,0.6,0,1.2-0.3,1.3c-0.3,0.1-0.7-0.4-0.8-1c-0.1-0.6,0-1.2,0.3-1.3    C1218.3,521.6,1218.7,522.1,1218.8,522.7z"></path>
	</g>
	<path class="st1" d="M1208.5,534.1c0,0,1.1-6.2,3.7-7.5c2.5-1.3,9.2-1.6,8.6-0.7c-0.6,0.9-6.3,2.2-6.3,2.2s6.5,0.3,8.1,1.4   c1.6,1.1-0.1,3.9-1.6,4.8c-1.4,0.8-7.4,6.2-10.3,6.2C1207.7,540.5,1208.5,534.1,1208.5,534.1z"></path>
	<path class="st5" d="M1369.2,569.8c3.6-25.3-32.6-62.7-51.7-72c1.8,1.7,3.4,3.3,4.2,4.3c3,3.7,16.2,22.7,23.1,32.7   s14.9,24.1,14.7,30c-0.1,5.9-6,12.9-24.9,15.6c-14.8,2.1-30.1-2.3-36-4.2C1313.5,591.4,1365.3,596.9,1369.2,569.8z"></path>
</g>
<path class="st8" d="M796.4,726.4c-1.2-0.4-1.3-2.3-0.5-3.3c2.4,0.4,4.6,1,4.9,2.1c0.2,0.7,0.1,1.7-0.3,2.7l-1.9,2  C798.6,729.9,798.1,727,796.4,726.4z"></path>
<g>
	<path class="st0" d="M666.5,477.4c0,0,5.4,4.2,6.8,9.6c1.4,5.5,8.6,3.2,8.1,12.4c-0.5,9.2-4.8,14.1-14.1,12.2   c-9.3-1.9-16.3-4.1-16.8-10.8C650.1,494.2,659.2,473.6,666.5,477.4z"></path>
	<path class="st3" d="M672.7,502.2c8.4-1,36,25.9,37.4,53.8c1.4,27.9-26.4,2.4-32.2-17.2C672.8,521.5,663.9,503.3,672.7,502.2z"></path>
	<g>
		<path class="st3" d="M686.4,755.5c0,0-4.7,20.2-4.3,21c0.1,0.3,3.8,1.6,6.7,3.2c1.3,1.2,2.5,2.7,1.1,3.1    c-2.4,0.7-16.7,0.3-17.9-2.1c-0.4-0.8-1-1.4-1.6-1.9c2-2.7-0.3-11.8,0-14.3L686.4,755.5z"></path>
		<path class="st8" d="M672,780.8c1.3,2.4,15.5,2.8,17.9,2.1c1.4-0.4,0.2-1.9-1.1-3.1c4.3,2.4,9.7,5.4,9.8,6.9    c0.2,2.5-25.6,1.7-29.9-0.8c-2.2-1.3-0.6-4,1.6-7C671,779.3,671.6,780,672,780.8z"></path>
	</g>
	<g>
		<path class="st3" d="M596.7,742.1c0,0-5.6,8.3-5.6,9.2c0,0.3,2.7,3.2,4.5,5.9c0.6,1.6,1,3.5-0.5,3.3c-2.5-0.5-14.9-7.4-15-10.1    c0-0.9-0.2-1.7-0.5-2.5c3-1.5,5.2-10.6,6.6-12.7L596.7,742.1z"></path>
		<path class="st8" d="M580.1,750.4c0,2.7,12.5,9.6,15,10.1c1.5,0.3,1.1-1.6,0.5-3.3c2.8,4.1,6.1,9.3,5.5,10.7    c-0.9,2.3-23.5-10.3-26.1-14.5c-1.4-2.2,1.3-3.8,4.6-5.5C579.9,748.6,580.1,749.4,580.1,750.4z"></path>
	</g>
	<path class="st3" d="M617.5,671.3c14.5-9,7.7-51.1,14.4-72.9c0.7-2.4,7.1-12.3,7.7-14.5c9.1,0.8,31.9-1.7,54.9-6   c2.8,6.8,6.5,12.6,8.5,19.6c12.4,45.4-15.3,178.5-27.1,178c-7.9-0.4-15.2-26.7-14.3-50.2c0.7-19.4,7.9-39.7,10-46.9   c3.5-12.2-2.6-51.9-2.6-51.9c-3.1,11.9-9.4,35.8-21.2,52.3c-28.9,40.5-32.6,57.5-55.5,70.5c-2.4,1.4-9.3-0.1-9.3-3.6   C582.8,739.8,596.7,684.1,617.5,671.3z"></path>
	<g>
		<path class="st3" d="M647.7,678.7c11.3-15.8,17.5-38.4,20.8-50.7c-0.3-0.5-0.5-1-0.8-1.4c-5.5-7.3-12.1,19-21.6,38.8    c-9.4,19.7-40,54.2-48.8,61.1c-6.2,4.9-9.7,15.9-9.8,23c1.8,0.4,3.6,0.3,4.6-0.3C615.1,736.2,618.8,719.2,647.7,678.7z"></path>
	</g>
	<path class="st3" d="M704.9,607.7c-8.7,10.3-20.6,27-20.6,41.6c0,23-11.1,74.1-12.6,93.9c-1,13.7,1.3,25.8,4.4,32.3   C687.2,774.3,711.7,659.7,704.9,607.7z"></path>
	<path class="st6" d="M609.5,673.8c-10.4-8.6,15.9-75.2,16.5-77.2c3.4-10.3,16.9-31.3,17.7-42.8c0.7-10.6-8.3-29.5-1.4-42.6   c3.7-7.1,14.7-10,17.7-9.9c6,0.3,12.6-0.4,16.8,2.3c6.9,4.4,9.5,14.2,8.8,24.2c-0.5,7.8,0.7,23.6,0.7,23.6s33.9,57.2,24.1,133.3   c-5.1,3.8-15.9-3.1-30.4-4.3c-9.1-0.8-20.5,5.2-29.9,3.5c-9.2-1.7-15.6-8.9-22.7-10.7C620,671.4,611.8,675.7,609.5,673.8z"></path>
	<path class="st5" d="M710.3,684.7c9.8-76.1-24.1-133.3-24.1-133.3s-1.2-15.9-0.7-23.6c0.7-10-1.8-19.7-8.8-24.2   c-2.8-1.8-6.7-2.1-10.8-2.2c1.6,3.3,6.5,12.9,10.6,19.2c5,7.7-1.4,10.6-7.2,11.5c-5.8,0.9,0.6,5,7,17.7   c5.9,11.7,9.6,110.5,7.5,131.1C696.3,682.9,705.6,688.2,710.3,684.7z"></path>
	<path class="st3" d="M658.3,518.5c5.3,1.2,20.1,2.1,17.9-4.2c-1.7-4.7-5.7-10.3-7.6-12.8c-2.8-0.2-5.8-0.1-8.7-0.3   c-1.6-0.1-5.6,0.7-9.5,2.6C649.6,508.9,654,517.6,658.3,518.5z"></path>
	<path class="st3" d="M655.7,487.9l1.5,15.9c0.8,3.4,7.5,4.7,7.9,1.5c0.1-1.1-1.1-4-2.1-6.9c-1.4-4.2-2.6-8.2-2.6-8.2L655.7,487.9z"></path>
	<path class="st10" d="M658.4,494.2c-0.1-1.8,1.3-2,2.8-1.4c0.5,1.5,1.1,3.5,1.8,5.5c0,0,0,0,0,0.1C661.4,498,658.6,497,658.4,494.2   z"></path>
	<path class="st3" d="M655.9,482.9l0.6,8.6c-0.4,2.9,3.4,6.5,8.5,5.5c2.3-0.4,4.6-3.3,4.3-6.4c-0.4-4.1-2-7.8-2.9-9.7   C664.2,476.6,657.6,477.3,655.9,482.9z"></path>
	<path class="st2" d="M667.6,489.3c0,0,0.2,4.7-4.6,1.4C663,490.8,664.9,490.1,667.6,489.3z"></path>
	<g>
		<path class="st3" d="M666,494.7c1.8-0.5,2.8-1.8,3.3-2.9c-0.2,2.7-2.3,4.9-4.3,5.3c-4.9,0.9-8.6-2.4-8.5-5.2    C658.7,494.1,662.7,495.5,666,494.7z"></path>
	</g>
	<path class="st0" d="M660,471.1c-4.8,0-8.2,3.5-8.9,8.9c-0.6,4.2-3.6,12.1-6.3,15.8c-1.5,2.1-5,4.6-6.6,7.7   c-1.6,3.2,0.9,11.2,9.3,12.1c8.4,0.9,10.5-3.1,12.3-9.1c1.7-6.1-2.8-16.9-1.8-19.4c1-2.5,6.7-5.4,7.8-8.2   C666.7,476.1,664.8,471.1,660,471.1z"></path>
	<g>
		<path class="st5" d="M753.3,711.2c-1,0-1.9-0.6-2.2-1.5l-29-79.1l-4.5,0.8c-1.3,0.2-2.5-0.6-2.7-1.9c-0.2-1.3,0.6-2.5,1.9-2.7    l6.5-1.1c1.1-0.2,2.2,0.4,2.6,1.5l29.7,80.9c0.4,1.2-0.2,2.6-1.4,3C753.8,711.2,753.5,711.2,753.3,711.2z"></path>
	</g>
	<path class="st1" d="M652.4,551.5c0,0,23,14.5,22.2,26.4c-0.7,11.9-24.9,0.9-29.6-5.9S652.4,551.5,652.4,551.5z"></path>
	<path class="st5" d="M515.9,748.8c3.8-0.8,6.7-2.9,8.9-4.8l7.7,7.4c0,0-3.1,2.1-3.8,5.5c-0.3,1.4,0.7,3.7,2.1,6.9   c1.8,5.3,4,12,3,13.4c-1.7,2.3-23-18.2-24.6-23.7C508.3,750.7,511.7,749.7,515.9,748.8z"></path>
	<path class="st5" d="M628.5,782.2c2.2-3.2,2.7-6.7,3-9.6l11.9-8.3c0,0-1.9,12,0,14.8c0.8,1.3,3.1,2.2,6.3,3.5   c5,2.6,11.2,5.9,11.5,7.6c0.4,2.9-29.2,2.9-34.1,0.1C624.3,788.8,626.1,785.7,628.5,782.2z"></path>
	<path class="st8" d="M585,593.7L585,593.7l-1.4,12c-5.6,20.3-11.6,41.7-14.4,65.7c-5.2,44.3-53.2,65-50.1,75   c3.9,12.4,8.5,13.5,16.9,10.9c54.8-17.4,80.7-113.9,82.5-119.5c0.5-1.7,10.7,40.8,10.3,54.1c-0.6,21-8.1,76.6-0.3,85.4   c3.2,3.5,11.8,4.8,16.8,0c16.7-16.4,17.3-78.2,17.3-90.5c0.1-33.4-3.7-84.1-3.7-84.1S608.4,608.6,585,593.7z"></path>
	<path class="st8" d="M618.4,637.8c0.1-0.4,0.8,1.7,1.8,5.4c0-4.1-0.4-7.7-1.7-9c-3.8-3.8-18.9,7.1-26.2,27.4   c-7.4,20.3-18,54.6-39.7,70.1c-17.4,12.4-27.7,14.3-31.7,19.2c3.6,8.1,8,8.7,15.2,6.4C590.8,739.9,616.6,643.4,618.4,637.8z"></path>
	<path class="st2" d="M662.6,634.5c2.1-30-5.7-87.6-5.7-87.6s-3-31.9-19.1-39.8c-19.9-9.7-47-3.7-51.6,14.2   c-1.6,6.3-2.6,93.8-12.2,115.5C584.1,643.3,656.3,650.4,662.6,634.5z"></path>
	<path class="st8" d="M643.3,603.8C643.3,603.8,643.3,603.8,643.3,603.8c-1.9,25.8,9,40,2.8,79.1c-5.7,36.2-15.7,83.5-11,97.5   c3.5,0.4,7.3-0.4,10.1-3.1c16.7-16.4,17.3-78.2,17.3-90.5c0.1-33.4-3.7-84.1-3.7-84.1S652.5,603.5,643.3,603.8z"></path>
	<path class="st11" d="M637.8,507.1c-5.2-2.5-10.9-4-16.5-4.4c3.1,7.3,14.8,35.7,15.4,53.3c0.7,20.3-10.5,35.3-7,55.9   c1.7,10.2,2.1,22.3,2,32.2c15.4-0.5,28.4-3.2,30.9-9.5c2.1-30-5.7-87.6-5.7-87.6S653.9,515,637.8,507.1z"></path>
	<path class="st5" d="M610.6,483c0,0-1.8-8.7,4.8-9.4c4.2-0.4,4.8-0.1,4.8-0.1s2.1-2.7,5.5-2.5c3.4,0.2,3.7,3,3.7,3s3.8-0.4,4.8,3.6   c1,4-2.1,8.2-7.4,8.5c-1.1,0.1-2.1,0.1-3.1,0.2c-0.3,4.9-2.8,11.8-7,11.3C610.6,496.9,610.6,483,610.6,483z"></path>
	<path class="st1" d="M616.6,488.8l-4.9,18.2c-0.1,2.2,9.1,6.6,12.7,3.9c1.1-0.8,0.9-17.2,0.9-17.2L616.6,488.8z"></path>
	<path class="st8" d="M625.2,494.2c0,1.4,0,5.5-0.1,9.2c-1.6-0.4-3.3-1.2-4.7-2.5c-3.3-3.1-3.4-7-3.4-7S622.1,493.9,625.2,494.2z"></path>
	<path class="st1" d="M619.3,484.4l-2.5,9c-0.6,3,1.3,6,4.3,6.7c2.4,0.5,4,0.5,7,0c2.5-0.4,3.7-2.9,3.6-6.2   c-0.2-4.3-1.6-8.2-2.4-10.3C627.3,478.8,621.4,478.6,619.3,484.4z"></path>
	<path class="st2" d="M625.4,491.5c0,0,4.7-1.1,5.1-0.1c0,0,0.2,0.6-1.2,1C627.9,492.7,626.6,492.4,625.4,491.5z"></path>
	<path class="st11" d="M627.9,609.8c14.5,7.3,26.7,11.6,35,14c0-4.3-0.1-8.9-0.3-13.6l-62.2-24.8C600.4,585.4,600.6,596,627.9,609.8   z"></path>
	<path class="st1" d="M628.8,496.7c-2.9-0.5-4.8,3.9-10.1,0.1c-1-0.7-1.5-2.5-1.8-3.6l-0.1,0.2c-0.6,3,1.3,6,4.3,6.7   c2.4,0.5,4,0.5,7,0c1.5-0.3,2.6-1.3,3.1-2.8C630.7,497.3,629.6,496.8,628.8,496.7z"></path>
	<path class="st5" d="M619.4,481.8c0,0,1.7,5.1,1.5,6.4c-0.3,1.3-2.2,0.8-2.8-1.1C617.4,485.2,617.6,481.7,619.4,481.8z"></path>
	<path class="st1" d="M625.1,571.5c-10.9-12.2-18.6-58.8-31.5-57.1c-3.9,0.5-6.6,3.8-8.1,8.8c0,0,0,0,0,0c-0.5,1.8-0.9,3.8-1.2,5.9   c0,0,0,0,0,0c-0.2,2.2-0.3,4.5-0.3,7c0,0,0,0,0,0c0,0.8,0,1.6,0.1,2.5c0,0,0,0.1,0,0.1c0.1,2.5,0.4,5.1,0.8,7.8c0,0.1,0,0.2,0,0.2   c0.1,0.9,0.3,1.7,0.4,2.6c0,0.1,0,0.1,0,0.2c0.3,1.8,0.7,3.5,1.2,5.3c0,0.1,0,0.2,0.1,0.3c0.2,0.9,0.4,1.7,0.7,2.6   c0,0.1,0.1,0.2,0.1,0.4c0.2,0.9,0.5,1.7,0.8,2.6c0,0,0,0.1,0,0.1c0.3,0.9,0.6,1.7,0.9,2.6c0,0.1,0.1,0.2,0.1,0.3   c0.3,0.8,0.6,1.7,0.9,2.5c0.1,0.1,0.1,0.3,0.2,0.4c0.3,0.8,0.7,1.7,1,2.5c0,0.1,0.1,0.2,0.1,0.3c0.3,0.8,0.7,1.6,1.1,2.5   c0,0,0,0.1,0.1,0.1c0.4,0.8,0.8,1.6,1.2,2.5c0.1,0.1,0.1,0.3,0.2,0.4c0.4,0.8,0.8,1.6,1.2,2.3c0.1,0.1,0.2,0.3,0.2,0.4   c0.4,0.8,0.9,1.6,1.3,2.4c0,0,0,0.1,0.1,0.1c0.5,0.8,0.9,1.5,1.4,2.2c0.1,0.1,0.2,0.2,0.2,0.4c0.5,0.7,1,1.4,1.5,2.2   c0.1,0.1,0.2,0.3,0.3,0.4c0.5,0.7,1,1.4,1.6,2.1c0.1,0.1,0.1,0.2,0.2,0.3c0.5,0.7,1,1.3,1.6,2c0.1,0.1,0.1,0.1,0.2,0.2   c0.6,0.7,1.1,1.3,1.7,1.9c0.1,0.1,0.2,0.2,0.3,0.4c0.6,0.6,1.2,1.2,1.8,1.8c0.1,0.1,0.2,0.2,0.3,0.3c0.6,0.6,1.3,1.2,1.9,1.7   c2.6,2.2,7.1,4.8,12.8,7.6c21.1,10.2,58.4,21.9,75.9,22.1c5.1,0,8.5-0.9,9.4-3.2C712.4,610.1,641.3,589.6,625.1,571.5z"></path>
	<g>
		<path class="st2" d="M593.6,514.4c8.4-1.1,14.6,18.5,21,35.5c-4.8,4.2-15.5,12.7-25.3,13.6C581.2,540.2,582.4,515.8,593.6,514.4z"></path>
	</g>
	<path class="st1" d="M619,488.4c-0.3-0.5-0.6-1-0.8-1.6c-0.4-1-1.2-2.5-2.5-1.1c-1.8,1.9,0.6,7.3,3.3,6.8   C621.1,492.1,619.8,489.7,619,488.4z"></path>
	<path class="st1" d="M774.5,710.8c0,0,7.1-12.9,9.2-10.8c2.1,2.1-1.3,15.8-4.8,16.2C775.4,716.5,774.5,710.8,774.5,710.8z"></path>
	<path class="st8" d="M776.5,711.9c0,0,6.5-11.2,7-10.5c1.2,1.5-0.9,13.5-4.1,13.2C776.2,714.4,776.5,711.9,776.5,711.9z"></path>
	<path class="st1" d="M641.7,717.9c0,0-19.2,9.4-28,10.2c-8.8,0.8-22.4-11-19.7-19.7c2.7-8.7-4.5-9.3-7-4.5   c-2.5,4.8-10.6,16.9-5.3,28.6c5.3,11.6,32.4,10,38.9,5.2c6.5-4.8,13.8-10.2,16-13.6C638.9,720.7,641.7,717.9,641.7,717.9z"></path>
	<path class="st4" d="M747.8,752.7l17.3,43c0,0,4.3,6.4,5,9.6c0.4,1.9-1.8,2-5.8,2c-6.2,0-33.8-49.2-33.8-49.2L747.8,752.7z"></path>
	<path class="st4" d="M678.1,747.8c0,0-14.2,20.2-19.6,23c-5.4,2.8,16.2,26.5,16.2,29.1c0,2.6-9,2.4-10.6,1.1   c-1.7-1.3-23.4-28.2-22.4-33.6c1-5.4,2.4-26.5,11.2-26.9C661.7,740.2,678.1,747.8,678.1,747.8z"></path>
	<path class="st1" d="M774.1,713c0,0,5.2-23.6-0.8-17.6c-5.9,6-13.2,13.7-10.1,16.6C766.4,714.8,774.1,713,774.1,713z"></path>
	<path class="st1" d="M800.9,725.2c-0.7-2.3-10.3-2.4-12.1-3.3c-3.7-1.9-7.3-6.2-8.3-8.5c-1-2.3-7.5-4.9-7.5-4.9   c-2.8-1.5-33.1-0.4-49,0c0,0,0,0,0,0c-26.6-0.7-77.3,3.4-86.6,12c-11.6,10.6-15.5,23.7-3.4,25.9c12.1,2.2,27.2-4.3,34,1.7   c6.5,5.7,41.1,14.4,49.5,14c24.9-1.1,39.4-14.5,46.6-20.8c7.4-6.5,27.3-5.8,30.8-7.2C798.4,732.7,801.6,727.5,800.9,725.2z"></path>
	<path class="st4" d="M730.5,754.4c-17.4,1.8-42.3-5.7-52.4-9.9c-7.5-3.1-15.4-0.6-19,0.9c3.6,0,6.7,0.6,8.9,2.6   c6.5,5.7,41.1,14.4,49.5,14c17-0.7,29.1-7.2,37.4-13.2C748.3,751.1,739.3,753.5,730.5,754.4z"></path>
	<path class="st1" d="M667.2,736.6c0,0,2.9,12.3-5.5,18.2c-8.4,5.9-32.7,10.1-35,11.6c-10.7,7-12.4,26.6-11.6,28.6   c0.8,2,5.2,3.6,0.7,4.5c-4.5,0.8-9,0.7-10.1-2.7c-1.1-3.4,3.5-38.2,10.4-40.4c6.9-2.2,7.3-23.3,15.3-29.3   C639.4,721.1,667.2,736.6,667.2,736.6z"></path>
	<path class="st3" d="M752.4,707.7c-9.7,0.2-20.8,0.5-28.4,0.7c0,0,0,0,0,0c-23-0.6-64,2.4-80.7,8.8c8.2,0.5,19.2,0.5,24.8,1.1   c13.7,1.4,20.3,15.5,38.3,13.6c18.1-2,13.6-12.1,28.7-13.8C745.1,717,750.7,712,752.4,707.7z"></path>
	<path class="st8" d="M767.3,712.1c0,0-3.2-2.9-1.9-5.1c1.3-2.2,8.1-12.6,9.2-11.3c1.1,1.3,0.1,13.8-1.3,15.7   C772,713.3,770.4,713.4,767.3,712.1z"></path>
	<path class="st8" d="M776.3,720c-0.1,1.1,0.2,1.9,0.6,2c0.4,0,0.9-0.8,1-1.8c0.1-1.1-0.2-1.9-0.6-2   C776.8,718.1,776.4,718.9,776.3,720z"></path>
	<path class="st8" d="M781.8,719.5c-0.1,1.1,0.2,1.9,0.6,2c0.4,0,0.9-0.8,1-1.8c0.1-1.1-0.2-1.9-0.6-2   C782.3,717.6,781.9,718.4,781.8,719.5z"></path>
	<path class="st4" d="M585.7,713.7c0.2,3.2,0.9,16.6,8.2,19.9c7.3,3.3,24.4-1.4,32.7-4c3-1,3.4-0.1,2.7,1.4   c-2.7,2.2-5.8,4.5-8.8,6.6c-6.5,4.8-33.6,6.4-38.9-5.2c-3.7-8.1-0.9-16.5,2-22.5C584.8,711.3,585.7,712.6,585.7,713.7z"></path>
	<g>
		<path class="st5" d="M743.8,755.5c-2.4-3.4-22.7-33.2-23.5-47.1c0,0,3.1-0.4,4.1-0.4c2.1,0,3.3,0.1,3.3,0.3    c0.8,10.2,16.9,34.8,22.9,43.4c0,0-1.2,1.3-3.3,2.4C746.6,754.5,743.8,755.5,743.8,755.5z"></path>
	</g>
	<g>
		<path class="st5" d="M704.1,760.4l-6.9-1.8c4.4-16,29.7-35,30.8-35.8l4.2,5.7C725.5,733.6,707.2,749.1,704.1,760.4z"></path>
	</g>
	<path class="st1" d="M728.3,753.1c0,0-20.2,18.1-22.8,26.3c-1,3.3-10.8,22-8.5,23.8c2.2,1.8,3.1,3.6-3.9,3.9   c-7,0.3-1.8-22.1,0.3-29.2c3.2-10.5,12.3-28.1,16.6-29.1C714.3,747.8,728.3,753.1,728.3,753.1z"></path>
	<g>
		<path class="st6" d="M726.4,718.5c-1,0-1.9-0.6-2.2-1.5l-28.4-76.4c-0.8-2.1-0.6-4.5,0.4-6.5c1-2,2.9-3.5,5.1-4l12.9-3.3    c1.3-0.3,2.5,0.4,2.9,1.7c0.3,1.3-0.4,2.5-1.7,2.9l-12.9,3.3c-0.9,0.2-1.7,0.8-2.1,1.7c-0.4,0.8-0.5,1.8-0.2,2.7l28.4,76.4    c0.5,1.2-0.2,2.6-1.4,3C726.9,718.5,726.6,718.5,726.4,718.5z"></path>
	</g>
	<path class="st1" d="M703.2,614.5c0,0,14.6,7.1,16.3,11.8c1.7,4.7-1.3,6.1-4.5,7.7s-5.8,2.3-6.2,1.1c-0.4-1.2,0.1-2.4,0.1-2.4   s-11.7-6.4-11.8-9.2C697.1,620,698,614.8,703.2,614.5z"></path>
	<path class="st3" d="M707.4,567.2c-6.3,6.8-22.9,11.7-36.7,12c-13.8,0.3,14.3-36.5,29.6-30.6C708.2,551.6,713.4,560.7,707.4,567.2z   "></path>
	<path class="st3" d="M668.5,570.8c0,0-5.4,9.8-4.4,12.4c1,2.6,5.6,6.4,6.2,5.7c0.6-0.7-0.6-1.9-0.6-1.9s1.9,1.4,3.7,1.2   c4.8-0.7-0.3-6.2,0.3-7.2c0.6-1,3.7-3.8,2.2-6.5C674.4,571.8,670.2,569.9,668.5,570.8z"></path>
	<path class="st1" d="M673,583.6c0,0-2.4-3.6-0.7-3.8c1.8-0.3,1.9-1.9,1.9-1.9s1.2-6.2,3.2-3.9c2.1,2.3,3.4,6.5,1.8,8.5   C677.6,584.6,674.1,585.7,673,583.6z"></path>
	<path class="st11" d="M593.6,514.4c-1.8,0.2-3.3,1-4.5,2.3c4.4,8.5,11.5,23.6,12,31.3c0.2,3.6,1,7.2,1.9,10.5   c4.9-2.9,9.1-6.3,11.6-8.5C608.3,532.8,602.1,513.3,593.6,514.4z"></path>
</g>
<g>
	<polygon class="st6" points="1157.3,677.1 1146.9,635.4 1148.2,633.4 1161.7,676.8  "></polygon>
</g>
<g>
	<path class="st3" d="M1138.4,609.1c0.5-1,1.8-1.3,2.8-0.8c1.9,0.8,4.9,2.4,6.5,4.3c2.3,2.8-0.4,8-2,8.9s-4.1-0.6-4.2-2.1   c-0.1-1.5,0.9-1.4,0.9-1.4S1135.9,613.4,1138.4,609.1z"></path>
	<g>
		<polygon class="st4" points="1120.3,644.8 1163.9,642.2 1168.3,705.2 1115.5,707.3 1116.9,649.3 1120.6,646.7   "></polygon>
	</g>
	<g>
		<polygon class="st1" points="1170.2,641.8 1179,701.7 1173.2,701.1 1168.3,705.2 1163.9,642.2   "></polygon>
	</g>
	<g>
		<polygon class="st12" points="1170.2,641.8 1164.2,646.5 1116.9,649.3 1120.6,646.7 1120.3,644.8   "></polygon>
	</g>
	<g>
		<polygon class="st4" points="1173.2,701.1 1168.1,644.1 1170.2,641.8 1179,701.7   "></polygon>
	</g>
	<g>
		<path class="st9" d="M1155,653.9c0.3-0.1,0.6-0.3,0.7-0.6c3.6-9.8,2-31.4-6-37.1c-3.1-2.2-5.9-2.7-8.3-1.5    c-5.8,2.8-9.3,15.1-11.1,38.7c0,0.5,0.4,1,0.9,1c0.5,0,1-0.4,1-0.9c1.6-22.2,5-34.7,10-37.1c1.8-0.8,3.8-0.4,6.3,1.3    c6.7,4.7,8.9,25.1,5.3,34.8c-0.2,0.5,0.1,1.1,0.6,1.3C1154.7,653.9,1154.9,653.9,1155,653.9z"></path>
	</g>
	<g>
		<polygon class="st6" points="1136.6,641.4 1168.6,634.4 1179.2,680.6 1140.3,688.3 1134.6,645.2 1137,642.8   "></polygon>
	</g>
	<g>
		<polygon class="st5" points="1173.2,633.4 1186.7,676.8 1182.4,677.1 1179.2,680.6 1168.6,634.4   "></polygon>
	</g>
	<g>
		<polygon class="st0" points="1173.2,633.4 1169.3,637.6 1134.6,645.2 1137,642.8 1136.6,641.4   "></polygon>
	</g>
	<g>
		<path class="st9" d="M1141.6,647.5C1141.6,647.5,1141.6,647.5,1141.6,647.5c0.6-0.2,0.9-0.7,0.8-1.2c0-0.2-4.5-16.4-2.4-23.2    c1.2-3.6,2.3-5.6,3.7-6.2c1.1-0.5,2.6-0.3,4.8,0.7c3.5,1.5,9.1,15.5,11.9,24c0.2,0.5,0.7,0.8,1.2,0.6c0.5-0.2,0.8-0.7,0.6-1.2    c-0.8-2.3-7.6-22.9-13-25.2c-2.8-1.2-4.8-1.4-6.4-0.7c-1.9,0.9-3.4,3.1-4.7,7.4c-2.3,7.4,2.1,23.6,2.3,24.3    C1140.6,647.3,1141.1,647.6,1141.6,647.5z"></path>
	</g>
	<path class="st2" d="M1110.9,523.3c0,0,13.8,46.2,17.4,56.2c3.5,10,23,29.4,13.5,34.1c-9.7,4.9-39.4-47.7-40-65.6   C1101.2,530,1110.9,523.3,1110.9,523.3z"></path>
	<path class="st5" d="M1093.5,486.2c0,0-2.6-4.6-7.5-4.4c-4.9,0.2-11.8,6.4-11,12.3c0.8,5.9,2.9,17,0.7,18.3   c-2.2,1.3-12.9,7-9.7,12.1c3.2,5.1,16.4,6.3,20.5-1.9C1090.6,514.5,1087.6,485.4,1093.5,486.2z"></path>
	<path class="st3" d="M1139.1,667.5c-0.5-4.8-1-9.6-1.5-14.4c-1.9-16.1-4.3-32.2-8.1-47.9c-1.9-7.9-4-16-7.1-23.6   c-2.5-6.1-6.1-11.8-6.9-18.4c-1.3-11-36.2-5.6-38.9-0.2c-6.1,12-17.2,21-22.6,33.5c-6.9,14.3-3.6,33.7-2,48.9   c0.8,7.6,9.2,40,7.1,50.7c-4.7,12.5-33.1,75-18.9,79.7c14.8,4.9,48.7-71,48.1-81.3c0,0,0-70,5-70c5,0,17.8,67.7,17.2,78.3   c-1.8,30.8-6,89.7,12,89.7C1134.5,792.6,1141.8,694.8,1139.1,667.5z"></path>
	<path class="st3" d="M1088.4,690.6c-10.9-0.7-19.3,28-28.6,44.8c-7.1,12.8-7.8,26.8-7.7,33.7c16.1-18.2,36.7-66.5,36.3-74.5   C1088.4,694.5,1088.4,693.1,1088.4,690.6z"></path>
	<path class="st3" d="M1109.7,718.6c-1.7,31.7-2.4,74,12.9,74c10.4,0,17.3-75,17.1-112C1128,689.5,1117.4,705.2,1109.7,718.6z"></path>
	<path class="st4" d="M1108.9,743.2c6.3,1,20.5,2.5,27.3-1.7c0.6-5.1,1.1-10.4,1.5-15.6l-28.6,7.6   C1109,736.6,1108.9,739.9,1108.9,743.2z"></path>
	<path class="st1" d="M1119.5,575c-1.1-2.5-2.2-5-3-7.6c-22.3,3.4-35.5-2.5-39.7-4.8c-0.1,0.1-0.1,0.2-0.2,0.4   c-1.1,2.1-2.3,4.1-3.6,6C1079,571.6,1100.4,579.9,1119.5,575z"></path>
	<path class="st4" d="M1135,613.3c-1.5-8-9.4-24.1-12.5-31.7c-0.9-2.2-2-4.4-3-6.6c-19.1,4.8-40.5-3.4-46.5-6   c-6.3,9.3-15,17.6-20.9,30.4c-6.9,14.3-9.2,112.8-15.3,125.8c5.7,1.9,21.2,10.9,34.3,13.7c10.5,2.3,22.1-9,33.2-3.1   c13.2,7.1,29.3,4.6,37.3-0.6C1143.9,708,1145,667.3,1135,613.3z"></path>
	<path class="st2" d="M1116.2,568.4c1.7-0.2,3-1.7,2.9-3.5c-0.4-7.3-0.9-25.3-1.6-34.1c-0.8-10-10.2-17-23.6-18.3   c-12-1.1-20.6,9.8-19.7,20.4c0.4,4.5,3.4,9,4,13.4c0.7,5.1-0.7,10.3-2.9,15c-0.6,1.3,0.1,2.8,1.4,3.3   C1083.2,567.2,1098.5,570.4,1116.2,568.4z"></path>
	<path class="st5" d="M1098.8,486.7c0,0,2-1.5,5.6,0.4c3.7,1.9,0.3,8.6,1.9,10.4c1.6,1.8-1.7,4.2-4,4.3c-2.3,0.1-8.2,7.5-10.3,7.1   c-2.2-0.4-7.4-7.8-5.6-14.9C1087.9,488.3,1093.8,480.8,1098.8,486.7z"></path>
	<path class="st9" d="M1087.1,528.6l-10.1,13.6c0.5,1.4,1,2.8,1.2,4.2c0.7,5.1-0.7,10.3-2.9,15   C1088,550.9,1087.1,528.6,1087.1,528.6z"></path>
	<path class="st3" d="M1122.5,581.6c-0.9-2.2-2-4.4-3-6.6c-5.1,1.3-10.3,1.6-15.4,1.4c2.6,7,5.5,15,8.3,23.9   c9.7,31.4,9.7,89.8,1.7,110.1c-8.1,20.3-4-4.7-8.9-17.3c-4-10.2-9.3,26.6-11.3,41.2c3.5-0.6,7-0.4,10.5,1.4   c13.2,7.1,29.3,4.6,37.3-0.6c2.3-27.2,3.3-67.9-6.7-121.8C1133.5,605.3,1125.6,589.2,1122.5,581.6z"></path>
	<g>
		<polygon class="st6" points="1040.5,660 1095.1,663.7 1090.5,742.6 1024.5,736.8 1035.6,665 1040.6,662.4   "></polygon>
	</g>
	<g>
		<polygon class="st6" points="1102.9,664.3 1104.2,740 1097.2,738.4 1090.5,742.6 1095.1,663.7   "></polygon>
	</g>
	<g>
		<polygon class="st5" points="1102.9,664.3 1094.7,669.1 1035.6,665 1040.6,662.4 1040.5,660   "></polygon>
	</g>
	<g>
		<polygon class="st0" points="1097.2,738.4 1100,666.7 1102.9,664.3 1104.2,740   "></polygon>
	</g>
	<g>
		<path class="st9" d="M1077.7,674.6c0.3,0,0.6-0.2,0.8-0.5c4.6-8.9,5.8-29.6-1.2-35.9c-2.6-2.4-5.2-3.2-7.7-2.5    c-5.9,1.9-10.7,13.1-15.3,35.4c-0.1,0.5,0.2,1,0.7,1.1c0.5,0.1,1-0.2,1.1-0.7c4.3-20.9,9-32.3,14-34c1.8-0.6,3.7,0.1,5.8,2.1    c5.8,5.3,5.4,24.9,0.8,33.7c-0.2,0.5-0.1,1,0.4,1.3C1077.4,674.6,1077.5,674.7,1077.7,674.6z"></path>
	</g>
	<g>
		<path class="st3" d="M1092.5,501.6l-1.5,11.9c-0.2,2,4,7.6,7.4,5.4c1-0.6,0.1-3.5-0.5-5.6l-1.2-10.5L1092.5,501.6z"></path>
		<path class="st8" d="M1097.5,510.5c-3.9-1.5-4.8-6.7-4.8-6.7l4.1,0.5L1097.5,510.5z"></path>
		<path class="st3" d="M1094.3,495.3l-1.8,4.3c-1.4,3.4-0.1,7.5,3.3,9c3.1,1.4,6.7,0.3,8.2-3.7c1.3-3.5-0.5-7.4-1-9.2    C1101.8,491.4,1096.7,490.5,1094.3,495.3z"></path>
		<path class="st3" d="M1092.7,500c-0.2-0.4-0.3-0.8-0.3-1.2c-0.2-0.8-0.6-1.9-1.6-1.1c-1.5,1.1-0.4,5.2,1.5,5.1    C1093.7,502.8,1093.1,501,1092.7,500z"></path>
		<path class="st2" d="M1099.2,502.9c0,0,1.7,0.2,4.1-0.3c0,0,0,1.2-0.7,1.7C1101.7,505,1100,504.8,1099.2,502.9z"></path>
		<g>
			<path class="st3" d="M1096.5,507.2c1.3,0.4,3.8,0.4,5-0.1c1-0.5,2.3-2.1,2.5-2.4c0,0.1,0,0.1-0.1,0.2c-1.5,4-5.1,5.1-8.2,3.7     c-2.1-0.9-3.4-2.8-3.8-5C1093.4,505.8,1095.3,506.9,1096.5,507.2z"></path>
		</g>
	</g>
	<g>
		<path class="st9" d="M1060.9,672.6c0,0,0.1,0,0.1,0c0.6,0,1.2-0.5,1.1-1.2c0-0.2-0.2-20.3,4.4-27.5c2.5-3.9,4.3-5.7,6.1-6    c1.4-0.2,3.1,0.5,5.4,2.3c3.6,2.8,5.8,20.7,6.4,31.4c0,0.6,0.6,1.1,1.2,1.1c0.6,0,1.1-0.6,1.1-1.2c-0.2-2.9-1.7-28.7-7.3-33.1    c-2.9-2.2-5.1-3.1-7.2-2.7c-2.5,0.4-4.8,2.5-7.7,7.1c-5,7.8-4.7,28-4.7,28.8C1059.9,672,1060.3,672.5,1060.9,672.6z"></path>
	</g>
	<g>
		<g>
			<g>
				<polygon class="st1" points="1048.6,664.8 1095.1,663.7 1097.5,730.9 1041.2,731.2 1044.8,669.5 1048.9,666.9     "></polygon>
			</g>
			<g>
				<polygon class="st3" points="1101.8,663.5 1109,727.6 1102.9,726.7 1097.5,730.9 1095.1,663.7     "></polygon>
			</g>
		</g>
		<g>
			<polygon class="st4" points="1101.8,663.5 1095.3,668.2 1044.8,669.5 1048.9,666.9 1048.6,664.8    "></polygon>
		</g>
		<g>
			<polygon class="st1" points="1102.9,726.7 1099.5,669.5 1101.8,663.5 1109,727.6    "></polygon>
		</g>
	</g>
	<g>
		<path class="st9" d="M1058,672.6c0,0,0.1,0,0.1,0c0.6,0,1.2-0.5,1.1-1.2c0-0.2-0.2-20.3,4.4-27.5c2.5-3.9,4.3-5.7,6.1-6    c1.4-0.2,3.1,0.5,5.4,2.3c3.6,2.8,5.8,20.7,6.4,31.4c0,0.6,0.6,1.1,1.2,1.1c0.6,0,1.1-0.6,1.1-1.2c-0.2-2.9-1.7-28.7-7.3-33.1    c-2.9-2.2-5.1-3.1-7.2-2.7c-2.5,0.4-4.8,2.5-7.7,7.1c-5,7.8-4.7,28-4.7,28.8C1056.9,672,1057.4,672.5,1058,672.6z"></path>
	</g>
	<path class="st3" d="M1069.6,627.5c1,0.3,8.4,8,5.4,9.5c-1.7,0.9,3.3,5.1-1.6,4.6c-0.7-0.1-4.3,0.6-5.7-0.2c-2.3-1.4-2.5-3-3.8-7.6   C1063.3,631.5,1063.8,625.6,1069.6,627.5z"></path>
	<path class="st2" d="M1070.8,570.4c-0.6,7.2,6.8,60.2-2.6,63.1c-14.4,4.5-18.8-49.2-17.1-64.5c1.8-16.1,11-27.6,18.8-39.6   c6.2-9.5,14-16.2,18-8.5C1091.1,527,1071.8,558.7,1070.8,570.4z"></path>
	<g>
		<path class="st3" d="M1119.4,790.2c2,1.8,10.3,12.6,13.2,12.9c1.6,0.2,2.9,0,3.7-0.2c-1.9-1.5-3.9-4.9-5.8-8.6    c-1.3-2.5-2-5.8-2-10.8l-12.9,4.1c0,0-0.2,0.5-0.5,1.3C1116.4,788.8,1118.2,789,1119.4,790.2z"></path>
		<path class="st1" d="M1143.9,806.9c-1.1-1-3-2.2-6.5-3.4c-0.3-0.1-0.7-0.3-1-0.6c-0.9,0.2-2.1,0.4-3.7,0.2    c-2.9-0.3-11.2-11.1-13.2-12.9c-1.3-1.1-3-1.3-4.1-1.3c-0.6,1.8-1.6,5-1.1,7c0.7,2.9,2.5,11.2,2.2,13.9h3.6v-7.6    c0,0,2.8-0.3,4.2,1.3c0.5,0.6,1.1,1.6,1.5,2.7c0.9,2.2,3.1,3.6,5.5,3.6h11.5C1144.2,809.7,1145,807.9,1143.9,806.9z"></path>
	</g>
	<g>
		<path class="st3" d="M1038.3,770.6c0.5,2.7,0.5,16.3,2.6,18.3c1.2,1.1,2.3,1.7,3.1,2.1c-0.6-2.3-0.1-6.2,0.7-10.3    c0.5-2.8,2-5.8,5-9.7l-12.7-4.6c0,0-0.5,0.3-1.2,0.7C1036.8,767.7,1038,768.9,1038.3,770.6z"></path>
		<path class="st1" d="M1047.6,798.7c-0.2-1.5-1.1-3.6-3-6.7c-0.2-0.3-0.3-0.7-0.5-1.1c-0.8-0.4-1.9-1-3.1-2.1    c-2.1-2-2.1-15.6-2.6-18.3c-0.3-1.7-1.6-2.9-2.5-3.5c-1.6,1-4.3,3-5.1,4.9c-1.2,2.8-4.9,10.4-6.7,12.3l2.9,2.2l4.6-6    c0,0,2.4,1.5,2.6,3.6c0.1,0.8-0.1,1.9-0.4,3.1c-0.6,2.3,0.3,4.7,2.2,6.2l9.1,7C1046.1,801.2,1047.8,800.2,1047.6,798.7z"></path>
	</g>
	<path class="st3" d="M1138.1,612.7c0,0,1.6,6.3,3.3,6.7c1.7,0.4,2,0.5,2.9-0.2c0.9-0.7-2.2-4.2-2.2-4.2s0.2-3.2,0.1-3.2   C1142.1,611.7,1138.1,611.1,1138.1,612.7z"></path>
	<path class="st2" d="M1088,520.9c-0.5-1-1-1.7-1.6-2.2c-1,2.5-3.7,9.1-9.1,18.1c-6.9,11.6-12.5,17.5-13.6,32.8   c-1.1,15.3,1.1,53.8,6.7,61.9c5.8-10.3-0.2-54.5,0.4-61.1C1071.8,558.7,1091.1,527,1088,520.9z"></path>
	<path class="st9" d="M1116.2,568.4c1.7-0.2,3-1.7,2.9-3.5c-0.4-7.3-0.9-25.3-1.6-34.1c-0.6-7.7-6.3-13.6-15-16.5   c3.2,3.5,7.5,8.7,8.7,13c2.1,7.1-5.8,8.3-10.5,13.4c-3.3,3.6-5.4,17.2-2.1,28C1104,569.2,1110,569.1,1116.2,568.4z"></path>
</g>
<g>
	<path class="st0" d="M921.9,495.9c0,0,14.6-3.4,28.7,3.5c14.1,6.9,15.6,47.8,14.3,76c-1.3,28.3-21.8,22.7-39.1,16.3   C908.5,585.4,921.9,495.9,921.9,495.9z"></path>
	<path class="st9" d="M862.1,500.1c0,0-61.2,39.4-50.1,67c11.1,27.6,62.2-21.1,67.2-37.2C884.3,513.9,862.1,500.1,862.1,500.1z"></path>
	<g>
		<path class="st2" d="M955.4,737.9c0,0,6.1,7.8,6.3,10.8c1,0.3,2.4,0.4,4.1-0.5c1.9-1.1,5.4-3.7,8.1-6.2c-2.9-2.8-6.6-8.6-7.9-10.4    L955.4,737.9z"></path>
		<g>
			<path class="st2" d="M968.5,754.3c-5.5,3.8-12.3,7.2-15.7,8.9c0.1,0.4,0.3,0.8,0.5,1.2c1.2,2.1,22.5-10.2,24.9-14.2     c0.7-1.1,0.5-2.5-0.3-3.8C975.7,748.6,972.4,751.6,968.5,754.3z"></path>
			<path class="st6" d="M968.5,754.3c3.9-2.7,7.2-5.7,9.5-7.9c-0.7-1.3-1.8-2.6-3.2-3.6c-0.3-0.2-0.6-0.5-0.9-0.8     c-2.7,2.6-6.2,5.1-8.1,6.2c-1.7,1-3.1,0.9-4.1,0.5c0,0.1,0,0.1,0,0.2c-0.1,1.2-1.3,2.9-3.1,5.2c-2.4,3.6-7,5.1-5.7,9.1     C956.2,761.5,963,758.1,968.5,754.3z"></path>
		</g>
	</g>
	<g>
		<path class="st2" d="M868.8,759.5c0,0,1,9.9-0.5,12.5c0.7,0.8,1.8,1.7,3.8,1.8c2.2,0.1,6.5-0.2,10.2-0.9c-0.9-3.9-0.9-10.8-1-13    L868.8,759.5z"></path>
		<g>
			<path class="st2" d="M871,780.4c-6.7,0.3-14.2-0.5-18-1c-0.1,0.4-0.2,0.8-0.2,1.3c-0.1,2.4,24.4,3.5,28.6,1.4     c1.1-0.6,1.7-1.8,1.8-3.4C880.1,779.5,875.8,780.2,871,780.4z"></path>
			<path class="st6" d="M871,780.4c4.7-0.2,9.1-0.9,12.3-1.6c0.1-1.5-0.2-3.2-0.8-4.8c-0.1-0.4-0.2-0.8-0.3-1.2     c-3.7,0.7-8,1-10.2,0.9c-2-0.1-3.1-0.9-3.8-1.8c0,0.1-0.1,0.1-0.1,0.2c-0.7,1-2.7,1.7-5.4,2.7c-3.9,1.8-8.7,0.5-9.7,4.6     C856.8,779.9,864.3,780.7,871,780.4z"></path>
		</g>
	</g>
	<path class="st8" d="M936.5,669c-5.3-19-1.4-70.5-10.6-78.3c-5.1-4.3-63.7,1.7-63.7,1.7s-10.9,37.5-12.5,66.6   c-1.6,29.1,2.8,105.2,10,106.8c7.2,1.6,17.1,2.6,22.7-1.9c2.7-2.2-2.2-78.2-1.6-92.3c0.2-3.7,5.8-32,11.3-49   c1.7,19.2,7.1,48.6,13.8,63.8c18.4,41.9,38.3,59.6,40.6,61.5c3.1,2.6,21.5-3.4,24.6-10.3C973.3,732.9,941.7,687.5,936.5,669z"></path>
	<g>
		<g>
			<path class="st2" d="M959,739.3c-0.3,0-0.6-0.2-0.8-0.5c-1.5-2.3-36.2-55.6-42.1-79.4c-5.9-23.8-4.6-52.9-4.6-53.2     c0-0.6,0.5-1,1.1-1c0.6,0,1,0.5,1,1.1c0,0.3-1.3,29.1,4.6,52.6c5.9,23.5,41.5,78.2,41.9,78.8c0.3,0.5,0.2,1.1-0.3,1.4     C959.3,739.2,959.2,739.3,959,739.3z"></path>
		</g>
		<g>
			<path class="st2" d="M964.6,735.3c-0.3,0-0.7-0.2-0.9-0.5c-0.3-0.6-33.5-57.7-40.8-74.4c-7.4-16.9-5.2-53.8-5.1-55.4     c0-0.6,0.5-1,1.1-0.9c0.6,0,1,0.5,0.9,1.1c0,0.4-2.2,38,4.9,54.4c7.2,16.6,40.3,73.6,40.7,74.2c0.3,0.5,0.1,1.1-0.4,1.4     C965,735.2,964.8,735.3,964.6,735.3z"></path>
		</g>
	</g>
	<path class="st5" d="M932.8,502.9c-4.6-7.1-20.9-16.3-38.1-13.8c-17.2,2.6-29.4,6.5-33.2,10.8c-7.8,8.9-1.8,58.5-2.5,70   c-1.5,25.4-4.5,29.6,21.9,32.6c22.4,2.6,52.9,13.3,55.7,1.4C940.5,587.2,946.6,523.9,932.8,502.9z"></path>
	<path class="st5" d="M870.6,601c-15.2-3.3-12.9-9.6-11.6-31.1c0.7-11.5-5.3-61.1,2.5-70c2.3-2.6,7.6-5.1,15.3-7.2   c-4.5,10.7-12.4,32.2-12,50.6C865.1,559.9,868.4,585.1,870.6,601z"></path>
	<path class="st0" d="M886.1,492.6c1.5-2.7,15.9-3.9,19.6,0c1.4,1.5-2.8,19.1-3.5,40.4c-1,28.3,1.1,62.9,0.5,73.3   c-6.8-1.3-13.8-2.7-20.3-3.6C882.8,585.1,884.7,495,886.1,492.6z"></path>
	<path class="st9" d="M889.1,467c0,0,0.9-6.3,6.8-6c8.3,0.5,9.7,9.8,7.8,12.9c-2.7,4.2-5.5,2.5-8.1,0.5   C892.9,472.3,889.1,467,889.1,467z"></path>
	<path class="st8" d="M900.1,471.1c0,0-5.2-8.6-9.1-10.1c-5.3-2.1-7.8,2.5-7.1,4.9c0.7,2.4,5.7,7.4,7.3,7.7   C892.8,473.9,900.1,471.1,900.1,471.1z"></path>
	<path class="st1" d="M899.9,476.5l2.6,15.4c-0.3,2.1-12.3,6-15.1,2.9c-0.8-0.9-0.3-2.8,1-4.8l7.2-10.8L899.9,476.5z"></path>
	<path class="st8" d="M894.1,481.4c2.3,0,5.5-0.1,5.5-0.1s-0.8,3.6-4.4,5.8c-1.9,1.2-4,1.5-5.8,1.4L894.1,481.4z"></path>
	<path class="st5" d="M888.6,470c0,0-1.6-1.8,0.9-4.6c2.5-2.8,12.3,6,12.6,9c0.5,4.5-1.3,7.1-1.3,7.1S888.7,475.2,888.6,470z"></path>
	<path class="st1" d="M897.7,471.3l1.9,8.4c0.4,2.8-1.5,5.5-4.3,6c-2.3,0.4-3.7,0.3-6.5-0.3c-2.3-0.5-3.3-2.9-3-5.9   c0.4-4,1.8-7.5,2.7-9.4C890.6,465.8,896.1,465.9,897.7,471.3z"></path>
	<path class="st5" d="M899.6,479.7l-1.9-8.4c-0.2-0.7-0.5-1.2-0.8-1.7c0,1.7-0.3,5.2-0.9,5.8c-1.3,1.4-1.1,0-3.8-0.3   c-1.7-0.2-4.2,0.4-5.8,0.8c-0.3,1.1-0.5,2.4-0.6,3.6c-0.3,3.1,0.7,5.4,3,5.9c2.8,0.6,4.2,0.7,6.5,0.3   C898.1,485.2,900,482.5,899.6,479.7z"></path>
	<path class="st2" d="M892.2,476.8c0,0-2,0.3-4.7-0.3c0,0-0.2,1.8,0.8,2.5C889.4,479.7,891.4,478.8,892.2,476.8z"></path>
	<g>
		<path class="st5" d="M888.4,482.2c2.7-0.3,4.3,3.9,9.3,0.6c0.9-0.6,1.6-2.3,1.9-3.2l0,0.2c0.4,2.8-1.5,5.5-4.3,6    c-2.3,0.4-3.7,0.3-6.5-0.3c-1.4-0.3-2.3-1.3-2.8-2.7C886.6,482.7,887.6,482.3,888.4,482.2z"></path>
	</g>
	<path class="st1" d="M897.2,474.6c0.2-0.5,0.2-1,0.3-1.6c0.1-1,0.5-2.5,1.9-1.6c2.1,1.3,1.7,6.2-0.9,6.4   C896.6,477.9,896.8,475.8,897.2,474.6z"></path>
	<path class="st11" d="M810.5,557.6c0.4-1.1,1-2.2,1.8-3.1c4.9-5.3,23.1-23.3,43.9-19.6c24.3,4.4-6.8,36.5-22,41.7   C819.4,581.7,805.3,574.1,810.5,557.6z"></path>
	<path class="st11" d="M927.5,500.1c8.3-6.1,39,27.6,48.1,63.8c9.1,36.3-18.6,76.6-28.7,75.1c-18.7-2.8,3.5-55.9,2.8-69.4   C948.9,555.2,912.6,511,927.5,500.1z"></path>
	<g>
		<path class="st1" d="M942.4,635.8c0,0-3.5,3.5-4.4,5.6c-0.9,2.1-4,2.9-2.7,3.8c1.3,0.9,3.9-0.3,4.5-1.5c0.7-1.2,4.2,0,5.1-2    C945.8,639.9,944.2,634,942.4,635.8z"></path>
		<path class="st1" d="M950.2,635.8c0,0,1.7,6-1.6,10.4c-2.9,3.9-6.9,5.6-9.4,3.7c-2.1-1.6,3.4-6.3,3.2-8.8s-1.5-6.3,1.5-7.1    C946.9,633.2,950.1,633,950.2,635.8z"></path>
	</g>
	<path class="st0" d="M872.2,494.2c0,0-8.2,36.6-8.5,46.2c-0.3,8.8-4.7,27.5-5.5,30.6c-0.1,0.3-0.1,0.6-0.1,1l0.3,7.2   c0,0,7.7-14.8,11.7-36.1c4-21.3,9.2-51,9.2-51S876.3,490.7,872.2,494.2z"></path>
	<path class="st1" d="M864.7,549c-1.1-0.1-2-1-2.3-2.2c-0.8-3.5-2.1-10.2,0-10.8c2.8-0.8,10.6-0.1,9.8,1.8c-0.8,1.9-2.8,1.7-2.8,1.7   s1.9,0.5,2.1,2.2c0.1,1.7-1.5,6.3-2.7,7C868.1,549.1,866.1,549.1,864.7,549z"></path>
	<path class="st0" d="M919.3,492.7c0,0-3.4,11.7,1.6,31.4c4.5,17.6,17,36.7,19.6,40.6c0.3,0.5,0.5,1,0.6,1.6c0.2,1.8,0.6,6-0.7,8.3   c-1.6,3-19.7-17.9-26.4-36.8c-6.7-18.9-2.3-47.7-2.3-47.7S916.9,489.8,919.3,492.7z"></path>
	<path class="st9" d="M975.6,564c-8.6-34.3-36.6-66.3-46.6-64.5c6.5,8.4,30.4,39.6,34.1,50.8c4.2,12.9,5.9,39.8,0,51.7   c-4.6,9.3-17.8,17.1-23.7,24.3c0.1,7,2.1,11.9,7.5,12.8C957,640.5,984.7,600.2,975.6,564z"></path>
	<g>
		<g>
			<path class="st2" d="M870.8,761.7c-0.5,0-1-0.4-1-1c0-0.8-1.3-83-2.1-93.1c-0.8-10.4,10.8-50.3,11.3-52c0.2-0.5,0.7-0.8,1.2-0.7     c0.5,0.2,0.8,0.7,0.7,1.2c-0.1,0.4-12,41.2-11.2,51.3c0.8,10.2,2,89.9,2.1,93.3C871.8,761.2,871.4,761.7,870.8,761.7     C870.8,761.7,870.8,761.7,870.8,761.7z"></path>
		</g>
		<g>
			<path class="st2" d="M876.8,760.7c-0.5,0-1-0.4-1-1c0-0.7-2.7-71.6-1.5-91.3c1.2-19.8,11.9-48.6,12-48.9c0.2-0.5,0.8-0.8,1.3-0.6     c0.5,0.2,0.8,0.8,0.6,1.3c-0.1,0.3-10.7,28.8-11.9,48.3c-1.1,19.6,1.5,90.4,1.5,91.1C877.8,760.2,877.4,760.7,876.8,760.7     C876.8,760.7,876.8,760.7,876.8,760.7z"></path>
		</g>
	</g>
</g>
</svg>
