<svg width="234" height="274" viewBox="0 0 234 274" fill="none" xmlns="http://www.w3.org/2000/svg">
<path d="M14.9215 87.0741C14.1378 86.6243 11.6676 86.5878 10.2688 86.9388C7.59688 87.608 6.99172 85.9808 6.03935 85.4031C5.08698 84.8253 4.71662 86.8328 6.58498 88.5404C7.79198 89.6374 9.70663 89.5752 8.4335 90.3687C7.16036 91.1622 -1.81769 89.9738 1.36018 92.8771C1.8066 93.2867 3.83038 94.6396 3.83038 94.6396C3.83038 94.6396 5.53341 95.8646 6.74702 96.2339C8.7708 96.8518 12.3687 96.1936 15.4176 94.1167C16.9156 93.1002 19.2733 89.5862 14.9215 87.0741Z" fill="#F96023"/>
<g clip-path="url(#clip0_2_11925)">
<path d="M180.535 13.8947H208.347C208.347 13.8947 208.208 9.14086 206.601 8.25015C204.994 7.35944 202.826 9.64696 202.826 9.64696C202.826 9.64696 203.793 6.72851 202.176 2.92274C200.559 -0.883035 193.475 0.76681 191.209 3.81008C189.717 5.84714 188.339 7.96468 187.081 10.153C187.081 10.153 181.31 7.99373 180.535 13.8947Z" fill="#006EFF"/>
<path d="M155.299 252.65C155.299 252.65 158.364 261.8 157.613 264.121C158.583 265.048 159.872 265.569 161.216 265.575C163.161 265.626 166.781 265.238 169.822 264.563C168.232 261.189 167.725 253.679 167.2 251.742L155.299 252.65Z" fill="white"/>
<path d="M161.711 271.419C155.96 271.8 149.313 271.27 145.997 270.94C145.99 271.335 146.021 271.731 146.092 272.12C146.481 274.239 167.875 274.715 171.103 272.772C171.969 272.249 172.209 271.142 172.002 269.792C168.625 270.629 165.182 271.173 161.711 271.419Z" fill="#141414"/>
<path d="M161.713 271.419C165.184 271.173 168.627 270.629 172.004 269.793C171.723 268.313 171.168 266.899 170.366 265.622C170.166 265.284 169.984 264.935 169.822 264.576C166.995 265.203 164.111 265.542 161.215 265.589C159.872 265.582 158.582 265.062 157.612 264.135C157.597 264.186 157.579 264.237 157.558 264.286C157.149 265.194 155.589 265.835 153.445 266.756C150.4 268.392 146.076 267.411 146.002 270.953C149.314 271.27 155.975 271.8 161.713 271.419Z" fill="#141414"/>
<path d="M93.6603 252.65C93.6603 252.65 93.6604 261.722 92.1211 264.023C92.6319 264.728 93.5589 265.423 95.2673 265.467C97.2091 265.518 100.991 265.13 104.286 264.479C103.823 261.105 105.839 253.682 105.978 251.786L93.6603 252.65Z" fill="white"/>
<path d="M93.7938 271.243C87.8769 271.621 81.3375 271.095 78.1034 270.764C77.9648 271.145 77.8628 271.538 77.7989 271.938C77.4606 274.037 98.8988 274.513 102.81 272.59C103.862 272.07 104.474 270.97 104.721 269.637C101.125 270.45 97.472 270.987 93.7938 271.243Z" fill="#141414"/>
<path d="M93.7939 271.243C97.4721 270.987 101.125 270.45 104.721 269.637C104.945 268.258 104.863 266.846 104.481 265.501C104.392 265.161 104.326 264.815 104.285 264.465C100.99 265.14 97.2074 265.504 95.2655 265.454C93.574 265.41 92.6302 264.715 92.1194 264.01C92.0855 264.064 92.0483 264.114 92.0145 264.162C91.2939 265.059 89.5043 265.697 87.0313 266.608C83.4216 268.227 79.3789 267.255 78.1035 270.764C81.3377 271.095 87.877 271.621 93.7939 271.243Z" fill="#141414"/>
<path d="M90.6449 46.6387C90.6449 46.6387 67.4645 76.7981 62.0145 81.6025C56.5644 86.407 17.6597 80.0033 13.9756 86.5993C10.2915 93.1953 14.3647 101.539 35.7623 100.375C57.1598 99.211 69.6127 97.4026 76.2265 93.9409C82.8403 90.4793 101.68 63.5993 101.988 61.0756C102.296 58.552 90.6449 46.6387 90.6449 46.6387Z" fill="#E0E0E0"/>
<path d="M94.2681 50.4816C93.8554 50.0328 91.0103 51.5444 90.6415 51.1564C88.1618 60.1512 90.3032 77.8271 90.3641 78.6369C94.762 72.8641 98.8013 66.9328 100.76 63.5993C98.7743 59.5675 95.8108 53.6058 94.2681 50.4816Z" fill="#141414"/>
<path d="M103.846 96.0089L89.2148 256.735L108.731 257.218C108.731 257.218 133.143 100.409 129.706 93.853C126.269 87.2975 103.846 96.0089 103.846 96.0089Z" fill="#141414"/>
<path d="M142.066 90.5635C126.792 83.6166 114.092 98.1244 114.092 98.1244L149.184 256.985L169.303 256.87C169.303 256.87 157.34 97.5272 142.066 90.5635Z" fill="#141414"/>
<path d="M147.043 92.3887C144.949 68.5655 142.039 35.4337 123.057 33.298C110.851 31.9248 84.2404 39.7085 89.8089 57.742C93.5065 69.7127 96.3178 73.397 99.0817 78.441C100.773 81.518 102.465 97.6419 102.837 101.519C103.415 107.592 136.329 103.445 146.244 102.052C146.895 101.96 147.483 101.615 147.879 101.092C148.275 100.569 148.446 99.9105 148.355 99.2614C148.344 99.1669 148.326 99.0733 148.301 98.9814C147.715 96.8188 147.294 94.6149 147.043 92.3887Z" fill="#E0E0E0"/>
<path d="M103.656 22.3633C103.656 22.3633 101.592 20.7506 102.272 18.7667C102.952 16.7829 105.632 14.2625 107.915 15.3085C110.199 16.3544 110.172 18.1088 110.172 18.1088C110.658 18.2473 111.104 18.5018 111.47 18.8504C111.836 19.199 112.111 19.6311 112.272 20.1095C112.814 21.7459 113.22 25.4876 112.154 26.4019C110.351 27.9471 104.864 25.0624 103.656 22.3633Z" fill="#141414"/>
<path d="M110.99 23.2878L116.207 33.4298C116.501 34.5668 110.703 37.1006 110.371 35.8219C109.566 32.6977 108.744 26.0916 108.744 26.0916L110.99 23.2878Z" fill="#F96023"/>
<path d="M108.695 21.0205L111.554 24.9882C111.956 25.6525 112.083 26.4469 111.907 27.2028C111.732 27.9588 111.267 28.6167 110.613 29.0369C109.524 29.732 108.753 29.9783 107.173 30.2718C105.854 30.5215 104.805 29.5093 104.294 27.8527C103.766 26.072 103.55 24.2139 103.655 22.36C103.786 19.7081 106.645 18.5677 108.695 21.0205Z" fill="#F96023"/>
<path d="M111.555 24.9882L109.566 20.3693C109.313 20.0724 109.147 19.7114 108.47 20.0488C108.808 20.9159 109.035 23.3923 108.896 23.7938C108.538 24.806 108.277 24.1312 106.772 24.5496C105.814 24.8195 104.556 25.248 103.832 25.8317C103.934 26.5174 104.089 27.1942 104.296 27.856C104.82 29.5126 105.855 30.5248 107.174 30.2751C108.754 29.9816 109.526 29.7353 110.615 29.0403C111.271 28.6205 111.736 27.962 111.912 27.205C112.087 26.448 111.959 25.6525 111.555 24.9882Z" fill="#141414"/>
<path d="M107.06 25.0828C106.279 25.512 105.432 25.8074 104.553 25.9566C104.553 25.9566 104.817 26.935 105.51 27.0869C106.204 27.2387 107.076 26.3446 107.06 25.0828Z" fill="white"/>
<path d="M110.103 21.6176C110.198 21.0508 110.472 20.231 111.247 20.7843C112.377 21.5907 112.35 24.445 111.548 24.6812C111.037 24.833 110.056 21.9179 110.103 21.6176Z" fill="#F96023"/>
<path d="M111.115 36.7396C111.083 37.0674 111.153 37.397 111.314 37.6843L111.565 37.9879L111.984 91.4105L116.216 96.0125L119.86 91.4105L112.82 37.907C112.82 37.907 113.304 36.6991 113.053 36.5304C112.803 36.3617 111.416 35.7949 111.115 36.7396Z" fill="#F96023"/>
<path d="M40.3179 91.2823C39.5161 90.8673 36.989 90.8336 35.558 91.1575C32.8245 91.7749 32.2054 90.2735 31.2311 89.7404C30.2568 89.2074 29.8779 91.0596 31.7893 92.6352C33.0241 93.6474 34.9828 93.59 33.6804 94.3222C32.3779 95.0543 23.193 93.9578 26.4441 96.6367C26.9008 97.0146 28.9712 98.2629 28.9712 98.2629C28.9712 98.2629 30.7135 99.3932 31.9551 99.7339C34.0255 100.304 37.7062 99.6968 40.8253 97.7804C42.3578 96.8425 44.7699 93.6002 40.3179 91.2823Z" fill="#F96023"/>
<path d="M122.867 72.8203C127.306 63.8828 129 51.6523 129 51.6523C129 51.6523 124.369 62.324 119.866 68.2385C116.581 72.547 106.246 81.4339 100.881 85.9414C101.351 88.8295 101.777 92.0786 102.116 94.9228C107.907 91.4105 116.216 86.1843 122.867 72.8203Z" fill="#141414"/>
<path d="M126.459 36.8778C113.573 37.2152 101.98 67.1385 92.9132 71.9665C86.4855 75.3809 43.4535 82.9081 39.7593 89.5109C37.2186 94.0454 37.3539 98.9848 45.2567 100.955C48.8494 101.853 55.3008 100.955 61.918 99.943C87.2906 96.0158 97.1589 94.0117 103.634 90.2936C120.549 80.5768 129.213 52.8736 130.657 45.2114C131.141 42.7113 130.465 36.7732 126.459 36.8778Z" fill="white"/>
<path d="M111.523 35.4337C111.523 35.4337 115.095 32.3972 115.481 31.989C115.867 31.5807 117.007 33.5106 116.926 33.6321C116.117 34.8062 114.169 36.9081 113.543 37.2388L111.679 36.564L110.843 37.701C110.843 37.701 109.828 36.7563 109.828 36.591C109.828 36.4257 110.092 34.5666 110.092 34.5666L111.523 35.4337Z" fill="white"/>
</g>
<defs>
<clipPath id="clip0_2_11925">
<rect width="221.232" height="273.287" fill="white" transform="translate(12.7676 0.712891)"/>
</clipPath>
</defs>
</svg>
