<svg width="146" height="254" viewBox="0 0 146 254" fill="none" xmlns="http://www.w3.org/2000/svg">
<g clip-path="url(#clip0_2_12117)">
<path d="M64.672 240.663C65.9491 241.907 71.0349 249.14 72.9225 249.404C73.7263 249.522 74.5442 249.506 75.3426 249.356C74.1735 248.361 72.9412 246.078 71.8279 243.602C71.0833 241.933 70.6849 239.758 70.8301 236.555L62.3674 238.879C62.3674 238.879 62.2147 239.207 62.0137 239.713C62.7583 239.728 63.8827 239.892 64.672 240.663Z" fill="#F96023"/>
<path d="M80.1199 252.194C79.446 251.501 78.2136 250.67 76.0058 249.784C75.7644 249.676 75.541 249.531 75.3431 249.356C74.5446 249.506 73.7268 249.522 72.923 249.404C71.0354 249.14 65.9495 241.907 64.6725 240.663C63.8832 239.892 62.7588 239.728 62.0142 239.713C61.5599 240.86 60.8674 242.92 61.1429 244.246C61.5413 246.16 62.4572 251.616 62.2003 253.307L64.5682 253.4L64.7693 248.473C64.7693 248.473 66.575 248.358 67.4797 249.438C67.8744 249.983 68.1833 250.586 68.3956 251.225C68.6668 251.932 69.1396 252.543 69.7552 252.983C70.3709 253.422 71.1022 253.671 71.8582 253.698L79.3045 254C79.5172 254.008 79.7276 253.953 79.9087 253.841C80.0899 253.729 80.2334 253.566 80.321 253.372C80.4086 253.178 80.4363 252.962 80.4005 252.752C80.3646 252.542 80.2669 252.348 80.1199 252.194Z" fill="#141414"/>
<path d="M15.743 240.663C14.466 241.907 9.38014 249.14 7.49623 249.404C6.69243 249.522 5.87461 249.506 5.07617 249.356C6.24152 248.361 7.47761 246.078 8.58711 243.602C9.33174 241.933 9.73012 239.758 9.58864 236.555L18.0514 238.879C18.0514 238.879 18.204 239.207 18.4237 239.713C17.6567 239.728 16.5323 239.892 15.743 240.663Z" fill="#F96023"/>
<path d="M0.295349 252.194C0.972964 251.501 2.20161 250.67 4.39082 249.784C4.63254 249.681 4.85724 249.541 5.05727 249.371C5.85571 249.521 6.67353 249.537 7.47732 249.419C9.36124 249.155 14.4471 241.922 15.7241 240.678C16.5134 239.907 17.6378 239.743 18.3862 239.728C18.8367 240.875 19.5292 242.935 19.2537 244.261C18.859 246.175 17.9394 251.631 18.1963 253.322L15.8284 253.415L15.631 248.473C15.631 248.473 13.8216 248.358 12.9169 249.438C12.5222 249.983 12.2133 250.586 12.001 251.225C11.7309 251.932 11.2589 252.543 10.6438 252.983C10.0287 253.423 9.29773 253.671 8.54215 253.698L1.09583 254C0.884383 254.005 0.676091 253.948 0.497335 253.835C0.318579 253.722 0.177401 253.558 0.0916822 253.365C0.00596312 253.171 -0.0204404 252.957 0.015816 252.748C0.0520723 252.54 0.149357 252.347 0.295349 252.194Z" fill="#141414"/>
<path d="M44.6085 3.46366C44.184 2.46807 43.4841 1.61453 42.5909 1.00353C41.6978 0.392541 40.6488 0.0495285 39.5673 0.0149162C35.6952 -0.197371 34.5224 2.07821 34.9134 5.45247C35.3043 8.82672 36.5478 12.7708 34.8426 15.0091C33.1374 17.2474 29.5148 15.3294 27.4559 21.0872C25.397 26.8451 28.3085 29.0797 28.3085 31.6383C28.3085 34.1969 24.1162 34.1262 25.181 38.4576C26.2459 42.789 30.3004 44.8523 34.8091 43.4668C39.3179 42.0814 39.7088 29.6495 39.3514 27.6235C38.994 25.5974 43.1192 23.7874 44.3293 21.3703C46.1126 17.8061 47.4158 6.94592 44.6085 3.46366Z" fill="#141414"/>
<path d="M49.1379 1.25882C50.1506 0.748588 51.249 -0.793298 53.6057 0.551189C58.8628 3.53066 50.9437 15.6869 49.272 16.6106C47.6003 17.5342 45.8281 15.5789 44.9755 14.4765C44.1228 13.3741 42.4735 9.82109 42.4884 6.48408C42.5331 2.26068 47.2764 2.21598 49.1379 1.25882Z" fill="#141414"/>
<path d="M81.9026 63.9731C75.8004 66.4497 66.2653 101.816 71.7272 105.276C83.0754 112.471 86.4598 92.6617 92.9083 77.2243C98.1952 64.6137 86.1396 62.2599 81.9026 63.9731Z" fill="#141414"/>
<path d="M59.3471 26.3087C64.2095 23.9289 77.5906 33.4706 90.5472 58.4349C97.9004 72.5874 93.3135 76.4383 82.8812 76.7586C76.2614 76.9635 47.5521 32.0777 59.3471 26.3087Z" fill="#141414"/>
<path d="M57.7464 74.4272C59.1872 72.2149 66.8942 71.8201 67.7989 74.2968C80.0667 108.535 77.6318 134.072 78.2647 150.646C79.4412 181.435 75.9489 239.873 75.9489 239.873C75.9489 239.873 73.0374 241.08 67.7095 241.073C60.4568 241.073 58.774 239.43 58.774 239.43C58.774 239.43 41.9341 97.6819 43.7138 95.0302C45.4934 92.3785 52.9435 81.82 57.7464 74.4272Z" fill="#FA8C5A"/>
<path d="M21.432 93.6933C22.549 82.9151 27.8396 78.3491 31.5255 70.9749C43.9757 73.31 58.7269 69.0308 65.2275 66.7812C66.8918 72.5018 54.7617 109.38 54.7617 109.38L21.7001 240.268C21.7001 240.268 19.0008 241.334 13.0326 241.334C6.141 241.334 5.07617 240.112 5.07617 240.112C5.07617 240.112 19.9502 108.218 21.432 93.6933Z" fill="#FA8C5A"/>
<path d="M71.6306 86.3823C67.0548 87.8721 53.6514 91.9688 43.5505 93.0861C31.1822 94.4716 22.9316 95.6038 22.9316 95.6038C22.9316 95.6038 25.9102 99.2685 46.2386 98.628C59.4633 98.2146 68.7489 95.8571 73.6262 94.2593C73.0417 91.7044 72.3827 89.075 71.6306 86.3823Z" fill="#141414"/>
<path d="M20.3472 95.2836C17.4431 94.8776 21.5981 80.0138 22.6555 77.2689C27.4956 64.7812 28.8471 42.8187 32.7081 32.5098C36.9934 21.0612 56.0783 22.13 61.0041 24.7594C66.9909 27.9475 70.0513 38.2341 69.8987 46.7889C69.7796 53.3549 66.9202 58.5057 67.1473 61.0345C67.2664 62.446 74.9994 84.0398 72.881 88.036C67.4749 98.222 38.479 97.79 20.3472 95.2836Z" fill="#0252CF"/>
<path d="M47.0303 12.3833L46.2857 23.4036C46.2299 24.8338 50.4519 27.0684 52.7603 25.3254C53.4342 24.8189 52.1907 22.0256 51.6098 20.5247L50.1206 13.0164L47.0303 12.3833Z" fill="#F96023"/>
<path d="M46.8571 6.91599L46.1124 10.2046C45.5167 12.8116 47.0172 15.5453 49.6122 16.197C52.0062 16.7967 54.4523 15.5639 55.0182 12.5211C55.5283 9.82097 53.7598 7.33311 53.1566 6.05194C51.7456 3.11716 48.0001 3.19165 46.8571 6.91599Z" fill="#F96023"/>
<path d="M49.4512 11.0316C50.3112 12.4543 51.6329 13.2104 52.6754 12.7187C53.7179 12.2271 54.2243 10.8342 54.2243 10.8342C52.6458 11.0804 51.0445 11.1466 49.4512 11.0316Z" fill="white"/>
<path d="M36.2988 39.4595C36.2988 39.4595 40.1523 46.9901 54.2258 52.2786C59.7733 54.3643 65.8495 54.7069 68.3738 55.4704C69.0466 53.2727 69.514 51.0172 69.77 48.7331L36.2988 39.4595Z" fill="#141414"/>
<path d="M77.5608 103.004C77.4491 102.049 77.108 101.135 76.5667 100.341C75.8407 99.2647 74.6493 97.6707 73.7558 97.3616C72.3819 96.8923 68.9901 97.2238 69.3848 97.6558C69.7794 98.0878 71.7899 98.2145 71.7899 98.2145C71.7899 98.2145 69.4518 98.9221 68.7481 99.6036C68.0444 100.285 69.1204 101.57 69.8837 101.894C70.6469 102.218 74.4594 105.775 76.8572 105.082C77.5832 104.866 77.6576 103.883 77.5608 103.004Z" fill="#F96023"/>
<path d="M38.2621 28.7482C43.5489 27.4447 49.4799 28.629 56.9672 30.2156C70.5046 33.087 85.9557 37.884 90.7958 37.5749C99.7314 37.0088 125.887 22.2269 133.843 25.0685C141.799 27.9102 138.248 38.4278 129.439 43.262C120.63 48.0961 101.965 55.34 82.1544 54.0625C62.3435 52.7851 39.1556 45.1502 35.3878 39.478C32.5656 35.2211 35.3803 29.4558 38.2621 28.7482Z" fill="#0252CF"/>
<path d="M133.105 24.3012C134.044 22.439 140.045 17.5341 141.989 16.9084C143.932 16.2827 145.753 15.3181 145.988 15.9513C146.222 16.5844 141.788 19.3032 141.736 19.6756C141.736 19.6756 144.882 24.182 143.713 26.2677C142.544 28.3533 135.645 32.1298 134.714 31.5711C130.079 28.8002 132.164 26.1634 133.105 24.3012Z" fill="#F96023"/>
<path d="M46.6804 9.48958C46.6804 9.48958 45.8725 7.73916 44.7183 8.27174C43.5641 8.80432 45.2432 12.4989 46.2299 12.5175C47.2165 12.5361 47.5218 10.8676 46.6804 9.48958Z" fill="#F96023"/>
<path d="M47.3313 139.182H47.2419C47.1345 139.158 47.0409 139.093 46.9816 139C46.9224 138.907 46.9022 138.795 46.9255 138.687C47.1973 137.491 53.5415 109.414 56.1999 105.835C56.2571 105.74 56.3497 105.672 56.4572 105.645C56.5648 105.618 56.6784 105.636 56.7732 105.693C56.868 105.75 56.9362 105.843 56.9627 105.95C56.9892 106.058 56.972 106.172 56.9147 106.267C56.9007 106.289 56.8845 106.31 56.8663 106.33C54.3122 109.771 47.8041 138.579 47.7371 138.869C47.7133 138.959 47.6607 139.038 47.5873 139.095C47.5139 139.151 47.4239 139.182 47.3313 139.182Z" fill="#141414"/>
</g>
<defs>
<clipPath id="clip0_2_12117">
<rect width="146" height="254" fill="white"/>
</clipPath>
</defs>
</svg>
