<svg width="85" height="116" viewBox="0 0 85 116" fill="none" xmlns="http://www.w3.org/2000/svg">
<path d="M84.7724 96.5774H0.230469V115.464H84.7724V96.5774Z" fill="white"/>
<path d="M12.4431 72.4367C4.29838 64.1434 0.230469 54.2056 0.230469 42.6145C0.230469 31.0322 4.29838 21.0944 12.4431 12.7923C20.5789 4.49899 30.5984 0.343506 42.5014 0.343506C54.3957 0.343506 64.4151 4.49899 72.5598 12.7923C80.6956 21.0944 84.7724 31.0322 84.7724 42.6145C84.7724 54.1968 80.6956 64.1434 72.5598 72.4367C64.4151 80.73 54.3957 84.8854 42.5014 84.8854C30.5984 84.8854 20.5877 80.73 12.4431 72.4367Z" fill="#006EFF"/>
<path d="M55.3945 42.1981C56.0612 42.583 56.0612 43.5453 55.3945 43.9302L36.1348 55.0498C35.4682 55.4347 34.6348 54.9536 34.6348 54.1838L34.6348 31.9446C34.6348 31.1748 35.4682 30.6936 36.1348 31.0785L55.3945 42.1981Z" fill="white"/>
</svg>
