<?xml version="1.0" encoding="UTF-8"?>
<svg id="Laag_2" data-name="Laag 2" xmlns="http://www.w3.org/2000/svg" viewBox="0 0 2560.36 2011.47">
  <defs>
    <style>
      .cls-1 {
        fill: #f4f4f4;
        fill-rule: evenodd;
      }
    </style>
  </defs>
  <g id="Laag_1-2" data-name="Laag 1">
    <path class="cls-1" d="m2505.33,319.84l27.51-39.68h.16l27.36,39.68v1691.63H0V83.12h37.62v327.36c2.78-.75,5.27-1.65,7.76-2.86v-144.59h39.23v131.06c5.56.3,11.12,1.05,16.69,2.41v-238.08h9.37v-17.28c0-28.41,10.39-51.7,22.98-51.7s22.98,23.3,22.98,51.7v17.28h9.37v76.5h25.18v-75.3h12.3v-42.69h22.1v42.69h13.32v239.88c4.68.75,9.37,1.65,14.05,2.71v-248.3h27.08l27.08,108.82v160.07c.92.59,1.83,1.27,2.68,1.9.23.17.46.34.69.51v-96.19h18.74v-77.56h9.95v-9.77c0-.9.07-1.84.15-2.78.07-.94.15-1.88.15-2.78h-3.51l18.74-52,18.59,52h-3.51c.29,1.65.29,3.61.29,5.56v9.77h23.13v-9.77c0-.9.07-1.84.15-2.78.07-.94.15-1.88.15-2.78h-3.51l18.74-52,18.59,52h-3.51c.29,1.65.29,3.61.29,5.56h0v9.77h27.08v-126.25h10.25V59.82c0-9.17,3.07-16.53,7.03-17.28v-7.97c0-19.09,6.88-34.57,15.37-34.57s15.37,15.63,15.37,34.57v7.97c3.95.75,7.03,8.27,7.03,17.28v65.23h10.25v298.8h1.02l19.17-52.01,19.17,52.01h17.56v-86.42l26.93-39.68,26.93,39.68v198.85h11.12v-111.98h42.3V92.29h39.81v327.51c2.63-.75,5.27-1.65,7.76-2.86v-144.59h39.81v131.06c5.71.3,11.42,1.05,16.98,2.41v-238.08h9.51v-17.28c0-28.41,10.54-51.7,23.42-51.7s23.42,23.3,23.42,51.7v17.28h9.51v76.5h25.61v-75.45h12.59v-42.69h22.4v42.69h13.61v239.88c4.83.75,9.66,1.65,14.34,2.71v-248.3h27.52l27.52,108.82v160.07c.92.59,1.83,1.27,2.68,1.9.23.17.46.34.69.51v-96.19h19.18v-77.56h10.1v-9.77c0-.9.07-1.84.15-2.78.07-.94.15-1.88.15-2.78h-3.51l19.03-52.01,18.88,52.01h-3.51c.29,1.8.29,3.61.29,5.56h0v9.77h23.57v-9.77c0-.9.07-1.84.15-2.78.07-.94.15-1.88.15-2.78h-3.66l19.03-52.01,18.88,52.01h-3.51c.29,1.8.29,3.61.29,5.56h0v9.77h27.52v-126.25h10.39v-65.38c0-9.17,3.22-16.53,7.17-17.28v-7.97c0-19.09,7.03-34.57,15.52-34.57s15.52,15.63,15.52,34.57v7.97c3.95.75,7.17,8.27,7.17,17.28v65.38h10.39v218.69l8.05-21.34,9.51,25.55v-37.27l27.52-39.68,26.79,38.78V83.12h39.23v327.36c2.78-.75,5.27-1.65,7.76-2.86v-144.59h39.23v131.06c5.56.3,11.12,1.05,16.69,2.41v-238.08h9.37v-17.28c0-28.41,10.39-51.7,22.98-51.7s22.98,23.3,22.98,51.7v17.28h9.37v76.5h25.18v-75.3h12.3v-42.69h22.1v42.69h13.32v239.88c4.68.75,9.37,1.65,14.05,2.71v-248.3h27.08l27.08,108.82v160.07c.92.59,1.83,1.27,2.68,1.9.23.17.46.34.69.51v-96.19h18.74v-77.56h9.95v-9.77c0-.9.07-1.84.15-2.78.07-.94.15-1.88.15-2.78h-3.51l18.74-52,18.59,52h-3.51c.29,1.65.29,3.61.29,5.56h0v9.77h23.13v-9.77c0-.9.07-1.84.15-2.78s.15-1.88.15-2.78h-3.51l18.74-52,18.59,52h-3.51c.29,1.65.29,3.61.29,5.56h0v9.77h27.08v-126.25h10.24V59.82c0-9.17,3.07-16.53,7.03-17.28v-7.97c0-19.09,6.88-34.57,15.37-34.57s15.37,15.63,15.37,34.57v7.97c3.95.75,7.03,8.27,7.03,17.28v65.23h10.25v298.8h1.02l19.17-52.01,19.18,52.01h17.57v-86.42l26.93-39.68,26.93,39.68v198.85h11.12v-111.98h42.3V92.29h39.81v327.36c2.63-.75,5.27-1.65,7.76-2.86v-144.59h39.81v131.06c5.71.3,11.42,1.05,16.98,2.4v-238.08h9.51v-17.28c0-28.41,10.54-51.7,23.42-51.7s23.42,23.3,23.42,51.7v17.28h9.51v76.5h25.61v-75.45h12.59v-42.69h22.39v42.69h13.62v239.88c4.84.75,9.65,1.65,14.35,2.71v-248.3h27.52l27.51,108.82v160.07c.92.59,1.83,1.27,2.68,1.9.23.17.46.34.69.51v-96.19h19.17v-77.56h10.1v-9.77c0-.9.07-1.84.14-2.78s.14-1.88.14-2.78h-3.5l19.03-52,18.88,52h-3.52c.3,1.8.3,3.61.3,5.56v9.77h23.56v-9.77c0-.9.07-1.84.16-2.78.07-.94.14-1.88.14-2.78h-3.66l19.03-52,18.88,52h-3.5c.28,1.8.28,3.61.28,5.56v9.77h27.52v-126.25h10.38v-65.38c0-9.17,3.22-16.53,7.18-17.28v-7.97c0-19.09,7.02-34.57,15.5-34.57s15.52,15.63,15.52,34.57v7.97c3.95.75,7.17,8.27,7.17,17.28v65.38h10.4v218.69l8.05-21.34,9.51,25.55v-37.27Z"/>
  </g>
</svg>