<svg width="13" height="15" viewBox="0 0 13 15" fill="none" xmlns="http://www.w3.org/2000/svg">
<g clip-path="url(#clip0_176_898)">
<path d="M3.09375 3.75H3.7128V5H3.09375V3.75Z" fill="#006EFF"/>
<path d="M4.33203 3.75H4.95108V5H4.33203V3.75Z" fill="#006EFF"/>
<path d="M5.57031 3.75H6.18936V5H5.57031V3.75Z" fill="#006EFF"/>
<path d="M3.09375 5.625H3.7128V6.875H3.09375V5.625Z" fill="#006EFF"/>
<path d="M4.33203 5.625H4.95108V6.875H4.33203V5.625Z" fill="#006EFF"/>
<path d="M5.57031 5.625H6.18936V6.875H5.57031V5.625Z" fill="#006EFF"/>
<path d="M3.09375 7.5H3.7128V8.75H3.09375V7.5Z" fill="#006EFF"/>
<path d="M4.33203 7.5H4.95108V8.75H4.33203V7.5Z" fill="#006EFF"/>
<path d="M5.57031 7.5H6.18936V8.75H5.57031V7.5Z" fill="#006EFF"/>
<path d="M11.7619 5H8.04762V0H1.2381V13.75H0V15H13V13.75H11.7619V5ZM2.47619 13.75V1.25H6.80952V13.75H2.47619ZM8.04762 6.25H10.5238V6.875H8.66667V8.125H10.5238V8.75H8.66667V10H10.5238V10.625H8.66667V11.875H10.5238V13.75H8.04762V6.25Z" fill="#006EFF"/>
<path d="M3.09375 1.875H3.7128V3.125H3.09375V1.875Z" fill="#006EFF"/>
<path d="M4.33203 1.875H4.95108V3.125H4.33203V1.875Z" fill="#006EFF"/>
<path d="M5.57031 1.875H6.18936V3.125H5.57031V1.875Z" fill="#006EFF"/>
<path d="M3.09375 9.375H3.7128V10.625H3.09375V9.375Z" fill="#006EFF"/>
<path d="M5.57031 9.375H6.18936V10.625H5.57031V9.375Z" fill="#006EFF"/>
<path d="M4.33203 9.375H4.95108V10.625H4.33203V9.375Z" fill="#006EFF"/>
<path d="M3.09375 11.25H3.7128V12.5H3.09375V11.25Z" fill="#006EFF"/>
<path d="M5.57031 11.25H6.18936V12.5H5.57031V11.25Z" fill="#006EFF"/>
<path d="M4.33203 11.25H4.95108V12.5H4.33203V11.25Z" fill="#006EFF"/>
</g>
<defs>
<clipPath id="clip0_176_898">
<rect width="13" height="15" fill="white"/>
</clipPath>
</defs>
</svg>
