<svg width="14" height="11" viewBox="0 0 14 11" fill="none" xmlns="http://www.w3.org/2000/svg">
<path d="M2.18814 0H0V1.12785H1.16106L1.71926 7.89495H3.0774C2.90041 8.1312 2.791 8.42218 2.791 8.74084C2.791 9.51845 3.41678 10.1506 4.1865 10.1506C4.95622 10.1506 5.582 9.51845 5.582 8.74084C5.582 8.42218 5.47319 8.1312 5.29561 7.89495H7.5424C7.36542 8.1312 7.25601 8.42218 7.25601 8.74084C7.25601 9.51845 7.88179 10.1506 8.65151 10.1506C9.42123 10.1506 10.047 9.51845 10.047 8.74084C10.047 8.42218 9.9382 8.1312 9.76061 7.89495H11.7216V6.7671H2.74649L2.18814 0ZM4.1865 9.0228C4.03244 9.0228 3.9074 8.89588 3.9074 8.74084C3.9074 8.58579 4.03244 8.45887 4.1865 8.45887C4.34057 8.45887 4.4656 8.58579 4.4656 8.74084C4.4656 8.89588 4.33997 9.0228 4.1865 9.0228ZM8.6521 9.0228C8.49804 9.0228 8.373 8.89588 8.373 8.74084C8.373 8.58579 8.49804 8.45887 8.6521 8.45887C8.80617 8.45887 8.9312 8.58579 8.9312 8.74084C8.9312 8.89588 8.80557 9.0228 8.6521 9.0228Z" fill="#006EFF"/>
<path d="M3.2535 6.20317H12.1697L13.5339 0H2.74219L3.2535 6.20317ZM12.1423 1.12785L11.2737 5.07532H4.28118L3.95579 1.12785H12.1424H12.1423Z" fill="#006EFF"/>
</svg>
