<svg width="13" height="14" viewBox="0 0 13 14" fill="none" xmlns="http://www.w3.org/2000/svg">
<g clip-path="url(#clip0_176_888)">
<path d="M12.4094 10.284L8.27563 5.83245C8.69621 4.28615 8.34227 2.54412 7.21146 1.32637C6.41653 0.470688 5.35956 0 4.23433 0C3.64257 0 3.06887 0.129332 2.52776 0.384203L1.79009 0.732831L4.38686 3.53024L3.18338 4.82641L0.598353 2.04212L0.291685 2.88642C-0.321064 4.57265 0.0494627 6.48654 1.23518 7.76374C2.03348 8.62353 3.09427 9.09659 4.22332 9.09659C4.63407 9.09659 5.03587 9.03256 5.41902 8.91161L9.55163 13.362C9.93316 13.773 10.4412 14 10.9813 14C11.5214 14 12.0283 13.773 12.4098 13.362C13.1966 12.5135 13.1971 11.1332 12.4093 10.2841L12.4094 10.284ZM2.01367 6.92514C1.35526 6.21665 1.03714 5.24128 1.11142 4.27192L3.18353 6.50299L5.94369 3.53024L3.7973 1.21791C4.75239 1.07498 5.74227 1.42187 6.43312 2.16545C7.65143 3.47806 7.65143 5.61316 6.43312 6.92529C5.84298 7.56089 5.05789 7.91062 4.22347 7.91062C3.38831 7.91062 2.60381 7.56073 2.01367 6.92514ZM11.6305 12.5228C11.2831 12.8981 10.678 12.8981 10.3303 12.5228L6.48832 8.38495C6.74654 8.20771 6.98979 8.00185 7.21161 7.76295C7.43343 7.52405 7.62559 7.25954 7.78854 6.98395L11.6311 11.1218C11.9894 11.5084 11.9894 12.1373 11.6305 12.5228Z" fill="#006EFF"/>
</g>
<defs>
<clipPath id="clip0_176_888">
<rect width="13" height="14" fill="white"/>
</clipPath>
</defs>
</svg>
