<svg width="14" height="17" viewBox="0 0 14 17" fill="none" xmlns="http://www.w3.org/2000/svg">
<path d="M1.84573 0L0 6.31238H13.3899L11.5442 0H1.84573ZM1.90316 4.90963L2.92912 1.40275H10.4608L11.4867 4.90963H1.90316Z" fill="#006EFF"/>
<path d="M10.9962 7.39251C10.6882 7.39251 10.5704 7.3104 10.3365 7.14563C10.03 6.9296 9.60996 6.63428 8.83959 6.63428C8.06921 6.63428 7.64994 6.9296 7.34344 7.14563C7.11007 7.30966 6.99309 7.39251 6.68659 7.39251C6.38008 7.39251 6.26311 7.3104 6.02974 7.14563C5.72323 6.9296 5.30397 6.63428 4.53436 6.63428C3.76475 6.63428 3.34471 6.9296 3.03898 7.14563C2.8056 7.30966 2.68863 7.39251 2.38213 7.39251C2.07562 7.39251 1.95999 7.3104 1.72662 7.14563C1.41935 6.93035 1.00008 6.63503 0.230469 6.63503V8.03778C0.536399 8.03778 0.652606 8.11988 0.885979 8.28466C0.90474 8.29794 0.929054 8.31272 0.94839 8.32674V16.833H12.4351V8.32394C12.4539 8.31066 12.4769 8.29663 12.4939 8.28391C12.728 8.11988 12.845 8.03703 13.153 8.03703V6.63428C12.3827 6.63428 11.9626 6.9296 11.6561 7.14563C11.4214 7.3104 11.3043 7.39251 10.9964 7.39251H10.9962ZM8.84533 15.4303H7.40949V11.222H8.84533V15.4303ZM10.9991 15.4303H10.2812V9.81927H5.97364V15.4303H2.38404V8.79451C3.15155 8.79377 3.57005 8.49919 3.87655 8.28391C4.10992 8.11988 4.2269 8.03703 4.5334 8.03703C4.8399 8.03703 4.95688 8.11914 5.19025 8.28391C5.49675 8.49994 5.91679 8.79526 6.6864 8.79526C7.45601 8.79526 7.87604 8.49994 8.18254 8.28391C8.41592 8.11988 8.53289 8.03703 8.84016 8.03703C9.14743 8.03703 9.26517 8.11914 9.49931 8.28391C9.80658 8.49994 10.2266 8.79526 10.997 8.79526H10.9999V15.4303H10.9993H10.9991Z" fill="#006EFF"/>
<path d="M3.10547 9.81934H4.54131V12.6248H3.10547V9.81934Z" fill="#006EFF"/>
</svg>
