<svg width="15" height="12" viewBox="0 0 15 12" fill="none" xmlns="http://www.w3.org/2000/svg">
<path d="M5.34395 7.57902C6.326 7.57902 7.12532 8.3638 7.12532 9.328H8.3129C8.3129 8.24892 7.70613 7.31659 6.81655 6.81242C7.01131 6.53196 7.12532 6.19382 7.12532 5.83004C7.12532 4.86584 6.326 4.08105 5.34395 4.08105C4.3619 4.08105 3.56258 4.86584 3.56258 5.83004C3.56258 6.19382 3.67659 6.53196 3.87135 6.81242C2.98177 7.31675 2.375 8.24892 2.375 9.328H3.56258C3.56258 8.3638 4.3619 7.57902 5.34395 7.57902ZM4.75016 5.83004C4.75016 5.50822 5.01681 5.24704 5.34395 5.24704C5.67109 5.24704 5.93774 5.50822 5.93774 5.83004C5.93774 6.15185 5.67109 6.41303 5.34395 6.41303C5.01681 6.41303 4.75016 6.15185 4.75016 5.83004Z" fill="#006EFF"/>
<path d="M8.3125 4.66382H11.8752V5.82981H8.3125V4.66382Z" fill="#006EFF"/>
<path d="M8.90625 6.41309H11.8752V7.57907H8.90625V6.41309Z" fill="#006EFF"/>
<path d="M9.50064 1.74898V0H4.75032V1.74898H0V11.6599H14.251V1.74898H9.50064ZM5.9379 1.16599H8.31306V1.74898H5.9379V1.16599ZM13.0634 10.4939H1.18758V2.91497H13.0634V10.4939Z" fill="#006EFF"/>
</svg>
