<svg width="15" height="15" viewBox="0 0 15 15" fill="none" xmlns="http://www.w3.org/2000/svg">
<path d="M11.2738 0L5.99492 5.59899C5.58029 5.48366 5.15313 5.42489 4.71861 5.42489C3.45814 5.42489 2.27304 5.91533 1.38223 6.80594C-0.460744 8.64795 -0.460744 11.6464 1.38223 13.489C2.27506 14.3816 3.46164 14.8735 4.72413 14.8735C5.98663 14.8735 7.1732 14.3816 8.06677 13.489C9.28375 12.2723 9.73229 10.4995 9.26919 8.86351L9.8939 8.23894L10.4066 6.69963L12.1191 6.12886L12.683 4.43829L14.8735 3.82331V0H11.2738ZM13.4914 2.77665L11.6035 3.30597L11.0265 5.03744L9.31397 5.6082L8.68577 7.49296L7.66928 8.50922L7.8344 8.92928C8.31942 10.1686 8.02715 11.5748 7.08936 12.5129C6.45709 13.1443 5.61733 13.4927 4.72395 13.4927C3.83056 13.4927 2.9908 13.1445 2.35928 12.5129C1.05532 11.2085 1.05532 9.08736 2.35928 7.78369C2.98951 7.15433 3.82706 6.80741 4.71842 6.80741C5.14005 6.80741 5.55247 6.88479 5.94369 7.03808L6.37841 7.20739L11.8703 1.38179H13.4916L13.4914 2.77665Z" fill="#006EFF"/>
<path d="M3.09229 8.51734C2.19319 9.41623 2.19319 10.8782 3.09229 11.7776C3.52756 12.2122 4.10675 12.4519 4.72242 12.4519C5.3381 12.4519 5.91729 12.2122 6.352 11.7769C7.2511 10.878 7.2511 9.41605 6.352 8.51715C5.48276 7.64663 3.96301 7.64663 3.09229 8.51715V8.51734ZM5.37477 10.8C5.02649 11.1483 4.41689 11.1483 4.06934 10.8C3.70926 10.44 3.70926 9.8549 4.06934 9.49417C4.24348 9.32006 4.47568 9.22334 4.72242 9.22334C4.96917 9.22334 5.20063 9.32006 5.37477 9.49417C5.73485 9.85472 5.73485 10.4393 5.37477 10.8Z" fill="#006EFF"/>
</svg>
