<svg width="15" height="15" viewBox="0 0 15 15" fill="none" xmlns="http://www.w3.org/2000/svg">
<g clip-path="url(#clip0_176_893)">
<path d="M7.32845 12.2145C9.34939 12.2145 10.9928 10.5711 10.9928 8.55013C10.9928 6.52918 9.34939 4.88574 7.32845 4.88574C5.3075 4.88574 3.66406 6.52918 3.66406 8.55013C3.66406 10.5711 5.3075 12.2145 7.32845 12.2145ZM7.32845 6.1072C8.6758 6.1072 9.77137 7.20277 9.77137 8.55013C9.77137 9.89748 8.6758 10.993 7.32845 10.993C5.98109 10.993 4.88552 9.89748 4.88552 8.55013C4.88552 7.20277 5.98109 6.1072 7.32845 6.1072Z" fill="#006EFF"/>
<path d="M6.71755 10.3824H7.93902V9.16094H9.16048V7.93948H7.93902V6.71802H6.71755V7.93948H5.49609V9.16094H6.71755V10.3824Z" fill="#006EFF"/>
<path d="M10.3824 3.05365V0H4.27511V3.05365H0V14.6575H14.6575V3.05365H10.3824ZM5.49658 1.22146H9.16096V3.05365H5.49658V1.22146ZM13.4361 13.4361H1.22146V4.27511H13.4361V13.4361Z" fill="#006EFF"/>
</g>
<defs>
<clipPath id="clip0_176_893">
<rect width="14.6575" height="14.6575" fill="white"/>
</clipPath>
</defs>
</svg>
